<mxfile host="app.diagrams.net" modified="2024-01-23T11:34:12.041Z" agent="Mozilla/5.0 (Windows NT 10.0; Win64; x64) AppleWebKit/537.36 (KHTML, like Gecko) Chrome/120.0.0.0 Safari/537.36" etag="48q1gL2lvXyfSNFRTAMy" version="22.1.17" type="github" pages="6">
  <diagram id="ZxEjnRGoBvc7GDNQgW_S" name="主流程">
    <mxGraphModel dx="1434" dy="746" grid="1" gridSize="10" guides="1" tooltips="1" connect="1" arrows="1" fold="1" page="1" pageScale="1" pageWidth="827" pageHeight="1169" math="0" shadow="0">
      <root>
        <mxCell id="0" />
        <mxCell id="1" parent="0" />
        <mxCell id="VKGLZCC5wdHL4uuEjue2-8" value="执行" style="rounded=0;orthogonalLoop=1;jettySize=auto;html=1;fontSize=16;dashed=1;strokeColor=#999999;" parent="1" source="iFd_izReUOdnMlPlyS4o-3" target="VKGLZCC5wdHL4uuEjue2-3" edge="1">
          <mxGeometry relative="1" as="geometry">
            <mxPoint x="190.909090909091" y="430" as="sourcePoint" />
          </mxGeometry>
        </mxCell>
        <mxCell id="VKGLZCC5wdHL4uuEjue2-16" value="任务完成，提供&lt;br style=&quot;font-size: 16px;&quot;&gt;测试任务开始-结束时间" style="edgeStyle=orthogonalEdgeStyle;rounded=0;orthogonalLoop=1;jettySize=auto;html=1;fontSize=16;" parent="1" source="iFd_izReUOdnMlPlyS4o-3" target="VKGLZCC5wdHL4uuEjue2-6" edge="1">
          <mxGeometry relative="1" as="geometry">
            <mxPoint x="280" y="330" as="sourcePoint" />
          </mxGeometry>
        </mxCell>
        <mxCell id="VKGLZCC5wdHL4uuEjue2-12" style="rounded=0;orthogonalLoop=1;jettySize=auto;html=1;fontSize=16;" parent="1" source="VKGLZCC5wdHL4uuEjue2-2" target="VKGLZCC5wdHL4uuEjue2-4" edge="1">
          <mxGeometry relative="1" as="geometry" />
        </mxCell>
        <mxCell id="VKGLZCC5wdHL4uuEjue2-2" value="" style="shape=image;html=1;verticalAlign=top;verticalLabelPosition=bottom;labelBackgroundColor=#ffffff;imageAspect=0;aspect=fixed;image=https://cdn4.iconfinder.com/data/icons/socialcones/508/Gitlab-128.png;fontSize=16;" parent="1" vertex="1">
          <mxGeometry x="160" y="120" width="80" height="80" as="geometry" />
        </mxCell>
        <mxCell id="VKGLZCC5wdHL4uuEjue2-7" style="rounded=0;orthogonalLoop=1;jettySize=auto;html=1;dashed=1;fontSize=16;endArrow=none;endFill=0;strokeColor=#999999;" parent="1" source="VKGLZCC5wdHL4uuEjue2-3" target="VKGLZCC5wdHL4uuEjue2-5" edge="1">
          <mxGeometry relative="1" as="geometry" />
        </mxCell>
        <mxCell id="VKGLZCC5wdHL4uuEjue2-15" value="上报数据" style="edgeLabel;html=1;align=center;verticalAlign=middle;resizable=0;points=[];fontSize=16;" parent="VKGLZCC5wdHL4uuEjue2-7" vertex="1" connectable="0">
          <mxGeometry x="0.0104" y="1" relative="1" as="geometry">
            <mxPoint as="offset" />
          </mxGeometry>
        </mxCell>
        <mxCell id="VKGLZCC5wdHL4uuEjue2-3" value="带有SDK项目地址" style="fontColor=#0066CC;verticalAlign=top;verticalLabelPosition=bottom;labelPosition=center;align=center;html=1;outlineConnect=0;fillColor=#CCCCCC;strokeColor=#6881B3;gradientColor=none;gradientDirection=north;strokeWidth=2;shape=mxgraph.networks.pc;fontSize=16;spacingTop=4;" parent="1" vertex="1">
          <mxGeometry x="160" y="570" width="100" height="70" as="geometry" />
        </mxCell>
        <mxCell id="VKGLZCC5wdHL4uuEjue2-11" value="下发测试任务" style="rounded=0;orthogonalLoop=1;jettySize=auto;html=1;fontSize=16;" parent="1" source="VKGLZCC5wdHL4uuEjue2-4" target="iFd_izReUOdnMlPlyS4o-3" edge="1">
          <mxGeometry x="-0.0036" relative="1" as="geometry">
            <mxPoint as="offset" />
            <mxPoint x="280" y="252.72727272727275" as="targetPoint" />
          </mxGeometry>
        </mxCell>
        <mxCell id="VKGLZCC5wdHL4uuEjue2-4" value="持续集成平台" style="ellipse;shape=cloud;whiteSpace=wrap;html=1;fontSize=16;" parent="1" vertex="1">
          <mxGeometry x="340" y="120" width="120" height="80" as="geometry" />
        </mxCell>
        <mxCell id="VKGLZCC5wdHL4uuEjue2-17" value="提供数据" style="rounded=0;orthogonalLoop=1;jettySize=auto;html=1;dashed=1;fontSize=16;strokeColor=#999999;" parent="1" source="VKGLZCC5wdHL4uuEjue2-5" target="VKGLZCC5wdHL4uuEjue2-6" edge="1">
          <mxGeometry relative="1" as="geometry" />
        </mxCell>
        <mxCell id="VKGLZCC5wdHL4uuEjue2-5" value="Sentry" style="ellipse;shape=cloud;whiteSpace=wrap;html=1;fontSize=16;" parent="1" vertex="1">
          <mxGeometry x="330" y="440" width="120" height="80" as="geometry" />
        </mxCell>
        <mxCell id="VKGLZCC5wdHL4uuEjue2-13" value="生成" style="rounded=0;orthogonalLoop=1;jettySize=auto;html=1;fontSize=16;" parent="1" source="VKGLZCC5wdHL4uuEjue2-6" target="VKGLZCC5wdHL4uuEjue2-9" edge="1">
          <mxGeometry relative="1" as="geometry" />
        </mxCell>
        <mxCell id="VKGLZCC5wdHL4uuEjue2-6" value="Bcode" style="ellipse;shape=cloud;whiteSpace=wrap;html=1;fontSize=16;" parent="1" vertex="1">
          <mxGeometry x="530" y="300" width="120" height="80" as="geometry" />
        </mxCell>
        <mxCell id="VKGLZCC5wdHL4uuEjue2-9" value="测试报告" style="verticalLabelPosition=bottom;sketch=0;aspect=fixed;html=1;verticalAlign=top;strokeColor=none;align=center;outlineConnect=0;shape=mxgraph.citrix.reporting;fontSize=16;" parent="1" vertex="1">
          <mxGeometry x="559.25" y="471" width="61.5" height="69" as="geometry" />
        </mxCell>
        <mxCell id="iFd_izReUOdnMlPlyS4o-3" value="触发器" style="swimlane;whiteSpace=wrap;html=1;startSize=30;" parent="1" vertex="1">
          <mxGeometry x="120" y="241" width="180" height="230" as="geometry" />
        </mxCell>
        <mxCell id="iFd_izReUOdnMlPlyS4o-2" value="E2E自动化脚本" style="rounded=0;whiteSpace=wrap;html=1;fontSize=16;" parent="iFd_izReUOdnMlPlyS4o-3" vertex="1">
          <mxGeometry x="30" y="50" width="120" height="60" as="geometry" />
        </mxCell>
        <mxCell id="VKGLZCC5wdHL4uuEjue2-1" value="奇林平台" style="ellipse;shape=cloud;whiteSpace=wrap;html=1;fontSize=16;" parent="iFd_izReUOdnMlPlyS4o-3" vertex="1">
          <mxGeometry x="30" y="130" width="120" height="80" as="geometry" />
        </mxCell>
      </root>
    </mxGraphModel>
  </diagram>
  <diagram name="数据流图" id="zR5LukECyCP3TorBvOVq">
    <mxGraphModel dx="1434" dy="746" grid="1" gridSize="10" guides="1" tooltips="1" connect="1" arrows="1" fold="1" page="1" pageScale="1" pageWidth="827" pageHeight="1169" math="0" shadow="0">
      <root>
        <mxCell id="0" />
        <mxCell id="1" parent="0" />
        <mxCell id="a0L2w2wCsgQ2mo0N0wgg-3" value="Sentry&lt;br style=&quot;font-size: 16px;&quot;&gt;Database" style="shape=cylinder;whiteSpace=wrap;html=1;boundedLbl=1;backgroundOutline=1;fontFamily=Verdana;rounded=0;shadow=0;comic=0;labelBackgroundColor=none;strokeWidth=1;fontSize=16;" parent="1" vertex="1">
          <mxGeometry x="625.63" y="300" width="88.75" height="100" as="geometry" />
        </mxCell>
        <mxCell id="a0L2w2wCsgQ2mo0N0wgg-96" style="edgeStyle=orthogonalEdgeStyle;rounded=0;orthogonalLoop=1;jettySize=auto;html=1;entryX=0;entryY=0.5;entryDx=0;entryDy=0;entryPerimeter=0;endArrow=none;endFill=0;" parent="1" source="a0L2w2wCsgQ2mo0N0wgg-5" target="a0L2w2wCsgQ2mo0N0wgg-97" edge="1">
          <mxGeometry relative="1" as="geometry">
            <mxPoint x="1212" y="197" as="targetPoint" />
          </mxGeometry>
        </mxCell>
        <mxCell id="a0L2w2wCsgQ2mo0N0wgg-5" value="输出性能报告" style="whiteSpace=wrap;html=1;rounded=0;shadow=0;comic=0;labelBackgroundColor=none;strokeWidth=1;fontFamily=Verdana;fontSize=16;align=center;" parent="1" vertex="1">
          <mxGeometry x="1070" y="172" width="120" height="50" as="geometry" />
        </mxCell>
        <mxCell id="a0L2w2wCsgQ2mo0N0wgg-6" style="edgeStyle=orthogonalEdgeStyle;html=1;labelBackgroundColor=none;startFill=0;startSize=8;endFill=1;endSize=8;fontFamily=Verdana;fontSize=16;rounded=0;" parent="1" source="a0L2w2wCsgQ2mo0N0wgg-7" target="a0L2w2wCsgQ2mo0N0wgg-11" edge="1">
          <mxGeometry relative="1" as="geometry" />
        </mxCell>
        <mxCell id="a0L2w2wCsgQ2mo0N0wgg-7" value="用户操作" style="whiteSpace=wrap;html=1;rounded=0;shadow=0;comic=0;labelBackgroundColor=none;strokeWidth=1;fontFamily=Verdana;fontSize=16;align=center;" parent="1" vertex="1">
          <mxGeometry x="60" y="172" width="120" height="50" as="geometry" />
        </mxCell>
        <mxCell id="a0L2w2wCsgQ2mo0N0wgg-9" style="edgeStyle=orthogonalEdgeStyle;html=1;labelBackgroundColor=none;startFill=0;startSize=8;endFill=1;endSize=8;fontFamily=Verdana;fontSize=16;rounded=0;" parent="1" source="a0L2w2wCsgQ2mo0N0wgg-47" target="a0L2w2wCsgQ2mo0N0wgg-3" edge="1">
          <mxGeometry relative="1" as="geometry" />
        </mxCell>
        <mxCell id="a0L2w2wCsgQ2mo0N0wgg-51" style="edgeStyle=orthogonalEdgeStyle;rounded=0;orthogonalLoop=1;jettySize=auto;html=1;fontSize=16;" parent="1" source="a0L2w2wCsgQ2mo0N0wgg-11" target="a0L2w2wCsgQ2mo0N0wgg-50" edge="1">
          <mxGeometry relative="1" as="geometry" />
        </mxCell>
        <mxCell id="a0L2w2wCsgQ2mo0N0wgg-11" value="1" style="swimlane;html=1;fontStyle=0;childLayout=stackLayout;horizontal=1;startSize=26;fillColor=#e0e0e0;horizontalStack=0;resizeParent=1;resizeLast=0;collapsible=1;marginBottom=0;swimlaneFillColor=#ffffff;align=center;rounded=1;shadow=0;comic=0;labelBackgroundColor=none;strokeWidth=1;fontFamily=Verdana;fontSize=16;" parent="1" vertex="1">
          <mxGeometry x="280" y="167" width="140" height="60" as="geometry" />
        </mxCell>
        <mxCell id="a0L2w2wCsgQ2mo0N0wgg-12" value="收集数据" style="text;html=1;strokeColor=none;fillColor=none;spacingLeft=4;spacingRight=4;whiteSpace=wrap;overflow=hidden;rotatable=0;points=[[0,0.5],[1,0.5]];portConstraint=eastwest;align=center;fontSize=16;" parent="a0L2w2wCsgQ2mo0N0wgg-11" vertex="1">
          <mxGeometry y="26" width="140" height="34" as="geometry" />
        </mxCell>
        <mxCell id="a0L2w2wCsgQ2mo0N0wgg-52" style="edgeStyle=orthogonalEdgeStyle;rounded=0;orthogonalLoop=1;jettySize=auto;html=1;fontSize=16;" parent="1" source="a0L2w2wCsgQ2mo0N0wgg-53" target="a0L2w2wCsgQ2mo0N0wgg-5" edge="1">
          <mxGeometry relative="1" as="geometry" />
        </mxCell>
        <mxCell id="a0L2w2wCsgQ2mo0N0wgg-49" value="" style="edgeStyle=orthogonalEdgeStyle;html=1;labelBackgroundColor=none;startFill=0;startSize=8;endFill=1;endSize=8;fontFamily=Verdana;fontSize=16;rounded=0;" parent="1" source="a0L2w2wCsgQ2mo0N0wgg-59" target="a0L2w2wCsgQ2mo0N0wgg-47" edge="1">
          <mxGeometry relative="1" as="geometry">
            <mxPoint x="530" y="196" as="sourcePoint" />
            <mxPoint x="820" y="198" as="targetPoint" />
          </mxGeometry>
        </mxCell>
        <mxCell id="a0L2w2wCsgQ2mo0N0wgg-60" style="edgeStyle=orthogonalEdgeStyle;rounded=0;orthogonalLoop=1;jettySize=auto;html=1;fontSize=16;" parent="1" source="a0L2w2wCsgQ2mo0N0wgg-47" target="a0L2w2wCsgQ2mo0N0wgg-53" edge="1">
          <mxGeometry relative="1" as="geometry" />
        </mxCell>
        <mxCell id="a0L2w2wCsgQ2mo0N0wgg-47" value="2" style="swimlane;html=1;fontStyle=0;childLayout=stackLayout;horizontal=1;startSize=26;fillColor=#e0e0e0;horizontalStack=0;resizeParent=1;resizeLast=0;collapsible=1;marginBottom=0;swimlaneFillColor=#ffffff;align=center;rounded=1;shadow=0;comic=0;labelBackgroundColor=none;strokeWidth=1;fontFamily=Verdana;fontSize=16;" parent="1" vertex="1">
          <mxGeometry x="600" y="167" width="140" height="60" as="geometry" />
        </mxCell>
        <mxCell id="a0L2w2wCsgQ2mo0N0wgg-48" value="上报数据" style="text;html=1;strokeColor=none;fillColor=none;spacingLeft=4;spacingRight=4;whiteSpace=wrap;overflow=hidden;rotatable=0;points=[[0,0.5],[1,0.5]];portConstraint=eastwest;align=center;fontSize=16;" parent="a0L2w2wCsgQ2mo0N0wgg-47" vertex="1">
          <mxGeometry y="26" width="140" height="34" as="geometry" />
        </mxCell>
        <mxCell id="a0L2w2wCsgQ2mo0N0wgg-50" value="broswer store" style="html=1;dashed=0;whiteSpace=wrap;shape=partialRectangle;right=0;fontSize=16;" parent="1" vertex="1">
          <mxGeometry x="287" y="300" width="126" height="40" as="geometry" />
        </mxCell>
        <mxCell id="a0L2w2wCsgQ2mo0N0wgg-53" value="3" style="swimlane;html=1;fontStyle=0;childLayout=stackLayout;horizontal=1;startSize=26;fillColor=#e0e0e0;horizontalStack=0;resizeParent=1;resizeLast=0;collapsible=1;marginBottom=0;swimlaneFillColor=#ffffff;align=center;rounded=1;shadow=0;comic=0;labelBackgroundColor=none;strokeWidth=1;fontFamily=Verdana;fontSize=16;" parent="1" vertex="1">
          <mxGeometry x="840" y="167" width="140" height="60" as="geometry">
            <mxRectangle x="840" y="167" width="50" height="30" as="alternateBounds" />
          </mxGeometry>
        </mxCell>
        <mxCell id="a0L2w2wCsgQ2mo0N0wgg-54" value="分析数据" style="text;html=1;strokeColor=none;fillColor=none;spacingLeft=4;spacingRight=4;whiteSpace=wrap;overflow=hidden;rotatable=0;points=[[0,0.5],[1,0.5]];portConstraint=eastwest;align=center;fontSize=16;" parent="a0L2w2wCsgQ2mo0N0wgg-53" vertex="1">
          <mxGeometry y="26" width="140" height="34" as="geometry" />
        </mxCell>
        <mxCell id="a0L2w2wCsgQ2mo0N0wgg-58" value="" style="edgeStyle=orthogonalEdgeStyle;html=1;labelBackgroundColor=none;startFill=0;startSize=8;endFill=1;endSize=8;fontFamily=Verdana;fontSize=16;rounded=0;" parent="1" source="a0L2w2wCsgQ2mo0N0wgg-11" target="a0L2w2wCsgQ2mo0N0wgg-59" edge="1">
          <mxGeometry relative="1" as="geometry">
            <mxPoint x="420" y="197" as="sourcePoint" />
            <mxPoint x="600" y="197" as="targetPoint" />
          </mxGeometry>
        </mxCell>
        <mxCell id="a0L2w2wCsgQ2mo0N0wgg-59" value="" style="shape=ellipse;html=1;dashed=0;whiteSpace=wrap;perimeter=ellipsePerimeter;fontSize=16;" parent="1" vertex="1">
          <mxGeometry x="500" y="182" width="30" height="30" as="geometry" />
        </mxCell>
        <mxCell id="a0L2w2wCsgQ2mo0N0wgg-64" value="用户操作" style="edgeStyle=none;orthogonalLoop=1;jettySize=auto;html=1;rounded=0;fontSize=16;" parent="1" target="a0L2w2wCsgQ2mo0N0wgg-67" edge="1">
          <mxGeometry width="100" relative="1" as="geometry">
            <mxPoint x="110" y="586" as="sourcePoint" />
            <mxPoint x="220" y="586" as="targetPoint" />
            <Array as="points" />
          </mxGeometry>
        </mxCell>
        <mxCell id="a0L2w2wCsgQ2mo0N0wgg-66" value="" style="endArrow=none;dashed=1;html=1;rounded=0;fontSize=16;" parent="1" edge="1">
          <mxGeometry width="50" height="50" relative="1" as="geometry">
            <mxPoint x="20" y="490" as="sourcePoint" />
            <mxPoint x="1372" y="490" as="targetPoint" />
          </mxGeometry>
        </mxCell>
        <mxCell id="a0L2w2wCsgQ2mo0N0wgg-71" value="" style="edgeStyle=orthogonalEdgeStyle;rounded=0;orthogonalLoop=1;jettySize=auto;html=1;fontSize=16;" parent="1" source="a0L2w2wCsgQ2mo0N0wgg-67" target="a0L2w2wCsgQ2mo0N0wgg-69" edge="1">
          <mxGeometry relative="1" as="geometry" />
        </mxCell>
        <mxCell id="a0L2w2wCsgQ2mo0N0wgg-67" value="1.1" style="swimlane;html=1;fontStyle=0;childLayout=stackLayout;horizontal=1;startSize=26;fillColor=#e0e0e0;horizontalStack=0;resizeParent=1;resizeLast=0;collapsible=1;marginBottom=0;swimlaneFillColor=#ffffff;align=center;rounded=1;shadow=0;comic=0;labelBackgroundColor=none;strokeWidth=1;fontFamily=Verdana;fontSize=16;" parent="1" vertex="1">
          <mxGeometry x="240" y="555" width="140" height="60" as="geometry" />
        </mxCell>
        <mxCell id="a0L2w2wCsgQ2mo0N0wgg-68" value="记录页面资源加载" style="text;html=1;strokeColor=none;fillColor=none;spacingLeft=4;spacingRight=4;whiteSpace=wrap;overflow=hidden;rotatable=0;points=[[0,0.5],[1,0.5]];portConstraint=eastwest;align=center;fontSize=16;" parent="a0L2w2wCsgQ2mo0N0wgg-67" vertex="1">
          <mxGeometry y="26" width="140" height="34" as="geometry" />
        </mxCell>
        <mxCell id="a0L2w2wCsgQ2mo0N0wgg-74" value="" style="edgeStyle=orthogonalEdgeStyle;rounded=0;orthogonalLoop=1;jettySize=auto;html=1;fontSize=16;" parent="1" source="a0L2w2wCsgQ2mo0N0wgg-69" target="a0L2w2wCsgQ2mo0N0wgg-75" edge="1">
          <mxGeometry relative="1" as="geometry">
            <mxPoint x="680" y="585" as="targetPoint" />
          </mxGeometry>
        </mxCell>
        <mxCell id="a0L2w2wCsgQ2mo0N0wgg-69" value="1.2" style="swimlane;html=1;fontStyle=0;childLayout=stackLayout;horizontal=1;startSize=26;fillColor=#e0e0e0;horizontalStack=0;resizeParent=1;resizeLast=0;collapsible=1;marginBottom=0;swimlaneFillColor=#ffffff;align=center;rounded=1;shadow=0;comic=0;labelBackgroundColor=none;strokeWidth=1;fontFamily=Verdana;fontSize=16;" parent="1" vertex="1">
          <mxGeometry x="460" y="555" width="140" height="60" as="geometry" />
        </mxCell>
        <mxCell id="a0L2w2wCsgQ2mo0N0wgg-70" value="记录 API 加载" style="text;html=1;strokeColor=none;fillColor=none;spacingLeft=4;spacingRight=4;whiteSpace=wrap;overflow=hidden;rotatable=0;points=[[0,0.5],[1,0.5]];portConstraint=eastwest;align=center;fontSize=16;" parent="a0L2w2wCsgQ2mo0N0wgg-69" vertex="1">
          <mxGeometry y="26" width="140" height="34" as="geometry" />
        </mxCell>
        <mxCell id="a0L2w2wCsgQ2mo0N0wgg-78" style="edgeStyle=orthogonalEdgeStyle;rounded=0;orthogonalLoop=1;jettySize=auto;html=1;fontSize=16;" parent="1" source="a0L2w2wCsgQ2mo0N0wgg-75" target="a0L2w2wCsgQ2mo0N0wgg-77" edge="1">
          <mxGeometry relative="1" as="geometry" />
        </mxCell>
        <mxCell id="a0L2w2wCsgQ2mo0N0wgg-80" value="" style="edgeStyle=orthogonalEdgeStyle;rounded=0;orthogonalLoop=1;jettySize=auto;html=1;fontSize=16;" parent="1" source="a0L2w2wCsgQ2mo0N0wgg-75" target="a0L2w2wCsgQ2mo0N0wgg-79" edge="1">
          <mxGeometry relative="1" as="geometry" />
        </mxCell>
        <mxCell id="a0L2w2wCsgQ2mo0N0wgg-75" value="" style="shape=ellipse;html=1;dashed=0;whiteSpace=wrap;perimeter=ellipsePerimeter;fontSize=16;" parent="1" vertex="1">
          <mxGeometry x="670" y="570" width="30" height="30" as="geometry" />
        </mxCell>
        <mxCell id="a0L2w2wCsgQ2mo0N0wgg-77" value="broswer store" style="html=1;dashed=0;whiteSpace=wrap;shape=partialRectangle;right=0;fontSize=16;" parent="1" vertex="1">
          <mxGeometry x="622" y="670" width="126" height="40" as="geometry" />
        </mxCell>
        <mxCell id="a0L2w2wCsgQ2mo0N0wgg-79" value="经过筛选的数据" style="whiteSpace=wrap;html=1;dashed=0;fontSize=16;" parent="1" vertex="1">
          <mxGeometry x="800" y="555" width="120" height="60" as="geometry" />
        </mxCell>
        <mxCell id="a0L2w2wCsgQ2mo0N0wgg-81" value="" style="endArrow=none;dashed=1;html=1;rounded=0;fontSize=16;" parent="1" edge="1">
          <mxGeometry width="50" height="50" relative="1" as="geometry">
            <mxPoint x="40" y="1180" as="sourcePoint" />
            <mxPoint x="1392" y="1180" as="targetPoint" />
          </mxGeometry>
        </mxCell>
        <mxCell id="a0L2w2wCsgQ2mo0N0wgg-82" value="上报数据" style="edgeStyle=none;orthogonalLoop=1;jettySize=auto;html=1;rounded=0;fontSize=16;" parent="1" target="a0L2w2wCsgQ2mo0N0wgg-83" edge="1">
          <mxGeometry width="100" relative="1" as="geometry">
            <mxPoint x="110" y="790" as="sourcePoint" />
            <mxPoint x="210" y="790" as="targetPoint" />
            <Array as="points" />
          </mxGeometry>
        </mxCell>
        <mxCell id="a0L2w2wCsgQ2mo0N0wgg-87" value="" style="edgeStyle=orthogonalEdgeStyle;rounded=0;orthogonalLoop=1;jettySize=auto;html=1;fontSize=16;" parent="1" source="a0L2w2wCsgQ2mo0N0wgg-83" target="a0L2w2wCsgQ2mo0N0wgg-85" edge="1">
          <mxGeometry relative="1" as="geometry" />
        </mxCell>
        <mxCell id="a0L2w2wCsgQ2mo0N0wgg-83" value="2.1" style="swimlane;html=1;fontStyle=0;childLayout=stackLayout;horizontal=1;startSize=26;fillColor=#e0e0e0;horizontalStack=0;resizeParent=1;resizeLast=0;collapsible=1;marginBottom=0;swimlaneFillColor=#ffffff;align=center;rounded=1;shadow=0;comic=0;labelBackgroundColor=none;strokeWidth=1;fontFamily=Verdana;fontSize=16;" parent="1" vertex="1">
          <mxGeometry x="240" y="760" width="140" height="60" as="geometry" />
        </mxCell>
        <mxCell id="a0L2w2wCsgQ2mo0N0wgg-84" value="请求 sentry API" style="text;html=1;strokeColor=none;fillColor=none;spacingLeft=4;spacingRight=4;whiteSpace=wrap;overflow=hidden;rotatable=0;points=[[0,0.5],[1,0.5]];portConstraint=eastwest;align=center;fontSize=16;" parent="a0L2w2wCsgQ2mo0N0wgg-83" vertex="1">
          <mxGeometry y="26" width="140" height="34" as="geometry" />
        </mxCell>
        <mxCell id="a0L2w2wCsgQ2mo0N0wgg-89" style="edgeStyle=orthogonalEdgeStyle;rounded=0;orthogonalLoop=1;jettySize=auto;html=1;fontSize=16;" parent="1" source="a0L2w2wCsgQ2mo0N0wgg-85" target="a0L2w2wCsgQ2mo0N0wgg-88" edge="1">
          <mxGeometry relative="1" as="geometry" />
        </mxCell>
        <mxCell id="a0L2w2wCsgQ2mo0N0wgg-90" value="返回结果" style="edgeStyle=orthogonalEdgeStyle;rounded=0;orthogonalLoop=1;jettySize=auto;html=1;fontSize=16;" parent="1" source="a0L2w2wCsgQ2mo0N0wgg-85" edge="1">
          <mxGeometry relative="1" as="geometry">
            <mxPoint x="720" y="790" as="targetPoint" />
          </mxGeometry>
        </mxCell>
        <mxCell id="a0L2w2wCsgQ2mo0N0wgg-85" value="2.2" style="swimlane;html=1;fontStyle=0;childLayout=stackLayout;horizontal=1;startSize=26;fillColor=#e0e0e0;horizontalStack=0;resizeParent=1;resizeLast=0;collapsible=1;marginBottom=0;swimlaneFillColor=#ffffff;align=center;rounded=1;shadow=0;comic=0;labelBackgroundColor=none;strokeWidth=1;fontFamily=Verdana;fontSize=16;" parent="1" vertex="1">
          <mxGeometry x="460" y="760" width="140" height="60" as="geometry" />
        </mxCell>
        <mxCell id="a0L2w2wCsgQ2mo0N0wgg-86" value="发送数据" style="text;html=1;strokeColor=none;fillColor=none;spacingLeft=4;spacingRight=4;whiteSpace=wrap;overflow=hidden;rotatable=0;points=[[0,0.5],[1,0.5]];portConstraint=eastwest;align=center;fontSize=16;" parent="a0L2w2wCsgQ2mo0N0wgg-85" vertex="1">
          <mxGeometry y="26" width="140" height="34" as="geometry" />
        </mxCell>
        <mxCell id="a0L2w2wCsgQ2mo0N0wgg-88" value="Sentry&lt;br style=&quot;font-size: 16px;&quot;&gt;Database" style="shape=cylinder;whiteSpace=wrap;html=1;boundedLbl=1;backgroundOutline=1;fontFamily=Verdana;rounded=0;shadow=0;comic=0;labelBackgroundColor=none;strokeWidth=1;fontSize=16;" parent="1" vertex="1">
          <mxGeometry x="485.63" y="880" width="88.75" height="100" as="geometry" />
        </mxCell>
        <mxCell id="a0L2w2wCsgQ2mo0N0wgg-92" value="项目ID&lt;br style=&quot;font-size: 16px;&quot;&gt;时间范围" style="edgeStyle=none;orthogonalLoop=1;jettySize=auto;html=1;rounded=0;fontSize=16;" parent="1" target="a0L2w2wCsgQ2mo0N0wgg-93" edge="1">
          <mxGeometry width="100" relative="1" as="geometry">
            <mxPoint x="125" y="1060" as="sourcePoint" />
            <mxPoint x="225" y="1060" as="targetPoint" />
            <Array as="points" />
          </mxGeometry>
        </mxCell>
        <mxCell id="QyBhSop0F0U6f-0SCQQO-2" style="edgeStyle=orthogonalEdgeStyle;rounded=0;orthogonalLoop=1;jettySize=auto;html=1;" parent="1" source="a0L2w2wCsgQ2mo0N0wgg-93" target="QyBhSop0F0U6f-0SCQQO-1" edge="1">
          <mxGeometry relative="1" as="geometry" />
        </mxCell>
        <mxCell id="a0L2w2wCsgQ2mo0N0wgg-93" value="3.1" style="swimlane;html=1;fontStyle=0;childLayout=stackLayout;horizontal=1;startSize=26;fillColor=#e0e0e0;horizontalStack=0;resizeParent=1;resizeLast=0;collapsible=1;marginBottom=0;swimlaneFillColor=#ffffff;align=center;rounded=1;shadow=0;comic=0;labelBackgroundColor=none;strokeWidth=1;fontFamily=Verdana;fontSize=16;" parent="1" vertex="1">
          <mxGeometry x="245" y="1030" width="140" height="60" as="geometry" />
        </mxCell>
        <mxCell id="a0L2w2wCsgQ2mo0N0wgg-94" value="请求多维度数据" style="text;html=1;strokeColor=none;fillColor=none;spacingLeft=4;spacingRight=4;whiteSpace=wrap;overflow=hidden;rotatable=0;points=[[0,0.5],[1,0.5]];portConstraint=eastwest;align=center;fontSize=16;" parent="a0L2w2wCsgQ2mo0N0wgg-93" vertex="1">
          <mxGeometry y="26" width="140" height="34" as="geometry" />
        </mxCell>
        <mxCell id="a0L2w2wCsgQ2mo0N0wgg-97" value="页面白屏时间 FCP&lt;br style=&quot;font-size: 16px;&quot;&gt;最慢页面排行&lt;br style=&quot;font-size: 16px;&quot;&gt;接口响应时长&lt;br style=&quot;font-size: 16px;&quot;&gt;最慢接口排行&lt;br style=&quot;font-size: 16px;&quot;&gt;页面最大内容加载完成时间 LCP" style="strokeWidth=2;html=1;shape=mxgraph.flowchart.annotation_1;align=left;pointerEvents=1;spacingLeft=8;fontSize=16;" parent="1" vertex="1">
          <mxGeometry x="1226" y="135.5" width="30" height="123" as="geometry" />
        </mxCell>
        <mxCell id="QyBhSop0F0U6f-0SCQQO-3" value="输出报告" style="edgeStyle=orthogonalEdgeStyle;rounded=0;orthogonalLoop=1;jettySize=auto;html=1;fontSize=16;" parent="1" source="QyBhSop0F0U6f-0SCQQO-1" edge="1">
          <mxGeometry relative="1" as="geometry">
            <mxPoint x="660" y="1060" as="targetPoint" />
          </mxGeometry>
        </mxCell>
        <mxCell id="QyBhSop0F0U6f-0SCQQO-1" value="" style="ellipse;whiteSpace=wrap;html=1;aspect=fixed;" parent="1" vertex="1">
          <mxGeometry x="465" y="1045" width="30" height="30" as="geometry" />
        </mxCell>
      </root>
    </mxGraphModel>
  </diagram>
  <diagram id="m2T8EUuySyEy1uf0dPtj" name="泳道图">
    <mxGraphModel dx="1434" dy="746" grid="1" gridSize="10" guides="1" tooltips="1" connect="1" arrows="1" fold="1" page="1" pageScale="1" pageWidth="827" pageHeight="1169" math="0" shadow="0">
      <root>
        <mxCell id="0" />
        <mxCell id="1" parent="0" />
        <mxCell id="1Dwrab8MyVGWYaHdFyip-1" value="自动化性能测试工具" style="swimlane;childLayout=stackLayout;resizeParent=1;resizeParentMax=0;horizontal=0;startSize=40;horizontalStack=0;html=1;" parent="1" vertex="1">
          <mxGeometry x="70" y="20" width="1130" height="1300" as="geometry" />
        </mxCell>
        <mxCell id="1Dwrab8MyVGWYaHdFyip-18" style="edgeStyle=orthogonalEdgeStyle;rounded=0;orthogonalLoop=1;jettySize=auto;html=1;fontSize=16;" parent="1Dwrab8MyVGWYaHdFyip-1" source="1Dwrab8MyVGWYaHdFyip-16" target="1Dwrab8MyVGWYaHdFyip-23" edge="1">
          <mxGeometry relative="1" as="geometry">
            <mxPoint x="290" y="350" as="targetPoint" />
          </mxGeometry>
        </mxCell>
        <mxCell id="1Dwrab8MyVGWYaHdFyip-48" value="根据测试任务获取&lt;br&gt;&lt;font color=&quot;#ff7759&quot;&gt;开始-结束时间&lt;/font&gt;" style="edgeStyle=orthogonalEdgeStyle;rounded=0;orthogonalLoop=1;jettySize=auto;html=1;fontSize=16;" parent="1Dwrab8MyVGWYaHdFyip-1" source="1Dwrab8MyVGWYaHdFyip-31" target="1Dwrab8MyVGWYaHdFyip-47" edge="1">
          <mxGeometry x="0.0118" relative="1" as="geometry">
            <mxPoint as="offset" />
          </mxGeometry>
        </mxCell>
        <mxCell id="1Dwrab8MyVGWYaHdFyip-54" style="edgeStyle=orthogonalEdgeStyle;rounded=0;orthogonalLoop=1;jettySize=auto;html=1;fontSize=16;" parent="1Dwrab8MyVGWYaHdFyip-1" source="1Dwrab8MyVGWYaHdFyip-45" target="1Dwrab8MyVGWYaHdFyip-55" edge="1">
          <mxGeometry relative="1" as="geometry">
            <mxPoint x="900" y="950" as="targetPoint" />
          </mxGeometry>
        </mxCell>
        <mxCell id="1Dwrab8MyVGWYaHdFyip-56" value="点击" style="edgeLabel;html=1;align=center;verticalAlign=middle;resizable=0;points=[];fontSize=16;" parent="1Dwrab8MyVGWYaHdFyip-54" vertex="1" connectable="0">
          <mxGeometry x="-0.9013" y="1" relative="1" as="geometry">
            <mxPoint as="offset" />
          </mxGeometry>
        </mxCell>
        <mxCell id="1Dwrab8MyVGWYaHdFyip-59" style="rounded=0;orthogonalLoop=1;jettySize=auto;html=1;exitX=0.5;exitY=1;exitDx=0;exitDy=0;exitPerimeter=0;dashed=1;fontSize=16;" parent="1Dwrab8MyVGWYaHdFyip-1" source="1Dwrab8MyVGWYaHdFyip-40" target="1Dwrab8MyVGWYaHdFyip-57" edge="1">
          <mxGeometry relative="1" as="geometry" />
        </mxCell>
        <mxCell id="w1ERKTR07PGkKcICvyhH-2" value="项目配置" style="swimlane;startSize=30;horizontal=0;html=1;" parent="1Dwrab8MyVGWYaHdFyip-1" vertex="1">
          <mxGeometry x="40" width="1090" height="180" as="geometry" />
        </mxCell>
        <mxCell id="1Dwrab8MyVGWYaHdFyip-6" value="开发" style="shape=umlActor;verticalLabelPosition=bottom;verticalAlign=top;html=1;outlineConnect=0;fontSize=16;" parent="w1ERKTR07PGkKcICvyhH-2" vertex="1">
          <mxGeometry x="90" y="50" width="30" height="60" as="geometry" />
        </mxCell>
        <mxCell id="w1ERKTR07PGkKcICvyhH-5" value="" style="edgeStyle=orthogonalEdgeStyle;rounded=0;orthogonalLoop=1;jettySize=auto;html=1;fontSize=16;" parent="w1ERKTR07PGkKcICvyhH-2" source="w1ERKTR07PGkKcICvyhH-3" target="w1ERKTR07PGkKcICvyhH-4" edge="1">
          <mxGeometry relative="1" as="geometry" />
        </mxCell>
        <mxCell id="w1ERKTR07PGkKcICvyhH-3" value="创建 Sentry 项目" style="rounded=0;whiteSpace=wrap;html=1;fontSize=16;" parent="w1ERKTR07PGkKcICvyhH-2" vertex="1">
          <mxGeometry x="190" y="50" width="120" height="60" as="geometry" />
        </mxCell>
        <mxCell id="1Dwrab8MyVGWYaHdFyip-11" value="" style="edgeStyle=orthogonalEdgeStyle;rounded=0;orthogonalLoop=1;jettySize=auto;html=1;fontSize=16;" parent="w1ERKTR07PGkKcICvyhH-2" source="1Dwrab8MyVGWYaHdFyip-6" target="w1ERKTR07PGkKcICvyhH-3" edge="1">
          <mxGeometry relative="1" as="geometry">
            <mxPoint x="337" y="280" as="sourcePoint" />
            <mxPoint x="207" y="70" as="targetPoint" />
          </mxGeometry>
        </mxCell>
        <mxCell id="w1ERKTR07PGkKcICvyhH-7" value="" style="edgeStyle=orthogonalEdgeStyle;rounded=0;orthogonalLoop=1;jettySize=auto;html=1;fontSize=16;" parent="w1ERKTR07PGkKcICvyhH-2" source="w1ERKTR07PGkKcICvyhH-4" target="w1ERKTR07PGkKcICvyhH-6" edge="1">
          <mxGeometry relative="1" as="geometry" />
        </mxCell>
        <mxCell id="w1ERKTR07PGkKcICvyhH-4" value="初始化 DSN" style="whiteSpace=wrap;html=1;rounded=0;fontSize=16;" parent="w1ERKTR07PGkKcICvyhH-2" vertex="1">
          <mxGeometry x="397" y="50" width="120" height="60" as="geometry" />
        </mxCell>
        <mxCell id="w1ERKTR07PGkKcICvyhH-6" value="项目中初始化 Sentry" style="whiteSpace=wrap;html=1;rounded=0;fontSize=16;" parent="w1ERKTR07PGkKcICvyhH-2" vertex="1">
          <mxGeometry x="597" y="50" width="120" height="60" as="geometry" />
        </mxCell>
        <mxCell id="1Dwrab8MyVGWYaHdFyip-2" value="CI" style="swimlane;startSize=30;horizontal=0;html=1;" parent="1Dwrab8MyVGWYaHdFyip-1" vertex="1">
          <mxGeometry x="40" y="180" width="1090" height="210" as="geometry" />
        </mxCell>
        <mxCell id="1Dwrab8MyVGWYaHdFyip-10" value="配置流水线" style="whiteSpace=wrap;html=1;rounded=0;fontSize=16;" parent="1Dwrab8MyVGWYaHdFyip-2" vertex="1">
          <mxGeometry x="184" y="70" width="120" height="60" as="geometry" />
        </mxCell>
        <mxCell id="1Dwrab8MyVGWYaHdFyip-12" value="执行性能测试" style="whiteSpace=wrap;html=1;rounded=0;fontSize=16;" parent="1Dwrab8MyVGWYaHdFyip-2" vertex="1">
          <mxGeometry x="485" y="90" width="120" height="60" as="geometry" />
        </mxCell>
        <mxCell id="1Dwrab8MyVGWYaHdFyip-46" value="是" style="edgeStyle=orthogonalEdgeStyle;rounded=0;orthogonalLoop=1;jettySize=auto;html=1;fontSize=16;" parent="1Dwrab8MyVGWYaHdFyip-2" source="1Dwrab8MyVGWYaHdFyip-43" target="1Dwrab8MyVGWYaHdFyip-45" edge="1">
          <mxGeometry relative="1" as="geometry" />
        </mxCell>
        <mxCell id="1Dwrab8MyVGWYaHdFyip-51" value="否" style="edgeStyle=orthogonalEdgeStyle;rounded=0;orthogonalLoop=1;jettySize=auto;html=1;fontSize=16;" parent="1Dwrab8MyVGWYaHdFyip-2" source="1Dwrab8MyVGWYaHdFyip-43" target="1Dwrab8MyVGWYaHdFyip-50" edge="1">
          <mxGeometry relative="1" as="geometry" />
        </mxCell>
        <mxCell id="1Dwrab8MyVGWYaHdFyip-43" value="时间跨度 &amp;gt; 30min" style="rhombus;whiteSpace=wrap;html=1;rounded=0;fontSize=16;" parent="1Dwrab8MyVGWYaHdFyip-2" vertex="1">
          <mxGeometry x="795" y="10" width="80" height="80" as="geometry" />
        </mxCell>
        <mxCell id="1Dwrab8MyVGWYaHdFyip-45" value="生成 bcode 链接" style="whiteSpace=wrap;html=1;rounded=0;fontSize=16;" parent="1Dwrab8MyVGWYaHdFyip-2" vertex="1">
          <mxGeometry x="775" y="140" width="120" height="60" as="geometry" />
        </mxCell>
        <mxCell id="1Dwrab8MyVGWYaHdFyip-49" style="edgeStyle=orthogonalEdgeStyle;rounded=0;orthogonalLoop=1;jettySize=auto;html=1;entryX=0;entryY=0.5;entryDx=0;entryDy=0;exitX=0.5;exitY=0;exitDx=0;exitDy=0;fontSize=16;" parent="1Dwrab8MyVGWYaHdFyip-2" source="1Dwrab8MyVGWYaHdFyip-47" target="1Dwrab8MyVGWYaHdFyip-43" edge="1">
          <mxGeometry relative="1" as="geometry" />
        </mxCell>
        <mxCell id="1Dwrab8MyVGWYaHdFyip-47" value="" style="ellipse;whiteSpace=wrap;html=1;aspect=fixed;fontSize=16;" parent="1Dwrab8MyVGWYaHdFyip-2" vertex="1">
          <mxGeometry x="710" y="155" width="30" height="30" as="geometry" />
        </mxCell>
        <mxCell id="1Dwrab8MyVGWYaHdFyip-53" style="edgeStyle=orthogonalEdgeStyle;rounded=0;orthogonalLoop=1;jettySize=auto;html=1;fontSize=16;" parent="1Dwrab8MyVGWYaHdFyip-2" source="1Dwrab8MyVGWYaHdFyip-50" target="1Dwrab8MyVGWYaHdFyip-52" edge="1">
          <mxGeometry relative="1" as="geometry" />
        </mxCell>
        <mxCell id="1Dwrab8MyVGWYaHdFyip-50" value="生成测试报告" style="whiteSpace=wrap;html=1;rounded=0;fontSize=16;" parent="1Dwrab8MyVGWYaHdFyip-2" vertex="1">
          <mxGeometry x="935" y="20" width="120" height="60" as="geometry" />
        </mxCell>
        <mxCell id="1Dwrab8MyVGWYaHdFyip-52" value="结束" style="ellipse;whiteSpace=wrap;html=1;fontSize=16;" parent="1Dwrab8MyVGWYaHdFyip-2" vertex="1">
          <mxGeometry x="945" y="140" width="100" height="60" as="geometry" />
        </mxCell>
        <mxCell id="w1ERKTR07PGkKcICvyhH-15" style="edgeStyle=orthogonalEdgeStyle;rounded=0;orthogonalLoop=1;jettySize=auto;html=1;" parent="1Dwrab8MyVGWYaHdFyip-2" source="w1ERKTR07PGkKcICvyhH-14" target="1Dwrab8MyVGWYaHdFyip-12" edge="1">
          <mxGeometry relative="1" as="geometry" />
        </mxCell>
        <mxCell id="w1ERKTR07PGkKcICvyhH-14" value="" style="ellipse;whiteSpace=wrap;html=1;aspect=fixed;" parent="1Dwrab8MyVGWYaHdFyip-2" vertex="1">
          <mxGeometry x="530" y="20" width="30" height="30" as="geometry" />
        </mxCell>
        <mxCell id="w1ERKTR07PGkKcICvyhH-17" style="edgeStyle=orthogonalEdgeStyle;rounded=0;orthogonalLoop=1;jettySize=auto;html=1;" parent="1Dwrab8MyVGWYaHdFyip-2" source="w1ERKTR07PGkKcICvyhH-16" target="1Dwrab8MyVGWYaHdFyip-10" edge="1">
          <mxGeometry relative="1" as="geometry" />
        </mxCell>
        <mxCell id="w1ERKTR07PGkKcICvyhH-16" value="" style="shape=umlActor;verticalLabelPosition=bottom;verticalAlign=top;html=1;outlineConnect=0;fontSize=16;" parent="1Dwrab8MyVGWYaHdFyip-2" vertex="1">
          <mxGeometry x="90" y="70" width="30" height="60" as="geometry" />
        </mxCell>
        <mxCell id="w1ERKTR07PGkKcICvyhH-1" value="记录测试&lt;font color=&quot;#ff7759&quot;&gt;任务ID&lt;/font&gt;" style="edgeStyle=orthogonalEdgeStyle;rounded=0;orthogonalLoop=1;jettySize=auto;html=1;entryX=0.5;entryY=0;entryDx=0;entryDy=0;fontSize=16;" parent="1Dwrab8MyVGWYaHdFyip-1" source="1Dwrab8MyVGWYaHdFyip-12" target="1Dwrab8MyVGWYaHdFyip-14" edge="1">
          <mxGeometry relative="1" as="geometry">
            <mxPoint as="offset" />
          </mxGeometry>
        </mxCell>
        <mxCell id="1Dwrab8MyVGWYaHdFyip-3" value="奇林" style="swimlane;startSize=30;horizontal=0;html=1;" parent="1Dwrab8MyVGWYaHdFyip-1" vertex="1">
          <mxGeometry x="40" y="390" width="1090" height="220" as="geometry">
            <mxRectangle x="40" y="210" width="1090" height="30" as="alternateBounds" />
          </mxGeometry>
        </mxCell>
        <mxCell id="1Dwrab8MyVGWYaHdFyip-17" value="" style="edgeStyle=orthogonalEdgeStyle;rounded=0;orthogonalLoop=1;jettySize=auto;html=1;fontSize=16;" parent="1Dwrab8MyVGWYaHdFyip-3" source="1Dwrab8MyVGWYaHdFyip-14" target="1Dwrab8MyVGWYaHdFyip-16" edge="1">
          <mxGeometry relative="1" as="geometry" />
        </mxCell>
        <mxCell id="1Dwrab8MyVGWYaHdFyip-14" value="" style="ellipse;whiteSpace=wrap;html=1;aspect=fixed;fontSize=16;" parent="1Dwrab8MyVGWYaHdFyip-3" vertex="1">
          <mxGeometry x="530" y="20" width="30" height="30" as="geometry" />
        </mxCell>
        <mxCell id="1Dwrab8MyVGWYaHdFyip-16" value="下发自动化测试任务" style="whiteSpace=wrap;html=1;fontSize=16;" parent="1Dwrab8MyVGWYaHdFyip-3" vertex="1">
          <mxGeometry x="485" y="140" width="120" height="60" as="geometry" />
        </mxCell>
        <mxCell id="1Dwrab8MyVGWYaHdFyip-31" value="任务完成" style="rounded=0;whiteSpace=wrap;html=1;fontSize=16;" parent="1Dwrab8MyVGWYaHdFyip-3" vertex="1">
          <mxGeometry x="665" y="60" width="120" height="60" as="geometry" />
        </mxCell>
        <mxCell id="1Dwrab8MyVGWYaHdFyip-29" value="" style="ellipse;whiteSpace=wrap;html=1;aspect=fixed;fontSize=16;" parent="1Dwrab8MyVGWYaHdFyip-3" vertex="1">
          <mxGeometry x="672.5" y="170" width="30" height="30" as="geometry" />
        </mxCell>
        <mxCell id="1Dwrab8MyVGWYaHdFyip-32" style="edgeStyle=orthogonalEdgeStyle;rounded=0;orthogonalLoop=1;jettySize=auto;html=1;fontSize=16;" parent="1Dwrab8MyVGWYaHdFyip-3" source="1Dwrab8MyVGWYaHdFyip-29" target="1Dwrab8MyVGWYaHdFyip-31" edge="1">
          <mxGeometry relative="1" as="geometry" />
        </mxCell>
        <mxCell id="w1ERKTR07PGkKcICvyhH-21" value="" style="edgeStyle=orthogonalEdgeStyle;rounded=0;orthogonalLoop=1;jettySize=auto;html=1;" parent="1Dwrab8MyVGWYaHdFyip-3" source="w1ERKTR07PGkKcICvyhH-12" target="w1ERKTR07PGkKcICvyhH-20" edge="1">
          <mxGeometry relative="1" as="geometry" />
        </mxCell>
        <mxCell id="w1ERKTR07PGkKcICvyhH-12" value="录制页面自动化脚本" style="rounded=0;whiteSpace=wrap;html=1;fontSize=16;" parent="1Dwrab8MyVGWYaHdFyip-3" vertex="1">
          <mxGeometry x="184" y="40" width="120" height="60" as="geometry" />
        </mxCell>
        <mxCell id="w1ERKTR07PGkKcICvyhH-9" value="" style="shape=umlActor;verticalLabelPosition=bottom;verticalAlign=top;html=1;outlineConnect=0;fontSize=16;" parent="1Dwrab8MyVGWYaHdFyip-3" vertex="1">
          <mxGeometry x="90" y="40" width="30" height="60" as="geometry" />
        </mxCell>
        <mxCell id="w1ERKTR07PGkKcICvyhH-13" style="edgeStyle=orthogonalEdgeStyle;rounded=0;orthogonalLoop=1;jettySize=auto;html=1;" parent="1Dwrab8MyVGWYaHdFyip-3" source="w1ERKTR07PGkKcICvyhH-9" target="w1ERKTR07PGkKcICvyhH-12" edge="1">
          <mxGeometry relative="1" as="geometry" />
        </mxCell>
        <mxCell id="w1ERKTR07PGkKcICvyhH-22" style="rounded=0;orthogonalLoop=1;jettySize=auto;html=1;endArrow=none;endFill=0;dashed=1;" parent="1Dwrab8MyVGWYaHdFyip-3" source="w1ERKTR07PGkKcICvyhH-20" target="1Dwrab8MyVGWYaHdFyip-16" edge="1">
          <mxGeometry relative="1" as="geometry" />
        </mxCell>
        <mxCell id="w1ERKTR07PGkKcICvyhH-20" value="新建测试计划" style="whiteSpace=wrap;html=1;fontSize=16;rounded=0;" parent="1Dwrab8MyVGWYaHdFyip-3" vertex="1">
          <mxGeometry x="365" y="40" width="120" height="60" as="geometry" />
        </mxCell>
        <mxCell id="1Dwrab8MyVGWYaHdFyip-28" value="" style="edgeStyle=orthogonalEdgeStyle;rounded=0;orthogonalLoop=1;jettySize=auto;html=1;fontSize=16;exitX=0.5;exitY=0;exitDx=0;exitDy=0;exitPerimeter=0;" parent="1Dwrab8MyVGWYaHdFyip-1" source="w1ERKTR07PGkKcICvyhH-18" target="1Dwrab8MyVGWYaHdFyip-29" edge="1">
          <mxGeometry relative="1" as="geometry" />
        </mxCell>
        <mxCell id="1Dwrab8MyVGWYaHdFyip-33" value="数据采样" style="edgeStyle=orthogonalEdgeStyle;rounded=0;orthogonalLoop=1;jettySize=auto;html=1;fontSize=16;exitX=0.5;exitY=1;exitDx=0;exitDy=0;exitPerimeter=0;" parent="1Dwrab8MyVGWYaHdFyip-1" source="w1ERKTR07PGkKcICvyhH-18" target="1Dwrab8MyVGWYaHdFyip-34" edge="1">
          <mxGeometry relative="1" as="geometry">
            <mxPoint as="offset" />
          </mxGeometry>
        </mxCell>
        <mxCell id="1Dwrab8MyVGWYaHdFyip-20" value="执行器" style="swimlane;startSize=30;horizontal=0;html=1;" parent="1Dwrab8MyVGWYaHdFyip-1" vertex="1">
          <mxGeometry x="40" y="610" width="1090" height="220" as="geometry" />
        </mxCell>
        <mxCell id="1Dwrab8MyVGWYaHdFyip-26" value="" style="edgeStyle=orthogonalEdgeStyle;rounded=0;orthogonalLoop=1;jettySize=auto;html=1;fontSize=16;" parent="1Dwrab8MyVGWYaHdFyip-20" source="1Dwrab8MyVGWYaHdFyip-19" target="1Dwrab8MyVGWYaHdFyip-25" edge="1">
          <mxGeometry relative="1" as="geometry" />
        </mxCell>
        <mxCell id="1Dwrab8MyVGWYaHdFyip-19" value="唤醒浏览器" style="rounded=0;whiteSpace=wrap;html=1;fontSize=16;" parent="1Dwrab8MyVGWYaHdFyip-20" vertex="1">
          <mxGeometry x="70" y="100" width="120" height="60" as="geometry" />
        </mxCell>
        <mxCell id="1Dwrab8MyVGWYaHdFyip-24" style="edgeStyle=orthogonalEdgeStyle;rounded=0;orthogonalLoop=1;jettySize=auto;html=1;fontSize=16;" parent="1Dwrab8MyVGWYaHdFyip-20" source="1Dwrab8MyVGWYaHdFyip-23" target="1Dwrab8MyVGWYaHdFyip-19" edge="1">
          <mxGeometry relative="1" as="geometry" />
        </mxCell>
        <mxCell id="1Dwrab8MyVGWYaHdFyip-23" value="" style="ellipse;whiteSpace=wrap;html=1;aspect=fixed;fontSize=16;" parent="1Dwrab8MyVGWYaHdFyip-20" vertex="1">
          <mxGeometry x="115" y="20" width="30" height="30" as="geometry" />
        </mxCell>
        <mxCell id="1Dwrab8MyVGWYaHdFyip-39" value="" style="edgeStyle=orthogonalEdgeStyle;rounded=0;orthogonalLoop=1;jettySize=auto;html=1;fontSize=16;" parent="1Dwrab8MyVGWYaHdFyip-20" source="1Dwrab8MyVGWYaHdFyip-25" target="1Dwrab8MyVGWYaHdFyip-38" edge="1">
          <mxGeometry relative="1" as="geometry" />
        </mxCell>
        <mxCell id="1Dwrab8MyVGWYaHdFyip-25" value="自动执行脚本" style="strokeWidth=1;html=1;shape=mxgraph.flowchart.loop_limit;whiteSpace=wrap;rounded=0;fontSize=16;" parent="1Dwrab8MyVGWYaHdFyip-20" vertex="1">
          <mxGeometry x="270" y="100" width="120" height="60" as="geometry" />
        </mxCell>
        <mxCell id="w1ERKTR07PGkKcICvyhH-19" style="edgeStyle=orthogonalEdgeStyle;rounded=0;orthogonalLoop=1;jettySize=auto;html=1;entryX=0;entryY=0.5;entryDx=0;entryDy=0;entryPerimeter=0;" parent="1Dwrab8MyVGWYaHdFyip-20" source="1Dwrab8MyVGWYaHdFyip-38" target="w1ERKTR07PGkKcICvyhH-18" edge="1">
          <mxGeometry relative="1" as="geometry">
            <mxPoint x="610" y="130" as="sourcePoint" />
          </mxGeometry>
        </mxCell>
        <mxCell id="1Dwrab8MyVGWYaHdFyip-38" value="加载页面" style="whiteSpace=wrap;html=1;strokeWidth=1;rounded=0;fontSize=16;" parent="1Dwrab8MyVGWYaHdFyip-20" vertex="1">
          <mxGeometry x="460" y="100" width="120" height="60" as="geometry" />
        </mxCell>
        <mxCell id="w1ERKTR07PGkKcICvyhH-18" value="" style="verticalLabelPosition=bottom;verticalAlign=top;html=1;shape=mxgraph.flowchart.parallel_mode;pointerEvents=1" parent="1Dwrab8MyVGWYaHdFyip-20" vertex="1">
          <mxGeometry x="640" y="110" width="95" height="40" as="geometry" />
        </mxCell>
        <mxCell id="1Dwrab8MyVGWYaHdFyip-4" value="sentry" style="swimlane;startSize=30;horizontal=0;html=1;" parent="1Dwrab8MyVGWYaHdFyip-1" vertex="1">
          <mxGeometry x="40" y="830" width="1090" height="200" as="geometry" />
        </mxCell>
        <mxCell id="1Dwrab8MyVGWYaHdFyip-41" value="存 90 天数据" style="edgeStyle=orthogonalEdgeStyle;rounded=0;orthogonalLoop=1;jettySize=auto;html=1;fontSize=16;" parent="1Dwrab8MyVGWYaHdFyip-4" source="1Dwrab8MyVGWYaHdFyip-27" target="1Dwrab8MyVGWYaHdFyip-40" edge="1">
          <mxGeometry relative="1" as="geometry" />
        </mxCell>
        <mxCell id="1Dwrab8MyVGWYaHdFyip-27" value="将数据上报到 Sentry" style="whiteSpace=wrap;html=1;rounded=0;fontSize=16;" parent="1Dwrab8MyVGWYaHdFyip-4" vertex="1">
          <mxGeometry x="80" y="80" width="120" height="60" as="geometry" />
        </mxCell>
        <mxCell id="1Dwrab8MyVGWYaHdFyip-37" style="edgeStyle=orthogonalEdgeStyle;rounded=0;orthogonalLoop=1;jettySize=auto;html=1;fontSize=16;" parent="1Dwrab8MyVGWYaHdFyip-4" source="1Dwrab8MyVGWYaHdFyip-34" target="1Dwrab8MyVGWYaHdFyip-27" edge="1">
          <mxGeometry relative="1" as="geometry" />
        </mxCell>
        <mxCell id="1Dwrab8MyVGWYaHdFyip-42" value="静态资源加载和接口加载数据" style="edgeLabel;html=1;align=center;verticalAlign=middle;resizable=0;points=[];fontSize=16;" parent="1Dwrab8MyVGWYaHdFyip-37" vertex="1" connectable="0">
          <mxGeometry x="-0.4238" relative="1" as="geometry">
            <mxPoint as="offset" />
          </mxGeometry>
        </mxCell>
        <mxCell id="1Dwrab8MyVGWYaHdFyip-34" value="" style="ellipse;whiteSpace=wrap;html=1;aspect=fixed;fontSize=16;" parent="1Dwrab8MyVGWYaHdFyip-4" vertex="1">
          <mxGeometry x="672.5" y="20" width="30" height="30" as="geometry" />
        </mxCell>
        <mxCell id="1Dwrab8MyVGWYaHdFyip-40" value="Sentry&amp;nbsp;&lt;br style=&quot;font-size: 16px;&quot;&gt;Datebase" style="shape=cylinder3;whiteSpace=wrap;html=1;boundedLbl=1;backgroundOutline=1;size=15;rounded=0;fontSize=16;" parent="1Dwrab8MyVGWYaHdFyip-4" vertex="1">
          <mxGeometry x="314" y="67.5" width="80" height="85" as="geometry" />
        </mxCell>
        <mxCell id="1Dwrab8MyVGWYaHdFyip-5" value="bcode" style="swimlane;startSize=30;horizontal=0;html=1;" parent="1Dwrab8MyVGWYaHdFyip-1" vertex="1">
          <mxGeometry x="40" y="1030" width="1090" height="270" as="geometry" />
        </mxCell>
        <mxCell id="1Dwrab8MyVGWYaHdFyip-58" value="项目ID&lt;br style=&quot;font-size: 16px;&quot;&gt;时间范围" style="edgeStyle=orthogonalEdgeStyle;rounded=0;orthogonalLoop=1;jettySize=auto;html=1;fontSize=16;" parent="1Dwrab8MyVGWYaHdFyip-5" source="1Dwrab8MyVGWYaHdFyip-55" target="1Dwrab8MyVGWYaHdFyip-57" edge="1">
          <mxGeometry relative="1" as="geometry" />
        </mxCell>
        <mxCell id="1Dwrab8MyVGWYaHdFyip-55" value="" style="ellipse;whiteSpace=wrap;html=1;aspect=fixed;fontSize=16;" parent="1Dwrab8MyVGWYaHdFyip-5" vertex="1">
          <mxGeometry x="820" y="10" width="30" height="30" as="geometry" />
        </mxCell>
        <mxCell id="1Dwrab8MyVGWYaHdFyip-61" value="" style="edgeStyle=orthogonalEdgeStyle;rounded=0;orthogonalLoop=1;jettySize=auto;html=1;" parent="1Dwrab8MyVGWYaHdFyip-5" source="1Dwrab8MyVGWYaHdFyip-57" target="1Dwrab8MyVGWYaHdFyip-60" edge="1">
          <mxGeometry relative="1" as="geometry" />
        </mxCell>
        <mxCell id="1Dwrab8MyVGWYaHdFyip-57" value="请求Sentry数据" style="shape=process;whiteSpace=wrap;html=1;backgroundOutline=1;fontSize=16;" parent="1Dwrab8MyVGWYaHdFyip-5" vertex="1">
          <mxGeometry x="90" y="80" width="120" height="60" as="geometry" />
        </mxCell>
        <mxCell id="hXkk2UV_JMcvx4nBUd6Y-2" value="" style="edgeStyle=orthogonalEdgeStyle;rounded=0;orthogonalLoop=1;jettySize=auto;html=1;" parent="1Dwrab8MyVGWYaHdFyip-5" source="1Dwrab8MyVGWYaHdFyip-60" target="hXkk2UV_JMcvx4nBUd6Y-1" edge="1">
          <mxGeometry relative="1" as="geometry" />
        </mxCell>
        <mxCell id="1Dwrab8MyVGWYaHdFyip-60" value="数据聚合" style="whiteSpace=wrap;html=1;fontSize=16;" parent="1Dwrab8MyVGWYaHdFyip-5" vertex="1">
          <mxGeometry x="290" y="80" width="120" height="60" as="geometry" />
        </mxCell>
        <mxCell id="hXkk2UV_JMcvx4nBUd6Y-4" style="edgeStyle=orthogonalEdgeStyle;rounded=0;orthogonalLoop=1;jettySize=auto;html=1;entryX=0;entryY=0.5;entryDx=0;entryDy=0;entryPerimeter=0;endArrow=none;endFill=0;" parent="1Dwrab8MyVGWYaHdFyip-5" source="hXkk2UV_JMcvx4nBUd6Y-1" target="hXkk2UV_JMcvx4nBUd6Y-3" edge="1">
          <mxGeometry relative="1" as="geometry" />
        </mxCell>
        <mxCell id="hXkk2UV_JMcvx4nBUd6Y-6" style="edgeStyle=orthogonalEdgeStyle;rounded=0;orthogonalLoop=1;jettySize=auto;html=1;" parent="1Dwrab8MyVGWYaHdFyip-5" source="hXkk2UV_JMcvx4nBUd6Y-1" target="hXkk2UV_JMcvx4nBUd6Y-5" edge="1">
          <mxGeometry relative="1" as="geometry" />
        </mxCell>
        <mxCell id="hXkk2UV_JMcvx4nBUd6Y-1" value="展示" style="whiteSpace=wrap;html=1;fontSize=16;" parent="1Dwrab8MyVGWYaHdFyip-5" vertex="1">
          <mxGeometry x="490" y="80" width="120" height="60" as="geometry" />
        </mxCell>
        <mxCell id="hXkk2UV_JMcvx4nBUd6Y-3" value="页面白屏时间 FCP&lt;br style=&quot;font-size: 16px;&quot;&gt;最慢页面排行&lt;br style=&quot;font-size: 16px;&quot;&gt;接口响应时长&lt;br style=&quot;font-size: 16px;&quot;&gt;最慢接口排行&lt;br style=&quot;font-size: 16px;&quot;&gt;页面最大内容加载完成时间 LCP" style="strokeWidth=2;html=1;shape=mxgraph.flowchart.annotation_1;align=left;pointerEvents=1;spacingLeft=8;fontSize=16;" parent="1Dwrab8MyVGWYaHdFyip-5" vertex="1">
          <mxGeometry x="717" y="48.5" width="30" height="123" as="geometry" />
        </mxCell>
        <mxCell id="hXkk2UV_JMcvx4nBUd6Y-5" value="结束" style="ellipse;whiteSpace=wrap;html=1;fontSize=16;" parent="1Dwrab8MyVGWYaHdFyip-5" vertex="1">
          <mxGeometry x="490" y="190" width="120" height="60" as="geometry" />
        </mxCell>
        <mxCell id="w1ERKTR07PGkKcICvyhH-8" style="edgeStyle=orthogonalEdgeStyle;rounded=0;orthogonalLoop=1;jettySize=auto;html=1;exitX=0.5;exitY=1;exitDx=0;exitDy=0;" parent="1Dwrab8MyVGWYaHdFyip-1" source="w1ERKTR07PGkKcICvyhH-6" target="w1ERKTR07PGkKcICvyhH-14" edge="1">
          <mxGeometry relative="1" as="geometry" />
        </mxCell>
      </root>
    </mxGraphModel>
  </diagram>
  <diagram id="Hl9EsFuRUGKLcGcnx5E_" name="执行流程">
    <mxGraphModel dx="2257" dy="664" grid="1" gridSize="10" guides="1" tooltips="1" connect="1" arrows="1" fold="1" page="1" pageScale="1" pageWidth="827" pageHeight="1169" math="0" shadow="0">
      <root>
        <mxCell id="0" />
        <mxCell id="1" parent="0" />
        <mxCell id="qNZWUjENPOvp_KBGMKIB-1" value="流程" style="swimlane;childLayout=stackLayout;resizeParent=1;resizeParentMax=0;horizontal=1;startSize=30;horizontalStack=0;html=1;fontSize=16;" parent="1" vertex="1">
          <mxGeometry x="-813" y="30" width="800" height="750" as="geometry" />
        </mxCell>
        <mxCell id="qNZWUjENPOvp_KBGMKIB-2" value="测试" style="swimlane;startSize=30;horizontal=0;html=1;fontSize=16;" parent="qNZWUjENPOvp_KBGMKIB-1" vertex="1">
          <mxGeometry y="30" width="800" height="260" as="geometry" />
        </mxCell>
        <mxCell id="bBzh0YojnA6C_baNKH0q-2" value="测试" style="sketch=0;outlineConnect=0;fontColor=#232F3E;gradientColor=none;fillColor=#232F3D;strokeColor=none;dashed=0;verticalLabelPosition=bottom;verticalAlign=top;align=center;html=1;fontSize=16;fontStyle=0;aspect=fixed;pointerEvents=1;shape=mxgraph.aws4.user;fontFamily=微软雅黑;" parent="qNZWUjENPOvp_KBGMKIB-2" vertex="1">
          <mxGeometry x="60" y="35" width="60" height="60" as="geometry" />
        </mxCell>
        <mxCell id="bBzh0YojnA6C_baNKH0q-3" value="性能测试工具" style="rounded=0;whiteSpace=wrap;html=1;fontSize=16;fontFamily=微软雅黑;" parent="qNZWUjENPOvp_KBGMKIB-2" vertex="1">
          <mxGeometry x="200" y="35" width="120" height="60" as="geometry" />
        </mxCell>
        <mxCell id="bBzh0YojnA6C_baNKH0q-4" value="触发" style="edgeStyle=orthogonalEdgeStyle;rounded=0;orthogonalLoop=1;jettySize=auto;html=1;fontSize=16;fontFamily=微软雅黑;" parent="qNZWUjENPOvp_KBGMKIB-2" source="bBzh0YojnA6C_baNKH0q-2" target="bBzh0YojnA6C_baNKH0q-3" edge="1">
          <mxGeometry relative="1" as="geometry" />
        </mxCell>
        <mxCell id="bBzh0YojnA6C_baNKH0q-8" value="指标合格" style="rhombus;whiteSpace=wrap;html=1;rounded=0;fontSize=16;fontFamily=微软雅黑;" parent="qNZWUjENPOvp_KBGMKIB-2" vertex="1">
          <mxGeometry x="430" y="25" width="80" height="80" as="geometry" />
        </mxCell>
        <mxCell id="bBzh0YojnA6C_baNKH0q-7" value="输出结果" style="edgeStyle=orthogonalEdgeStyle;rounded=0;orthogonalLoop=1;jettySize=auto;html=1;fontSize=16;fontFamily=微软雅黑;" parent="qNZWUjENPOvp_KBGMKIB-2" source="bBzh0YojnA6C_baNKH0q-3" target="bBzh0YojnA6C_baNKH0q-8" edge="1">
          <mxGeometry relative="1" as="geometry">
            <mxPoint x="220" y="65" as="targetPoint" />
          </mxGeometry>
        </mxCell>
        <mxCell id="bBzh0YojnA6C_baNKH0q-10" value="结束" style="ellipse;whiteSpace=wrap;html=1;fontSize=16;fontFamily=微软雅黑;" parent="qNZWUjENPOvp_KBGMKIB-2" vertex="1">
          <mxGeometry x="600" y="35" width="100" height="60" as="geometry" />
        </mxCell>
        <mxCell id="bBzh0YojnA6C_baNKH0q-11" value="是" style="edgeStyle=orthogonalEdgeStyle;rounded=0;orthogonalLoop=1;jettySize=auto;html=1;fontSize=16;fontFamily=微软雅黑;" parent="qNZWUjENPOvp_KBGMKIB-2" source="bBzh0YojnA6C_baNKH0q-8" target="bBzh0YojnA6C_baNKH0q-10" edge="1">
          <mxGeometry relative="1" as="geometry" />
        </mxCell>
        <mxCell id="bBzh0YojnA6C_baNKH0q-12" value="提 Bug" style="whiteSpace=wrap;html=1;rounded=0;fontSize=16;fontFamily=微软雅黑;" parent="qNZWUjENPOvp_KBGMKIB-2" vertex="1">
          <mxGeometry x="410" y="175" width="120" height="60" as="geometry" />
        </mxCell>
        <mxCell id="bBzh0YojnA6C_baNKH0q-13" value="否" style="edgeStyle=orthogonalEdgeStyle;rounded=0;orthogonalLoop=1;jettySize=auto;html=1;fontSize=16;fontFamily=微软雅黑;" parent="qNZWUjENPOvp_KBGMKIB-2" source="bBzh0YojnA6C_baNKH0q-8" target="bBzh0YojnA6C_baNKH0q-12" edge="1">
          <mxGeometry relative="1" as="geometry" />
        </mxCell>
        <mxCell id="qNZWUjENPOvp_KBGMKIB-3" value="开发" style="swimlane;startSize=30;horizontal=0;html=1;fontSize=16;" parent="qNZWUjENPOvp_KBGMKIB-1" vertex="1">
          <mxGeometry y="290" width="800" height="460" as="geometry" />
        </mxCell>
        <mxCell id="bBzh0YojnA6C_baNKH0q-14" value="开发" style="shape=umlActor;verticalLabelPosition=bottom;verticalAlign=top;html=1;outlineConnect=0;fontSize=16;fontFamily=微软雅黑;" parent="qNZWUjENPOvp_KBGMKIB-3" vertex="1">
          <mxGeometry x="75.5" y="190" width="30" height="60" as="geometry" />
        </mxCell>
        <mxCell id="bBzh0YojnA6C_baNKH0q-16" value="能否优化" style="rhombus;whiteSpace=wrap;html=1;verticalAlign=middle;fontSize=16;fontFamily=微软雅黑;" parent="qNZWUjENPOvp_KBGMKIB-3" vertex="1">
          <mxGeometry x="205.5" y="180" width="80" height="80" as="geometry" />
        </mxCell>
        <mxCell id="bBzh0YojnA6C_baNKH0q-17" value="" style="edgeStyle=orthogonalEdgeStyle;rounded=0;orthogonalLoop=1;jettySize=auto;html=1;fontSize=16;fontFamily=微软雅黑;" parent="qNZWUjENPOvp_KBGMKIB-3" source="bBzh0YojnA6C_baNKH0q-14" target="bBzh0YojnA6C_baNKH0q-16" edge="1">
          <mxGeometry relative="1" as="geometry" />
        </mxCell>
        <mxCell id="qNZWUjENPOvp_KBGMKIB-6" value="" style="edgeStyle=orthogonalEdgeStyle;rounded=0;orthogonalLoop=1;jettySize=auto;html=1;fontSize=16;" parent="qNZWUjENPOvp_KBGMKIB-3" source="bBzh0YojnA6C_baNKH0q-18" target="qNZWUjENPOvp_KBGMKIB-5" edge="1">
          <mxGeometry relative="1" as="geometry" />
        </mxCell>
        <mxCell id="bBzh0YojnA6C_baNKH0q-18" value="优化性能" style="whiteSpace=wrap;html=1;fontSize=16;fontFamily=微软雅黑;" parent="qNZWUjENPOvp_KBGMKIB-3" vertex="1">
          <mxGeometry x="395.5" y="190" width="120" height="60" as="geometry" />
        </mxCell>
        <mxCell id="bBzh0YojnA6C_baNKH0q-19" value="能" style="edgeStyle=orthogonalEdgeStyle;rounded=0;orthogonalLoop=1;jettySize=auto;html=1;fontSize=16;fontFamily=微软雅黑;" parent="qNZWUjENPOvp_KBGMKIB-3" source="bBzh0YojnA6C_baNKH0q-16" target="bBzh0YojnA6C_baNKH0q-18" edge="1">
          <mxGeometry relative="1" as="geometry" />
        </mxCell>
        <mxCell id="bBzh0YojnA6C_baNKH0q-21" value="和 TL 确定&lt;br style=&quot;font-size: 16px;&quot;&gt;优化时间" style="whiteSpace=wrap;html=1;fontSize=16;fontFamily=微软雅黑;" parent="qNZWUjENPOvp_KBGMKIB-3" vertex="1">
          <mxGeometry x="185.5" y="350" width="120" height="60" as="geometry" />
        </mxCell>
        <mxCell id="bBzh0YojnA6C_baNKH0q-22" value="否" style="edgeStyle=orthogonalEdgeStyle;rounded=0;orthogonalLoop=1;jettySize=auto;html=1;fontSize=16;fontFamily=微软雅黑;" parent="qNZWUjENPOvp_KBGMKIB-3" source="bBzh0YojnA6C_baNKH0q-16" target="bBzh0YojnA6C_baNKH0q-21" edge="1">
          <mxGeometry relative="1" as="geometry" />
        </mxCell>
        <mxCell id="bBzh0YojnA6C_baNKH0q-23" value="将 Bug 移到&lt;br style=&quot;font-size: 16px;&quot;&gt;下个迭代" style="whiteSpace=wrap;html=1;fontSize=16;fontFamily=微软雅黑;" parent="qNZWUjENPOvp_KBGMKIB-3" vertex="1">
          <mxGeometry x="395.5" y="350" width="120" height="60" as="geometry" />
        </mxCell>
        <mxCell id="bBzh0YojnA6C_baNKH0q-24" value="" style="edgeStyle=orthogonalEdgeStyle;rounded=0;orthogonalLoop=1;jettySize=auto;html=1;fontSize=16;fontFamily=微软雅黑;" parent="qNZWUjENPOvp_KBGMKIB-3" source="bBzh0YojnA6C_baNKH0q-21" target="bBzh0YojnA6C_baNKH0q-23" edge="1">
          <mxGeometry relative="1" as="geometry" />
        </mxCell>
        <mxCell id="bBzh0YojnA6C_baNKH0q-25" value="结束" style="ellipse;whiteSpace=wrap;html=1;fontSize=16;fontFamily=微软雅黑;" parent="qNZWUjENPOvp_KBGMKIB-3" vertex="1">
          <mxGeometry x="624.5" y="350" width="100" height="60" as="geometry" />
        </mxCell>
        <mxCell id="bBzh0YojnA6C_baNKH0q-26" style="edgeStyle=orthogonalEdgeStyle;rounded=0;orthogonalLoop=1;jettySize=auto;html=1;fontSize=16;fontFamily=微软雅黑;" parent="qNZWUjENPOvp_KBGMKIB-3" source="bBzh0YojnA6C_baNKH0q-23" target="bBzh0YojnA6C_baNKH0q-25" edge="1">
          <mxGeometry relative="1" as="geometry" />
        </mxCell>
        <mxCell id="qNZWUjENPOvp_KBGMKIB-12" style="edgeStyle=orthogonalEdgeStyle;rounded=0;orthogonalLoop=1;jettySize=auto;html=1;" parent="qNZWUjENPOvp_KBGMKIB-3" source="qNZWUjENPOvp_KBGMKIB-5" target="bBzh0YojnA6C_baNKH0q-25" edge="1">
          <mxGeometry relative="1" as="geometry" />
        </mxCell>
        <mxCell id="qNZWUjENPOvp_KBGMKIB-5" value="fix bug" style="whiteSpace=wrap;html=1;fontSize=16;fontFamily=微软雅黑;" parent="qNZWUjENPOvp_KBGMKIB-3" vertex="1">
          <mxGeometry x="614.5" y="190" width="120" height="60" as="geometry" />
        </mxCell>
        <mxCell id="qNZWUjENPOvp_KBGMKIB-8" value="" style="shape=umlActor;verticalLabelPosition=bottom;verticalAlign=top;html=1;outlineConnect=0;fontSize=16;" parent="qNZWUjENPOvp_KBGMKIB-3" vertex="1">
          <mxGeometry x="135.5" y="30" width="30" height="60" as="geometry" />
        </mxCell>
        <mxCell id="qNZWUjENPOvp_KBGMKIB-11" style="edgeStyle=elbowEdgeStyle;rounded=0;orthogonalLoop=1;jettySize=auto;html=1;elbow=vertical;fontSize=16;" parent="qNZWUjENPOvp_KBGMKIB-3" source="qNZWUjENPOvp_KBGMKIB-9" target="bBzh0YojnA6C_baNKH0q-14" edge="1">
          <mxGeometry relative="1" as="geometry" />
        </mxCell>
        <mxCell id="qNZWUjENPOvp_KBGMKIB-9" value="提缺陷预防：&lt;br style=&quot;font-size: 16px;&quot;&gt;前端性能达标" style="whiteSpace=wrap;html=1;verticalAlign=middle;fontSize=16;" parent="qNZWUjENPOvp_KBGMKIB-3" vertex="1">
          <mxGeometry x="275.5" y="30" width="120" height="60" as="geometry" />
        </mxCell>
        <mxCell id="qNZWUjENPOvp_KBGMKIB-10" value="版本开始" style="edgeStyle=orthogonalEdgeStyle;rounded=0;orthogonalLoop=1;jettySize=auto;html=1;fontSize=16;" parent="qNZWUjENPOvp_KBGMKIB-3" source="qNZWUjENPOvp_KBGMKIB-8" target="qNZWUjENPOvp_KBGMKIB-9" edge="1">
          <mxGeometry relative="1" as="geometry" />
        </mxCell>
        <mxCell id="qNZWUjENPOvp_KBGMKIB-7" style="edgeStyle=orthogonalEdgeStyle;rounded=0;orthogonalLoop=1;jettySize=auto;html=1;fontSize=16;" parent="qNZWUjENPOvp_KBGMKIB-1" source="bBzh0YojnA6C_baNKH0q-12" target="bBzh0YojnA6C_baNKH0q-14" edge="1">
          <mxGeometry relative="1" as="geometry" />
        </mxCell>
      </root>
    </mxGraphModel>
  </diagram>
  <diagram id="1Rn__D_yXLIWgLHMHOoW" name="运营">
    <mxGraphModel dx="1430" dy="664" grid="1" gridSize="10" guides="1" tooltips="1" connect="1" arrows="1" fold="1" page="1" pageScale="1" pageWidth="827" pageHeight="1169" math="0" shadow="0">
      <root>
        <mxCell id="0" />
        <mxCell id="1" parent="0" />
        <mxCell id="fWT5Kl9AfBWyUBjycJX3-3" value="" style="edgeStyle=orthogonalEdgeStyle;rounded=0;orthogonalLoop=1;jettySize=auto;html=1;fontSize=16;" parent="1" source="fWT5Kl9AfBWyUBjycJX3-1" target="fWT5Kl9AfBWyUBjycJX3-2" edge="1">
          <mxGeometry relative="1" as="geometry" />
        </mxCell>
        <mxCell id="fWT5Kl9AfBWyUBjycJX3-1" value="" style="shape=umlActor;verticalLabelPosition=bottom;verticalAlign=top;html=1;outlineConnect=0;fontSize=16;" parent="1" vertex="1">
          <mxGeometry x="150" y="140" width="30" height="60" as="geometry" />
        </mxCell>
        <mxCell id="fWT5Kl9AfBWyUBjycJX3-5" value="" style="edgeStyle=orthogonalEdgeStyle;rounded=0;orthogonalLoop=1;jettySize=auto;html=1;fontSize=16;" parent="1" source="fWT5Kl9AfBWyUBjycJX3-2" target="fWT5Kl9AfBWyUBjycJX3-4" edge="1">
          <mxGeometry relative="1" as="geometry" />
        </mxCell>
        <mxCell id="fWT5Kl9AfBWyUBjycJX3-2" value="性能验收通过" style="whiteSpace=wrap;html=1;verticalAlign=middle;fontSize=16;" parent="1" vertex="1">
          <mxGeometry x="290" y="140" width="120" height="60" as="geometry" />
        </mxCell>
        <mxCell id="usOuAy0ePwOZlbxczAe4-2" value="收集" style="edgeStyle=orthogonalEdgeStyle;rounded=0;orthogonalLoop=1;jettySize=auto;html=1;fontSize=16;" parent="1" source="fWT5Kl9AfBWyUBjycJX3-6" target="usOuAy0ePwOZlbxczAe4-1" edge="1">
          <mxGeometry relative="1" as="geometry" />
        </mxCell>
        <mxCell id="fWT5Kl9AfBWyUBjycJX3-4" value="上线" style="whiteSpace=wrap;html=1;fontSize=16;" parent="1" vertex="1">
          <mxGeometry x="490" y="140" width="120" height="60" as="geometry" />
        </mxCell>
        <mxCell id="usOuAy0ePwOZlbxczAe4-5" value="每周分析&lt;br style=&quot;font-size: 16px;&quot;&gt;汇总" style="edgeStyle=orthogonalEdgeStyle;rounded=0;orthogonalLoop=1;jettySize=auto;html=1;fontSize=16;" parent="1" source="usOuAy0ePwOZlbxczAe4-1" target="usOuAy0ePwOZlbxczAe4-6" edge="1">
          <mxGeometry x="-0.0032" relative="1" as="geometry">
            <mxPoint x="550" y="530" as="targetPoint" />
            <mxPoint as="offset" />
          </mxGeometry>
        </mxCell>
        <mxCell id="usOuAy0ePwOZlbxczAe4-1" value="用户真实访问&lt;br style=&quot;font-size: 16px;&quot;&gt;性能数据" style="whiteSpace=wrap;html=1;fontSize=16;" parent="1" vertex="1">
          <mxGeometry x="490" y="390" width="120" height="60" as="geometry" />
        </mxCell>
        <mxCell id="usOuAy0ePwOZlbxczAe4-3" value="" style="edgeStyle=orthogonalEdgeStyle;rounded=0;orthogonalLoop=1;jettySize=auto;html=1;endArrow=none;endFill=0;fontSize=16;" parent="1" source="fWT5Kl9AfBWyUBjycJX3-4" target="fWT5Kl9AfBWyUBjycJX3-6" edge="1">
          <mxGeometry relative="1" as="geometry">
            <mxPoint x="550" y="200" as="sourcePoint" />
            <mxPoint x="550" y="360" as="targetPoint" />
          </mxGeometry>
        </mxCell>
        <mxCell id="fWT5Kl9AfBWyUBjycJX3-6" value="线上 Sentry" style="ellipse;shape=cloud;whiteSpace=wrap;html=1;fontSize=16;" parent="1" vertex="1">
          <mxGeometry x="490" y="240" width="120" height="80" as="geometry" />
        </mxCell>
        <mxCell id="usOuAy0ePwOZlbxczAe4-6" value="性能运营报告" style="verticalLabelPosition=bottom;sketch=0;aspect=fixed;html=1;verticalAlign=top;strokeColor=none;align=center;outlineConnect=0;shape=mxgraph.citrix.reporting;fontSize=16;" parent="1" vertex="1">
          <mxGeometry x="300" y="374.7" width="80.75" height="90.6" as="geometry" />
        </mxCell>
      </root>
    </mxGraphModel>
  </diagram>
  <diagram id="qUtpHCZxOROjelI_xHJw" name="数据收集">
    <mxGraphModel dx="1428" dy="664" grid="1" gridSize="10" guides="1" tooltips="1" connect="1" arrows="1" fold="1" page="1" pageScale="1" pageWidth="827" pageHeight="1169" math="0" shadow="0">
      <root>
        <mxCell id="0" />
        <mxCell id="1" parent="0" />
        <mxCell id="XCAE-1u9VFS2wWbyKENg-6" value="&lt;h1&gt;&lt;font color=&quot;#fdaa1d&quot;&gt;Span&lt;/font&gt;&lt;/h1&gt;&lt;p style=&quot;font-size: 17px;&quot;&gt;startTimestamp ---- endTimestamp&lt;br style=&quot;border-color: var(--border-color); padding: 0px; margin: 0px;&quot;&gt;&lt;span style=&quot;&quot;&gt;=&amp;gt; duration&lt;/span&gt;&lt;br&gt;&lt;/p&gt;" style="text;html=1;strokeColor=none;fillColor=none;spacing=5;spacingTop=-20;whiteSpace=wrap;overflow=hidden;rounded=0;fontFamily=微软雅黑;" vertex="1" parent="1">
          <mxGeometry x="150" y="40" width="320" height="120" as="geometry" />
        </mxCell>
        <mxCell id="XCAE-1u9VFS2wWbyKENg-8" value="" style="shape=flexArrow;endArrow=classic;html=1;rounded=0;" edge="1" parent="1">
          <mxGeometry width="50" height="50" relative="1" as="geometry">
            <mxPoint x="490" y="170" as="sourcePoint" />
            <mxPoint x="550" y="170" as="targetPoint" />
          </mxGeometry>
        </mxCell>
        <mxCell id="XCAE-1u9VFS2wWbyKENg-9" value="&lt;h1&gt;&lt;div class=&quot;lake-content&quot;&gt;&lt;strong&gt;Transaction&lt;/strong&gt;&lt;/div&gt;&lt;/h1&gt;&lt;p style=&quot;font-size: 17px;&quot;&gt;&lt;/p&gt;&lt;div class=&quot;lake-content&quot;&gt;&lt;font color=&quot;#1a1a1a&quot; style=&quot;font-size: 17px;&quot;&gt;一个有很多 Span 的记录&lt;/font&gt;&lt;/div&gt;" style="text;html=1;strokeColor=none;fillColor=none;spacing=5;spacingTop=-20;whiteSpace=wrap;overflow=hidden;rounded=0;fontFamily=微软雅黑;fontColor=#6BAB0A;" vertex="1" parent="1">
          <mxGeometry x="150" y="160" width="320" height="100" as="geometry" />
        </mxCell>
        <mxCell id="XCAE-1u9VFS2wWbyKENg-10" value="&lt;h1&gt;&lt;div class=&quot;lake-content&quot;&gt;&lt;font color=&quot;#d619be&quot;&gt;Trace&lt;/font&gt;&lt;/div&gt;&lt;/h1&gt;&lt;p style=&quot;font-size: 17px;&quot;&gt;&lt;/p&gt;&lt;div class=&quot;lake-content&quot;&gt;&lt;div style=&quot;font-size: 17px;&quot; class=&quot;lake-content&quot;&gt;&lt;p style=&quot;margin: 0; padding: 0; min-height: 24px&quot; class=&quot;ne-p&quot; id=&quot;u03b776ea&quot;&gt;性能问题不止前端，还有后端、数据库，也就是需要后端 Transaction 和数据库 Transaction 也监控起来，并且要把这些 Transaction 联系在一起，这个过程 Sentry 称之为 &lt;strong&gt;Trace（跟踪）&lt;/strong&gt;&lt;span class=&quot;ne-text&quot;&gt;。&lt;/span&gt;&lt;/p&gt;&lt;/div&gt;&lt;/div&gt;" style="text;html=1;strokeColor=none;fillColor=none;spacing=5;spacingTop=-20;whiteSpace=wrap;overflow=hidden;rounded=0;fontFamily=微软雅黑;" vertex="1" parent="1">
          <mxGeometry x="150" y="260" width="320" height="160" as="geometry" />
        </mxCell>
        <mxCell id="XCAE-1u9VFS2wWbyKENg-14" value="&lt;span style=&quot;color: rgb(0, 0, 0); font-family: Helvetica; font-size: 20px; font-style: normal; font-variant-ligatures: normal; font-variant-caps: normal; font-weight: 400; letter-spacing: normal; orphans: 2; text-align: left; text-indent: 0px; text-transform: none; widows: 2; word-spacing: 0px; -webkit-text-stroke-width: 0px; background-color: rgb(251, 251, 251); text-decoration-thickness: initial; text-decoration-style: initial; text-decoration-color: initial; float: none; display: inline !important;&quot;&gt;|--------------root span-----------------|&amp;nbsp; |---backend span---| |---db span---|&lt;/span&gt;&lt;br style=&quot;border-color: var(--border-color); padding: 0px; margin: 0px; color: rgb(0, 0, 0); font-family: Helvetica; font-size: 20px; font-style: normal; font-variant-ligatures: normal; font-variant-caps: normal; font-weight: 400; letter-spacing: normal; orphans: 2; text-align: left; text-indent: 0px; text-transform: none; widows: 2; word-spacing: 0px; -webkit-text-stroke-width: 0px; background-color: rgb(251, 251, 251); text-decoration-thickness: initial; text-decoration-style: initial; text-decoration-color: initial;&quot;&gt;" style="text;whiteSpace=wrap;html=1;fontSize=20;" vertex="1" parent="1">
          <mxGeometry x="586" y="40" width="650" height="40" as="geometry" />
        </mxCell>
        <mxCell id="XCAE-1u9VFS2wWbyKENg-15" value="&lt;span style=&quot;font-family: Helvetica; font-size: 20px; font-style: normal; font-variant-ligatures: normal; font-variant-caps: normal; font-weight: 400; letter-spacing: normal; orphans: 2; text-align: left; text-indent: 0px; text-transform: none; widows: 2; word-spacing: 0px; -webkit-text-stroke-width: 0px; background-color: rgb(251, 251, 251); text-decoration-thickness: initial; text-decoration-style: initial; text-decoration-color: initial; float: none; display: inline !important;&quot;&gt;|-js span-|&lt;/span&gt;&lt;br style=&quot;border-color: var(--border-color); padding: 0px; margin: 0px; font-family: Helvetica; font-size: 20px; font-style: normal; font-variant-ligatures: normal; font-variant-caps: normal; font-weight: 400; letter-spacing: normal; orphans: 2; text-align: left; text-indent: 0px; text-transform: none; widows: 2; word-spacing: 0px; -webkit-text-stroke-width: 0px; background-color: rgb(251, 251, 251); text-decoration-thickness: initial; text-decoration-style: initial; text-decoration-color: initial;&quot;&gt;&lt;span style=&quot;font-family: Helvetica; font-size: 20px; font-style: normal; font-variant-ligatures: normal; font-variant-caps: normal; font-weight: 400; letter-spacing: normal; orphans: 2; text-align: left; text-indent: 0px; text-transform: none; widows: 2; word-spacing: 0px; -webkit-text-stroke-width: 0px; background-color: rgb(251, 251, 251); text-decoration-thickness: initial; text-decoration-style: initial; text-decoration-color: initial; float: none; display: inline !important;&quot;&gt;&amp;nbsp; &amp;nbsp; &amp;nbsp; |-css span---|&lt;/span&gt;&lt;br style=&quot;border-color: var(--border-color); padding: 0px; margin: 0px; font-family: Helvetica; font-size: 20px; font-style: normal; font-variant-ligatures: normal; font-variant-caps: normal; font-weight: 400; letter-spacing: normal; orphans: 2; text-align: left; text-indent: 0px; text-transform: none; widows: 2; word-spacing: 0px; -webkit-text-stroke-width: 0px; background-color: rgb(251, 251, 251); text-decoration-thickness: initial; text-decoration-style: initial; text-decoration-color: initial;&quot;&gt;&lt;span style=&quot;font-family: Helvetica; font-size: 20px; font-style: normal; font-variant-ligatures: normal; font-variant-caps: normal; font-weight: 400; letter-spacing: normal; orphans: 2; text-align: left; text-indent: 0px; text-transform: none; widows: 2; word-spacing: 0px; -webkit-text-stroke-width: 0px; background-color: rgb(251, 251, 251); text-decoration-thickness: initial; text-decoration-style: initial; text-decoration-color: initial; float: none; display: inline !important;&quot;&gt;&amp;nbsp; &amp;nbsp; &amp;nbsp; &amp;nbsp; &amp;nbsp; &amp;nbsp; &amp;nbsp; &amp;nbsp; &amp;nbsp; |-long task-|&lt;/span&gt;&lt;br style=&quot;border-color: var(--border-color); padding: 0px; margin: 0px; font-family: Helvetica; font-size: 20px; font-style: normal; font-variant-ligatures: normal; font-variant-caps: normal; font-weight: 400; letter-spacing: normal; orphans: 2; text-align: left; text-indent: 0px; text-transform: none; widows: 2; word-spacing: 0px; -webkit-text-stroke-width: 0px; background-color: rgb(251, 251, 251); text-decoration-thickness: initial; text-decoration-style: initial; text-decoration-color: initial;&quot;&gt;&lt;span style=&quot;font-family: Helvetica; font-size: 20px; font-style: normal; font-variant-ligatures: normal; font-variant-caps: normal; font-weight: 400; letter-spacing: normal; orphans: 2; text-align: left; text-indent: 0px; text-transform: none; widows: 2; word-spacing: 0px; -webkit-text-stroke-width: 0px; background-color: rgb(251, 251, 251); text-decoration-thickness: initial; text-decoration-style: initial; text-decoration-color: initial; float: none; display: inline !important;&quot;&gt;&amp;nbsp; &amp;nbsp; &amp;nbsp; &amp;nbsp; &amp;nbsp; &amp;nbsp; &amp;nbsp; &amp;nbsp; &amp;nbsp; &amp;nbsp;|-do request span--|&lt;/span&gt;&lt;br style=&quot;border-color: var(--border-color); padding: 0px; margin: 0px; font-family: Helvetica; font-size: 20px; font-style: normal; font-variant-ligatures: normal; font-variant-caps: normal; font-weight: 400; letter-spacing: normal; orphans: 2; text-align: left; text-indent: 0px; text-transform: none; widows: 2; word-spacing: 0px; -webkit-text-stroke-width: 0px; background-color: rgb(251, 251, 251); text-decoration-thickness: initial; text-decoration-style: initial; text-decoration-color: initial;&quot;&gt;&lt;span style=&quot;font-family: Helvetica; font-size: 20px; font-style: normal; font-variant-ligatures: normal; font-variant-caps: normal; font-weight: 400; letter-spacing: normal; orphans: 2; text-align: left; text-indent: 0px; text-transform: none; widows: 2; word-spacing: 0px; -webkit-text-stroke-width: 0px; background-color: rgb(251, 251, 251); text-decoration-thickness: initial; text-decoration-style: initial; text-decoration-color: initial; float: none; display: inline !important;&quot;&gt;&amp;nbsp; &amp;nbsp; &amp;nbsp; &amp;nbsp; &amp;nbsp; &amp;nbsp; &amp;nbsp; &amp;nbsp; &amp;nbsp; &amp;nbsp; &amp;nbsp; |-request span-|&lt;/span&gt;&lt;br style=&quot;border-color: var(--border-color); padding: 0px; margin: 0px; font-family: Helvetica; font-size: 20px; font-style: normal; font-variant-ligatures: normal; font-variant-caps: normal; font-weight: 400; letter-spacing: normal; orphans: 2; text-align: left; text-indent: 0px; text-transform: none; widows: 2; word-spacing: 0px; -webkit-text-stroke-width: 0px; background-color: rgb(251, 251, 251); text-decoration-thickness: initial; text-decoration-style: initial; text-decoration-color: initial;&quot;&gt;&lt;span style=&quot;font-family: Helvetica; font-size: 20px; font-style: normal; font-variant-ligatures: normal; font-variant-caps: normal; font-weight: 400; letter-spacing: normal; orphans: 2; text-align: left; text-indent: 0px; text-transform: none; widows: 2; word-spacing: 0px; -webkit-text-stroke-width: 0px; background-color: rgb(251, 251, 251); text-decoration-thickness: initial; text-decoration-style: initial; text-decoration-color: initial; float: none; display: inline !important;&quot;&gt;&amp;nbsp; &amp;nbsp; &amp;nbsp; &amp;nbsp; &amp;nbsp; &amp;nbsp; &amp;nbsp; &amp;nbsp; &amp;nbsp; &amp;nbsp; &amp;nbsp; &amp;nbsp; &amp;nbsp; |-request span-|&lt;/span&gt;" style="text;whiteSpace=wrap;html=1;fontColor=#fdaa1d;fontSize=20;" vertex="1" parent="1">
          <mxGeometry x="586" y="80" width="420" height="160" as="geometry" />
        </mxCell>
        <mxCell id="XCAE-1u9VFS2wWbyKENg-16" value="&lt;span style=&quot;font-family: Helvetica; font-size: 20px; font-style: normal; font-variant-ligatures: normal; font-variant-caps: normal; font-weight: 400; letter-spacing: normal; orphans: 2; text-align: left; text-indent: 0px; text-transform: none; widows: 2; word-spacing: 0px; -webkit-text-stroke-width: 0px; background-color: rgb(251, 251, 251); text-decoration-thickness: initial; text-decoration-style: initial; text-decoration-color: initial; float: none; display: inline !important;&quot;&gt;|-------------------------------------------trace------------------------------------------|&lt;/span&gt;" style="text;whiteSpace=wrap;html=1;fontColor=#d619be;fontSize=20;" vertex="1" parent="1">
          <mxGeometry x="581" y="280" width="635" height="40" as="geometry" />
        </mxCell>
        <mxCell id="XCAE-1u9VFS2wWbyKENg-17" value="&lt;span style=&quot;font-family: Helvetica; font-size: 20px; font-style: normal; font-variant-ligatures: normal; font-variant-caps: normal; font-weight: 400; letter-spacing: normal; orphans: 2; text-align: left; text-indent: 0px; text-transform: none; widows: 2; word-spacing: 0px; -webkit-text-stroke-width: 0px; background-color: rgb(251, 251, 251); text-decoration-thickness: initial; text-decoration-style: initial; text-decoration-color: initial; float: none; display: inline !important;&quot;&gt;|--------------transaction---------------|&amp;nbsp; |---&amp;nbsp; transaction ----| |--transaction-|&lt;/span&gt;" style="text;whiteSpace=wrap;html=1;fontColor=#6BAB0A;fontSize=20;" vertex="1" parent="1">
          <mxGeometry x="581" y="240" width="660" height="40" as="geometry" />
        </mxCell>
        <mxCell id="XCAE-1u9VFS2wWbyKENg-19" value="" style="shape=image;verticalLabelPosition=bottom;labelBackgroundColor=default;verticalAlign=top;aspect=fixed;imageAspect=0;image=data:image/png,iVBORw0KGgoAAAANSUhEUgAABwgAAAQHCAIAAABnT6qZAAAMQWlDQ1BJQ0MgUHJvZmlsZQAASImVVwdYU8kWnluSkEAIEEBASuhNEKkBpITQAkgvgo2QBAglxkBQsSOLCq4FFRGwoasiih0QO2JnUex9saCirIsFu/ImBXTdV7433zd3/vvPmf+cOXfm3jsA0I5zxeIcVAOAXFG+JDYkgDE2OYVBegpQoAdogA4cuLw8MSs6OgLAMtj+vby7DhBZe8VBpvXP/v9aNPmCPB4ASDTEafw8Xi7E+wHAa3hiST4ARBlvPjVfLMOwAm0JDBDihTKcocA1MpymwLvlNvGxbIjbAFBR43IlGQCoX4I8o4CXATXU+yB2EvGFIgBoDIh9c3Mn8yFOhdgG2oghlukz037QyfibZtqQJpebMYQVc5EXlUBhnjiHO/3/TMf/Lrk50kEfVrCqZUpCY2Vzhnm7mT05XIbVIO4VpUVGQawF8QchX24PMUrJlIYmKOxRQ14eG+YM6ELsxOcGhkNsCHGwKCcyQsmnpQuDORDDFYJOE+Zz4iHWg3ihIC8oTmmzQTI5VukLbUyXsFlK/ixXIvcr83Vfmp3AUuq/zhRwlPqYemFmfBLEFIgtCoSJkRCrQ+yYlx0XrrQZXZjJjhy0kUhjZfFbQBwrEIUEKPSxgnRJcKzSvjQ3b3C+2IZMISdSiffmZ8aHKvKDtfG48vjhXLBLAhErYVBHkDc2YnAufEFgkGLu2DOBKCFOqfNBnB8QqxiLU8Q50Up73EyQEyLjzSB2zSuIU47FE/PhglTo4+ni/Oh4RZx4YRY3LFoRD74MRAA2CAQMIIU1DUwGWUDY0dvUC+8UPcGACyQgAwiAg5IZHJEk7xHBaxwoBH9CJAB5Q+MC5L0CUAD5r0Os4uoA0uW9BfIR2eAJxLkgHOTAe6l8lGjIWyJ4DBnhP7xzYeXBeHNglfX/e36Q/c6wIBOhZKSDHhm0QUtiEDGQGEoMJtriBrgv7o1HwKs/rM44E/ccnMd3e8ITQifhIeEaoYtwa5KwSPJTlGNAF9QPVuYi7cdc4FZQ0w0PwH2gOlTGdXED4IC7Qj8s3A96doMsWxm3LCuMn7T/NoMfnobSjuxERsnDyP5km59Hqtupuw2pyHL9Y34UsaYN5Zs91POzf/YP2efDNvxnS2whtg87g53AzmGHsSbAwI5hzVg7dkSGh1bXY/nqGvQWK48nG+oI/+Fv8MnKMpnnVO/U4/RF0ZcvmCZ7RwP2ZPF0iTAjM5/Bgl8EAYMj4jmOYDg7ObsAIPu+KF5fb2Lk3w1Et/07N/8PAHyODQwMHPrOhR0DYI8H3P4Hv3M2TPjpUAXg7EGeVFKg4HDZhQDfEjS40/SBMTAHNnA+zsAdeAN/EATCQBSIB8lgIow+E65zCZgKZoJ5oASUgWVgFagC68EmsA3sBHtBEzgMToDT4AK4BK6BO3D1dIMXoA+8A58RBCEhVISO6CMmiCVijzgjTMQXCUIikFgkGUlFMhARIkVmIvORMqQcqUI2InXIHuQgcgI5h3Qit5AHSA/yGvmEYqgaqo0aoVboSJSJstBwNB6dgGagU9BCtBhdglaitegOtBE9gV5Ar6Fd6Au0HwOYKqaLmWIOGBNjY1FYCpaOSbDZWClWgdViDVgLfM5XsC6sF/uIE3E6zsAd4AoOxRNwHj4Fn40vxqvwbXgj3oZfwR/gffg3ApVgSLAneBE4hLGEDMJUQgmhgrCFcIBwCu6lbsI7IpGoS7QmesC9mEzMIs4gLiauJe4iHid2Eh8R+0kkkj7JnuRDiiJxSfmkEtIa0g7SMdJlUjfpg4qqiomKs0qwSoqKSKVIpUJlu8pRlcsqT1U+kzXIlmQvchSZT55OXkreTG4hXyR3kz9TNCnWFB9KPCWLMo9SSWmgnKLcpbxRVVU1U/VUjVEVqs5VrVTdrXpW9YHqRzUtNTs1ttp4NanaErWtasfVbqm9oVKpVlR/ago1n7qEWkc9Sb1P/aBOV3dU56jz1eeoV6s3ql9Wf0kj0yxpLNpEWiGtgraPdpHWq0HWsNJga3A1ZmtUaxzUuKHRr0nXHKUZpZmruVhzu+Y5zWdaJC0rrSAtvlax1iatk1qP6BjdnM6m8+jz6Zvpp+jd2kRta22OdpZ2mfZO7Q7tPh0tHVedRJ1pOtU6R3S6dDFdK12Obo7uUt29utd1Pw0zGsYaJhi2aFjDsMvD3usN1/PXE+iV6u3Su6b3SZ+hH6Sfrb9cv0n/ngFuYGcQYzDVYJ3BKYPe4drDvYfzhpcO3zv8tiFqaGcYazjDcJNhu2G/kbFRiJHYaI3RSaNeY11jf+Ms45XGR417TOgmviZCk5Umx0yeM3QYLEYOo5LRxugzNTQNNZWabjTtMP1sZm2WYFZktsvsnjnFnGmebr7SvNW8z8LEYozFTIt6i9uWZEumZablasszlu+trK2SrBZYNVk9s9az5lgXWtdb37Wh2vjZTLGptblqS7Rl2mbbrrW9ZIfaudll2lXbXbRH7d3thfZr7TtHEEZ4jhCNqB1xw0HNgeVQ4FDv8MBR1zHCscixyfHlSIuRKSOXjzwz8puTm1OO02anO6O0RoWNKhrVMuq1s50zz7na+aoL1SXYZY5Ls8srV3tXges615tudLcxbgvcWt2+unu4S9wb3Hs8LDxSPWo8bjC1mdHMxcyzngTPAM85noc9P3q5e+V77fX6y9vBO9t7u/ez0dajBaM3j37kY+bD9dno0+XL8E313eDb5Wfqx/Wr9Xvob+7P99/i/5Rly8pi7WC9DHAKkAQcCHjP9mLPYh8PxAJDAksDO4K0ghKCqoLuB5sFZwTXB/eFuIXMCDkeSggND10eeoNjxOFx6jh9YR5hs8LawtXC48Krwh9G2EVIIlrGoGPCxqwYczfSMlIU2RQFojhRK6LuRVtHT4k+FEOMiY6pjnkSOyp2ZuyZOHrcpLjtce/iA+KXxt9JsEmQJrQm0hLHJ9Ylvk8KTCpP6ho7cuyssReSDZKFyc0ppJTElC0p/eOCxq0a1z3ebXzJ+OsTrCdMm3BuosHEnIlHJtEmcSftSyWkJqVuT/3CjeLWcvvTOGk1aX08Nm817wXfn7+S3yPwEZQLnqb7pJenP8vwyViR0ZPpl1mR2StkC6uEr7JCs9Znvc+Oyt6aPZCTlLMrVyU3NfegSEuULWqbbDx52uROsb24RNw1xWvKqil9knDJljwkb0Jec742/JFvl9pIf5E+KPAtqC74MDVx6r5pmtNE09qn201fNP1pYXDhbzPwGbwZrTNNZ86b+WAWa9bG2cjstNmtc8znFM/pnhsyd9s8yrzseb8XORWVF72dnzS/pdioeG7xo19CfqkvUS+RlNxY4L1g/UJ8oXBhxyKXRWsWfSvll54vcyqrKPuymLf4/K+jfq38dWBJ+pKOpe5L1y0jLhMtu77cb/m2cs3ywvJHK8asaFzJWFm68u2qSavOVbhWrF9NWS1d3VUZUdm8xmLNsjVfqjKrrlUHVO+qMaxZVPN+LX/t5XX+6xrWG60vW/9pg3DDzY0hGxtrrWorNhE3FWx6sjlx85nfmL/VbTHYUrbl61bR1q5tsdva6jzq6rYbbl9aj9ZL63t2jN9xaWfgzuYGh4aNu3R3le0Gu6W7n+9J3XN9b/je1n3MfQ37LffXHKAfKG1EGqc39jVlNnU1Jzd3Hgw72Nri3XLgkOOhrYdND1cf0Tmy9CjlaPHRgWOFx/qPi4/3nsg48ah1Uuudk2NPXm2Laes4FX7q7Ong0yfPsM4cO+tz9vA5r3MHzzPPN11wv9DY7tZ+4He33w90uHc0XvS42HzJ81JL5+jOo5f9Lp+4Enjl9FXO1QvXIq91Xk+4fvPG+BtdN/k3n93KufXqdsHtz3fm3iXcLb2nca/ivuH92j9s/9jV5d515EHgg/aHcQ/vPOI9evE47/GX7uIn1CcVT02e1j1zfna4J7jn0vNxz7tfiF987i35U/PPmpc2L/f/5f9Xe9/Yvu5XklcDrxe/0X+z9a3r29b+6P7773LffX5f+kH/w7aPzI9nPiV9evp56hfSl8qvtl9bvoV/uzuQOzAg5kq48l8BDFY0PR2A11sBoCYDQIfnM8o4xflPXhDFmVWOwH/CijOivLgD0AD/32N64d/NDQB2b4bHL6hPGw9ANBWAeE+AurgM1cGzmvxcKStEeA7YEP01LTcN/JuiOHP+EPfPLZCpuoKf238B3G98c5CbcvMAAAA4ZVhJZk1NACoAAAAIAAGHaQAEAAAAAQAAABoAAAAAAAKgAgAEAAAAAQAABwigAwAEAAAAAQAABAcAAAAATqOGywAAQABJREFUeAHs3Q3UZlV9GPoXmDgwMzLDGGBkRhCNBgkaqSihJN56TWviJbFJrGJcbeGmSZrUGLu6LqH5MFaTJmWtrlBLtGluL157rdGLpibWu9JqzdUg1WixCUGq1w8oyMCEj8EZEAXn/t93D3v2nOfjPc/3+fjNmvW4n33252+feR3+s/c5Jxw5cmTNLwIECBAgQIAAAQIECBAgQIAAAQIECPRJ4MQ+TdZcCRAgQIAAAQIECBAgQIAAAQIECBAgsC4gMOo+IECAAAECBAgQIECAAAECBAgQIECgdwICo71bchMmQIAAAQIECBAgQIAAAQIECBAgQEBg1D1AgAABAgQIECBAgAABAgQIECBAgEDvBARGe7fkJkyAAAECBAgQIECAAAECBAgQIECAgMCoe4AAAQIECBAgQIAAAQIECBAgQIAAgd4JCIz2bslNmAABAgQIECBAgAABAgQIECBAgAABgVH3AAECBAgQIECAAAECBAgQIECAAAECvRMQGO3dkpswAQIECBAgQIAAAQIECBAgQIAAAQICo+4BAgQIECBAgAABAgQIECBAgAABAgR6JyAw2rslN2ECBAgQIECAAAECBAgQIECAAAECBARG3QMECBAgQIAAAQIECBAgQIAAAQIECPROQGC0d0tuwgQIECBAgAABAgQIECBAgAABAgQICIy6BwgQIECAAAECBAgQIECAAAECBAgQ6J2AwGjvltyECRAgQIAAAQIECBAgQIAAAQIECBAQGHUPECBAgAABAgQIECBAgAABAgQIECDQOwGB0d4tuQkTIECAAAECBAgQIECAAAECBAgQICAw6h4gQIAAAQIECBAgQIAAAQIECBAgQKB3AgKjvVtyEyZAgAABAgQIECBAgAABAgQIECBAQGDUPUCAAAECBAgQIECAAAECBAgQIECAQO8EBEZ7t+QmTIAAAQIECBAgQIAAAQIECBAgQICAwKh7gAABAgQIECBAgAABAgQIECBAgACB3gkIjPZuyU2YAAECBAgQIECAAAECBAgQIECAAAGBUfcAAQIECBAgQIAAAQIECBAgQIAAAQK9ExAY7d2SmzABAgQIECBAgAABAgQIECBAgAABAgKj7gECBAgQIECAAAECBAgQIECAAAECBHonIDDauyU3YQIECBAgQIAAAQIECBAgQIAAAQIEBEbdAwQIECBAgAABAgQIECBAgAABAgQI9E5AYLR3S27CBAgQIECAAAECBAgQIECAAAECBAgIjLoHCBAgQIAAAQIECBAgQIAAAQIECBDonYDAaO+W3IQJECBAgAABAgQIECBAgAABAgQIEBAYdQ8QIECAAAECBAgQIECAAAECBAgQINA7AYHR3i25CRMgQIAAAQIECBAgQIAAAQIECBAgIDDqHiBAgAABAgQIECBAgAABAgQIECBAoHcCAqO9W3ITJkCAAAECBAgQIECAAAECBAgQIEBAYNQ9QIAAAQIECBAgQIAAAQIECBAgQIBA7wQERnu35CZMgAABAgQIECBAgAABAgQIECBAgIDAqHuAAAECBAgQIECAAAECBAgQIECAAIHeCQiM9m7JTZgAAQIECBAgQIAAAQIECBAgQIAAAYFR9wABAgQIECBAgAABAgQIECBAgAABAr0TEBjt3ZKbMAECBAgQIECAAAECBAgQIECAAAECAqPuAQIECBAgQIAAAQIECBAgQIAAAQIEeicgMNq7JTdhAgQIECBAgAABAgQIECBAgAABAgQERt0DBAgQIECAAAECBAgQIECAAAECBAj0TkBgtHdLbsIECBAgQIAAAQIECBAgQIAAAQIECAiMugcIECBAgAABAgQIECBAgAABAgQIEOidgMBo75bchAkQIECAAAECBAgQIECAAAECBAgQEBh1DxAgQIAAAQIECBAgQIAAAQIECBAg0DsBgdHeLbkJEyBAgAABAgQIECBAgAABAgQIECAgMOoeIECAAAECBAgQIECAAAECBAgQIECgdwICo71bchMmQIAAAQIECBAgQIAAAQIECBAgQEBg1D1AgAABAgQIECBAgAABAgQIECBAgEDvBARGe7fkJkyAAAECBAgQIECAAAECBAgQIECAgMCoe4AAAQIECBAgQIAAAQIECBAgQIAAgd4JCIz2bslNmAABAgQIECBAgAABAgQIECBAgAABgVH3AAECBAgQIECAAAECBAgQIECAAAECvRMQGO3dkpswAQIECBAgQIAAAQIECBAgQIAAAQICo+4BAgQIECBAgAABAgQIECBAgAABAgR6JyAw2rslN2ECBAgQIECAAAECBAgQIECAAAECBARG3QMECBAgQIAAAQIECBAgQIAAAQIECPROQGC0d0tuwgQIECBAgAABAgQIECBAgAABAgQICIy6BwgQIECAAAECBAgQIECAAAECBAgQ6J2AwGjvltyECRAgQIAAAQIECBAgQIAAAQIECBAQGHUPECBAgAABAgQIECBAgAABAgQIECDQOwGB0d4tuQkTIECAAAECBAgQIECAAAECBAgQICAw6h4gQIAAAQIECBAgQIAAAQIECBAgQKB3AgKjvVtyEyZAgAABAgQIECBAgAABAgQIECBAQGDUPUCAAAECBAgQIECAAAECBAgQIECAQO8EBEZ7t+QmTIAAAQIECBAgQIAAAQIECBAgQICAwKh7gAABAgQIECBAgAABAgQIECBAgACB3gkIjPZuyU2YAAECBAgQIECAAAECBAgQIECAAAGBUfcAAQIECBAgQIAAAQIECBAgQIAAAQK9ExAY7d2SmzABAgQIECBAgAABAgQIECBAgAABAgKj7gECBAgQIECAAAECBAgQIECAAAECBHonIDDauyU3YQIECBAgQIAAAQIECBAgQIAAAQIEBEbdAwQIECBAgAABAgQIECBAgAABAgQI9E5AYLR3S27CBAgQIECAAAECBAgQIECAAAECBAgIjLoHCBAgQIAAAQIECBAgQIAAAQIECBDonYDAaO+W3IQJECBAgAABAgQIECBAgAABAgQIEBAYdQ8QIECAAAECBAgQIECAAAECBAgQINA7AYHR3i25CRMgQIAAAQIECBAgQIAAAQIECBAgIDDqHiBAgAABAgQIECBAgAABAgQIECBAoHcCAqO9W3ITJkCAAAECBAgQIECAAAECBAgQIEBAYNQ9QIAAAQIECBAgQIAAAQIECBAgQIBA7wQERnu35CZMgAABAgQIECBAgAABAgQIECBAgIDAqHuAAAECBAgQIECAAAECBAgQIECAAIHeCQiM9m7JTZgAAQIECBAgQIAAAQIECBAgQIAAAYFR9wABAgQIECBAgAABAgQIECBAgAABAr0TEBjt3ZKbMAECBAgQIECAAAECBAgQIECAAAECAqPuAQIECBAgQIAAAQIECBAgQIAAAQIEeicgMNq7JTdhAgQIECBAgAABAgQIECBAgAABAgQERt0DBAgQIECAAAECBAgQIECAAAECBAj0TkBgtHdLbsIECBAgQIAAAQIECBAgQIAAAQIECAiMugcIECBAgAABAgQIECBAgAABAgQIEOidgMBo75bchAkQIECAAAECBAgQIECAAAECBAgQEBh1DxAgQIAAAQIECBAgQIAAAQIECBAg0DsBgdHeLbkJEyBAgAABAgQIECBAgAABAgQIECAgMOoeIECAAAECBAgQIECAAAECBAgQIECgdwICo71bchMmQIAAAQIECBAgQIAAAQIECBAgQEBg1D1AgAABAgQIECBAgAABAgQIECBAgEDvBARGe7fkJkyAAAECBAgQIECAAAECBAgQIECAgMCoe4AAAQIECBAgQIAAAQIECBAgQIAAgd4JCIz2bslNmAABAgQIECBAgAABAgQIECBAgAABgVH3AAECBAgQIECAAAECBAgQIECAAAECvRMQGO3dkpswAQIECBAgQIAAAQIECBAgQIAAAQICo+4BAgQIECBAgAABAgQIECBAgAABAgR6JyAw2rslN2ECBAgQIECAAAECBAgQIECAAAECBARG3QMECBAgQIAAAQIECBAgQIAAAQIECPROQGC0d0tuwgQIECBAgAABAgQIECBAgAABAgQICIy6BwgQIECAAAECBAgQIECAAAECBAgQ6J2AwGjvltyECRAgQIAAAQIECBAgQIAAAQIECBAQGHUPECBAgAABAgQIECBAgAABAgQIECDQOwGB0d4tuQkTIECAAAECBAgQIECAAAECBAgQICAw6h4gQIAAAQIECBAgQIAAAQIECBAgQKB3AgKjvVtyEyZAgAABAgQIECBAgAABAgQIECBAQGDUPUCAAAECBAgQIECAAAECBAgQIECAQO8EBEZ7t+QmTIAAAQIECBAgQIAAAQIECBAgQICAwKh7gAABAgQIECBAgAABAgQIECBAgACB3gkIjPZuyU2YAAECBAgQIECAAAECBAgQIECAAAGBUfcAAQIECBAgQIAAAQIECBAgQIAAAQK9ExAY7d2SmzABAgQIECBAgAABAgQIECBAgAABAgKj7gECBAgQIECAAAECBAgQIECAAAECBHonIDDauyU3YQIECBAgQIAAAQIECBAgQIAAAQIEBEbdAwQIECBAgAABAgQIECBAgAABAgQI9E5AYLR3S27CBAgQIECAAAECBAgQIECAAAECBAgIjLoHCBAgQIAAAQIECBAgQIAAAQIECBDonYDAaO+W3IQJECBAgAABAgQIECBAgAABAgQIEBAYdQ8QIECAAAECBAgQIECAAAECBAgQINA7AYHR3i25CRMgQIAAAQIECBAgQIAAAQIECBAgIDDqHiBAgAABAgQIECBAgAABAgQIECBAoHcCAqO9W3ITJkCAAAECBAgQIECAAAECBAgQIEBAYNQ9QIAAAQIECBAgQIAAAQIECBAgQIBA7wS29G7GJkyAQDsFvvzJL+5/7HCMfc+W7SmxiHQ0fu7Fz2ynkFETIECAAAECBAgQIECAAAECEwiccOTIkQmKK0qAAIEVCVx5+dW33nrHojs///yzr/+931x0L9onQIAAAQIECBAgQIAAAQIEVi7gKP3Kl8AACBAgQIAAAQIECBAgQIAAAQIECBBYtoDA6LLF9UeAAAECBAgQIECAAAECBAgQIECAwMoFPGN05UtgAAQITCwQB94nrlOvwkUXX1SvoFIECBAgQIAAAQIECBAgQIBAuwUERtu9fkZPoJ8CP/VzP37Jpc9rxdy/cdeHHl576ra1u7fsOu+xB2+T5uAecA8s4R44ddfOE7c/oxU/JA2SAAECBAgQIECAwAoFvHxphfi6JkBgAoHy5UvXvv3qVgRGIyr69T//6QkmqSgBAgTmIfBte3/mlOf+4jxa0gYBAgQIECBAgACBLgt4xmiXV9fcCBBYrUDsC1vtAPROgAABAgQIECBAgAABAgQIjBIQGB0lI58AAQKzCsQJ+lmbUJ8AAQIECBAgQIAAAQIECBBYjIDA6GJctUqAAIG1NTtG3QUECBAgQIAAAQIECBAgQKCxAgKjjV0aAyNAoPUCdoy2fglNgAABAgQIECBAgAABAgS6KyAw2t21NTMCBFYkcOjer0XP8WnH6IpWQLcECBAgQIAAAQIECBAgQGBzAYHRzY2UIECAwEQCO854cipvx+hEbgoTIECAAAECBAgQIECAAIFlCgiMLlNbXwQI9EIg7RjtxVRNkgABAgQIECBAgAABAgQItFZAYLS1S2fgBAg0VSB2jIqNNnVxjIsAAQIECBAgQIAAAQIECBwVEBh1KxAgQGDOAhEVzafp59y05ggQIECAAAECBAgQIECAAIE5CQiMzglSMwQIEHhCwI7RJyT8LwECBAgQIECAAAECBAgQaK7AluYOzcgIECDQToG0Y9Rp+kWv3kc/fdqmXbzkogc2LdPMApXZNXwiMdpf/T+eniT/yf/6lYaPtpkrblQECBAgQIAAAQIECCxfQGB0+eZ6JECg4wJ2jC5tgXMwblSPUaC9cbo8uwtfdP5LLnrXqDnKJ0CAAAECBAgQIECAAIHpBByln85NLQIECIwU8IzRkTSruBDhxcruy1WMQp8ECBAgQIAAAQIECBAg0DgBO0YbtyQGRIBA2wXsGF3JCsbO0LLff/reCx49dCjlpK2XzneXPtIECBAgQIAAAQIECBAgIDDqHiBAgMCcBTxjdM6gNZrbOGx+c1nwJRd9vHzw5b+/5eXtPY3+Ny/4UDk1aQIECBAgQIAAAQIECBCYi4DA6FwYNUKAAIFjAnaMHrNYaSq2iObHdN78qVvXrjhuNOl8fQRMc26KP47aWFopH4VTyfKc/mDdwVrR3WCxPIahiYmiupUeo8E81KGNDy0fJUcNslJ+fONDe5RJgAABAgQIECBAgACBhggIjDZkIQyDAIHuCNgxuvy1TDHN+v1GdO+JmOmtudbNn3p6Sg/GBAfLR+E4rf+Lr7rliXbWKmf5iyrR6tFexnSRhzFL4uff8dr1EPD6r+PmFYMc+hKqYpDHlU9jmMghVfFJgAABAgQIECBAgACBFgl4+VKLFstQCRBoh4Ado8tfp3Lj56a9F9HA9bIRMYyT+LlWxBCjQP4aiUr5fCmeYRqx0fy1TFSqbNpFWXfq9F+/6vueiIoOaWPTeW06yMqkch/hkKPDOVOCAAECBAgQIECAAAECzRewY7T5a2SEBAi0TMCO0YYsWBnf3LpjRx5VjuLlTZTrjx+9Yi0Ci+l9TVGg3CyZy0cLUSW3U77fKWemxEbA9Oirn1Ivg11EybKXSgvl1zr7YWOy+WVTEefNJ9zLaGaMKh69mlvO81qcQ+5LggABAgQIECBAgAABAg0UEBht4KIYEgEC7RawY3T563frrXeUYdA0gBz4i69x5j2PKgc3K3HJ8lx8tJauls3mAGJqKoKML/7ZC3OzORFVcoyyUqXsIpffNFHnGaNlKDZHRaPlNItEEaPK84pLi3bYdF4KECBAgAABAgQIECBAYLUCAqOr9dc7AQIdFLBjdPmLGiG/MgxaGUDlnfWVeGil8ERfI7Y4pt9oqtJXfI0oZzrwXifcWXMwZSi2MtkxLVTGNqbkppc2ddi0BQUIECBAgAABAgQIECCwfAGB0eWb65EAgY4L2DHaqAXe2LN58+CQ8lbQHKkcLBM5cbV8kdHQMpXMskruJZeJza0pvR4evSJnzy0xeO4+AqA5ejsYjc0jrO8wx4jq3KatIQIECBAgQIAAAQIECEwuIDA6uZkaBAgQGCtgx+hYnkVdLF+gFH3k+OBgFC9CgccHAY+9kH384AabGl8+ruaIZFHy6LNHi5xNknkum5Sb8PLUDhP2ozgBAgQIECBAgAABAgQaKiAw2tCFMSwCBNorYMfo8tcuoqL/4op31ek3ooEbwcqjwdB4KVP5+NFhccxjrUbdSWOjsV91YwPpeqB2MHGs6bGpqLj+7qa5/prFYa4D0RgBAgQIECBAgAABAgRWJiAwujJ6HRMg0FUBO0aXv7L191RuRCePRkU3Ttk/kEcbscKczolo+eZPPT1/rZMoq0QgNcc0BxN1WptvmQw1i8MUAeL5zkJrBAgQIECAAAECBAgQmIvAiXNpRSMECBAgkAXsGM0US0ukzZh1uksvPoqSlaho5NRvJHc0fodpFBsabM3V55Uo97FuvJ7+uIaHjmG+DoOdHjcCXwgQIECAAAECBAgQINBIATtGG7ksBkWAQJsF7Bht4+pF9DDHCkeNP4dBIxAZ5ctNl6OqRMTwJRd9PF+NWrmRwchsLlZJxPuahgY3U7EUFY3WUsuPHjoUhQdCpXUfbBp1N3XYCIPekruIKtFpZcy+EiBAgAABAgQIECBAoPkCAqPNXyMjJECgZQJ2jDZ5weJppCnwF2HEiGzmo+U5XlkZfAr/5asp8cTX4W9tKqtExPDn3/HaTXupdFr5Go080WPlylo8I3Vt7ViMMl2OwnlqEcTMUcuY+0suujmVmcIh2kx0aTwbceG1CNrm9quD850AAQIECBAgQIAAAQLNFhAYbfb6GB0BAi0UsGO0yYtWPgA0wnzl80PzpsvK+CPQmWOClUt1qlR6SS3U3y5a6bHyNQcly2hslCk6PbqXs/J+qikcyiqpizyYHGbNORIECBAgQIAAAQIECBBovoDAaPPXyAgJEGiZgB2jy1+wvCVz065TALES6Ky8m36wkXjl/UcvWH81U9qAGXHA6DGaGnPCPVUpN2ymZiMkGok0jJQzr8/c5uD20o047NG9oqm7KRyGtv8E3VfKEPO8ZqQdAgQIECBAgAABAgQILFTghCNHjiy0A40TIEBgLgJXXn51HNpNTV379qsvufR5c2l2EY3kHaNP+ubHv/7nP72ILrQ5F4Ec1swhv0mbjRZyFHLUJtDcSzQ+dUdTDCxX2bTTPMJNS+Y2p6iS60osQeDb9v7MKc/9xSV0pAsCBAgQIECAAAECrRawY7TVy2fwBAg0UcCO0SauyrAx1YkD1gl9Dmv7WF6dXo6VnlNqok4nKpwGOEWVOc1MMwQIECBAgAABAgQIEJibwIlza0lDBAgQILAhkHaMwuiewMbb2I9Nq4yZxolyscJjNFIECBAgQIAAAQIECBBog4Ado21YJWMkQKBVAnaMtmq5NhlshDvzA0njTUcv/tkL4wGjqU56RXtK/+KrbtmkIZcJECBAgAABAgQIECBAoGECAqMNWxDDIUCg/QL5GaPtn4oZrAvEa5R+fu21OQyaE1ln1NNFcwEJAgQIECBAgAABAgQIEGiggMBoAxfFkAgQaLeAHaPtXr9ho0+vmM9bR3ORxb1iPnchQYAAAQIECBAgQIAAAQILEhAYXRCsZgkQ6K+AHaOdXPs4U/+Si961dsVaeiG7J4p2cpVNigABAgQIECBAgACBXgkIjPZquU2WAIFlCNgxugzl1fUhJLo6ez0TIECAAAECBAgQIEBgngLeSj9PTW0RIEAgBLyV3m1AgAABAgQIECBAgAABAgSaLyAw2vw1MkICBFomYMdoyxbMcAkQIECAAAECBAgQIECglwICo71cdpMmQGCRAnaMLlJX2wQIECBAgAABAgQIECBAYD4CAqPzcdQKAQIEsoAdo5lCggABAgQIECBAgAABAgQINFZAYLSxS2NgBAi0VcCO0baunHETIECAAAECBAgQIECAQJ8EBEb7tNrmSoDAUgRix2j0c/j+h5fSm04IECBAgAABAgQIECBAgACBaQS2TFNJHQIECBAYLRA7RuPi9t3b9j9y4anP/YPRBV0hQIDA/AVO3bXzxO3PmKXdi5/347NUV5cAAQJjBM4//+zrf+83xxRwiQABAgQILFPAjtFlauuLAIFeCMSO0bRpNM32gTtPjUT+3LZ2d06nfDl83An+FMz+pyBaSL8eevDgE0n/S4AAAQIECBAgQIDAOIETjhw5Mu66awQIEGiGwJWXX33rrXeksVz79qsvufR5zRjXkFGkZ4zG5/2PHDp1y/5UIuI+d935nafteyhXkEPDveFPwSL+FGz5tu8o/20m/8ypn7BjtL6VkgQITCpgx+ikYsoTIECAwEIFTnrTm9600A40ToAAgbkIfOCGDx84cHQb1A9c9r1PO/vMuTS7iEaetH1rNPuNw9845due9K1v3Z+6+Obak0859dHcXWwa3XLqk+QkEBruBHfCvP4UhOSOUx8/4Umn5Z82UyT+97e/b4paqhAgQKCOwOmn7/ybr/z+OiWVIUCAAAECSxCwY3QJyLogQGAOAm3cMbpt+wFnWuew9pogQKC2QDxgNMpO94zRvNv9pd//07U7VJAAAQKTCdgxOpmX0gQIECCwYAHPGF0wsOYJEOifQDrEGp8PHz49Zp/iFA89ticlSg85NJKAO8GdMPWdkG6e/DnLP8bMeAC/XERpAgQIECBAgAABAq0Q8Fb6ViyTQRIg0EqB2DG6tra+e2s9ZvFgPGx0ZyX+FSEMOXlpaWSKSNCgkQQ2vRNygRwbjX+S2bG99KuVzttFa5VWiAABAgQIECBAgEAnBByl78QymgSBHgi06Ch9Xo0INKTT9GX0M0cxcjEJAgQIzC5Q/myZ7ih9jCF+asWno/SzL4cWCBAYJeAo/SgZ+QQIECCwEgE7RlfCrlMCBHohsLFj9OhR+jzhMkiaMyUIECAwo8CMP1tSSHTGMahOgAABAgQIECBAoF0CnjHarvUyWgIE2iQw9aatNk3SWAkQ6IRAPGDUM0Y7sZImQaAdAv4xph3rZJQECBDogYAdoz1YZFMkQGBFAt86/KUV9axbAgQITCYgSDGZl9IECMwm4F9iZvNTmwABAgTmJmDH6NwoNUSAAIGKgB2jFRBfCRBorIAdo41dGgMjQIAAAQIECBBYnIAdo4uz1TIBAn0XsGO073eA+RNoj4Ado+1ZKyMlQIAAAQIECBCYm4DA6NwoNUSAAIGKQOwYFRutmPhKgEAzBQ58+d5TvvTpB2+8JYb31u2Pxue/OudZf//2L6TErbfe0cxhr2RU8U7tiy6+qGbX77z+/YMl/86VP7rnrKecte8pe/ed/vj+h/c/dvi/furzn/7kpzd1jorf/ayzTzrt5Oc+69xYsvEVy3GOarwsM3SoefBlyZxZJkZ1UZbpVToW6x/8w1fGlG+68c/e8DO/2au5mywBAgQIEGiRgMBoixbLUAkQaJmAqGjLFsxwCfRPIDaKHvrIh25/63sHp56iopG/nti+fv31h7cOFuthTkRFU8Br07lHROyd1x9XKoJlP/Sjl559zlOP5Z6zdu7a2iWXPm9t7ZVjImhR8e++9mXlYxkjvWnFPM6bbnz20NhcOZfxgdEYcG7t2OCPS73yjtvv/sP337hpO8dV6u6Xv/KiZ6fJbSxud+c57czih095P0/bjHoECBAgQGBWAc8YnVVQfQIECIwS8IzRUTLyCRBogsD+d7/nL15xxdCo6NDhxU7StJl06FWZmwrEpsuILR4XFT2+TkTQPvLh3zk+b/3bVb/0k1FxTBRpVMXcVBSI0Gr+uqBETC3GuYSOFjR+zS5TYMz9vMxh6IsAAQIECNgx6h4gQIDAogTsGF2UrHYJEBgtUOefZGKv1p1vvubgZ24d3czIKxEb7fnW0TgzHhswRwHt2bL93IufOXg1oqL/8q2/lPPT5spoKvZsxrH6H3v1S9KliBZd+/ary92dEWfMV6NM/Yq5r5SIDafz2ssZO1vj7H/ZfrkNNmKjjtWXONIECBAgQIBAkwUERpu8OsZGgEC7BTxjtN3rZ/QE2ikQ/yQzPjY6Kiq68wXn77r0gkeecdHp554RU89PHR2Mn/Y8NhpPAi0Dl5XbJAKg1//e8AdK5i1yX/7kFy//yV9JFdNzRT/4+3+Ua8XuzmgkP2/05X/1wtzFn3zwU//oF68tK+7/6n0RiEw5lYq5VkpE7//8n74hV69cnehrREUrMdaIhP7Uz/14DCC1c9mPvOzWW393ojYVJkCAAAECBAisREBgdCXsOiVAoBcCdoz2YplNkkCrBIZGRc95/at2vPTlOWyXJrT+9eJn7nnNq+NrHLqvnLjveWx0ijUv39f0oU/cXGkhwqC//Vs35BBnvhoR0nL/6WBYMwKU5YbT8RHJ773sRX/nCz9aiWnmvmZJxPj/9b/8dzkw+leefvZga7H1Nb05Kl3a9H1TUT4/pvOrd94XsePopTynnycyNDMPYPzVKBYF6g9s08KxZGmt481a9ceQS0oQIECAAAECSxYQGF0yuO4IEOiRgB2jPVpsUyXQEoF41VJlB+jTr3/bmeedOX74ER494cK/9sB115V1xUbHo425GmG4wasR5suRvnT10UOHynBqHGAfrBU5ETHMZ+3jTfdDy+TMOR6oz22mRN7iGl/LYG58jWBi5c1RkbkRRX1lhIMrs45LEVuMxw5UIvUxxygcodIUfi1fbJUzo+5ga2OuTjSwGNU/+Wc/X3lEbJpF+dasWLLBAHeZMzjCGHYPf3n5Ug8X3ZQJECDQTAEvX2rmuhgVAQJdELBjtAuraA4EOiQQJ7jLjZ9xdv67PvCOTaOiCSCK7XvjVVGl9IhQUflVeoxAHDbPV2PnZpxq31Rv644duUokKo/1zJfKiGTes5mvpkQ8mTQlItoYr3KqXJ3L13I6caflNiM/woI5yhkxxPgdQbFUIC5FdDIXTonBqGguPGqClRbqfJ10YDGqHBWNCcYssmqM6vd+9y11OlUmC+RbIudIECBAgACBlQjYMboSdp0SINALATtGe7HMJkmgJQIRirr3DVeVg41A50SxiSgcVQ6+4orcyN+//QuvX9uav0qMEYjwZYTSclwvYqPxO+Jrcax+Ca8q+sP33xjPKk0bOWPrZTqWPma0k16KIGM8YzTX+q9fuSOnY5dlSscd+HOv//Ucxo1IYhpPxEZLgYiT5tsyqvyf7/qjFFOOpwTkjbG58VkSEw2sHFW5yzXy027QmEsgxOxitL/9W+vjKl9IFVVmGaq6BAgQIECAwOIEBEYXZ6tlAgT6LmDHaN/vAPMn0ACBCC3F8fkHb7ylPAUf4zrj2mty+Kn+MKNKVCwDrCkYVL+FPpeMVzbFG+dzbDQoIpr2D9ZfYf/KWKbPfupz/+0LdyzunPWbf+t38/udIib4t37oH029FhuP/jy2zTMecvqyl1xU3k4ReE2NR9ww77KMEGeOisbVcjxx/DxfinhiHlgZSE1vc5pXbHSKgeVRlWsU6RS3jatpCvGZEqGU515Wye1IECBAgAABAk0QcJS+CatgDAQIdFNg/IuhuzlnsyJAoEkC8dKkv3jFFXF8vhIVjRPxabPeFIONiuWB+tg0OkUjva0SsdHYPFieNE8UEVWMDaSx9zD2UUaseRE+Ea3L+xYjYBeRwal7idhuDDX/jmBlGRWNXlJksNJ+JTgYZbJD7GbNhXMwMa5W2snx1lx4LomaA8t9VR6DEINMv3MBCQIECBAgQKBFAnaMtmixDJUAgZYJ2DHasgUzXAKdEEj/JHPPbfdU3pVUTm7r376i/Dpper36Z447lT9pC30uH2G4+B3Rz9gmGW9hev6LnlNGFSPuHM+yLHdKztEq+s0H6iOsmbc6zquLeOZmnNkv44wbe0uPNj8Yij1pz7Z0LYfpy6BweR4/FavESWcZ9qQDC6tD974srVR+DEKMcP9X74tLcxzYLJNqV93YJV3e+e0avNESIECAQJcEBEa7tJrmQoBAswQ8Y7RZ62E0BPohEP8kc+8f/Gn5kqXBeec41OClOjlR/d6inNP0BUbdZLnHMCKGcRo9HxKPaFE8TzOdHK/bXO1y5QH2OFAfcczaVY8VjIel5jdBRYQxPxygEhU9VmEjFaHYSs74rxFzHF9gXlfrDCzWK6LVIZY3tMafgif+HL3yTz74qX/zf71feHSiFREVnYhLYQIECBBYnIDA6OJstUyAQN8F7Bjt+x1g/gRWIfD5X7i+cnC+MoryIHzlUv2v0UjuJU7T//Shb1ZeoV6/qXaVTDs905jLrZGzzCK1E3HAHKF74fecN9hgBE8HMyOn3GWZD6cPLRmZEbyLo+6po4jx/d3XvmxUyTH5ERXNc3/n9Wsf+fDvpCBXtJbzB6tHOHUwM+U8/sDXR11aQn7NgQVdPJg1otiD+3xjD2ns/F3QPt8lCOiCAAECBAj0WUBgtM+rb+4ECCxWwI7RxfpqnQCBAYFNo6JRY9elFwzUmzgjGsmB0ajck6hozDTOv+fwZXwdjANGgaz51TuP7XmMB1OedNrJcamMKuaSqancct6WuHHa/ehGy6HR0qhY9njXgWM9lo2X6RhzPlA/l1178ValNPJo7apf+slrfv13c3dlxDOer5rz6yRiL2pEXWf/tWfL9sFGph5YXvEUIs+vno+5L26f7+D45RAgQIAAAQLzEvDypXlJaocAAQJVATtGqyK+EyCwSIE4QV8GKxfZ1XFt/6tznnXc9958Kd+fniddZpaHwWNHYRw5T68tKvd45oplZt74GbsU41GMqUxESwcf0xmXyh7jvfa5wTGJOFA/5uqklyJWmAcZDwQoJ1KOZ+jgK32Vp9Gf+6xzK1dHtVBGOStlYjBPHHg/rrFJB3Zc5Y0vMdSYeOwhzZfO2nfclt5yVLmMBAECBAgQINA0AYHRpq2I8RAg0B0Bb6XvzlqaCYHGC2z6XNHFzaBXL6YvX1gUkcpr3351jgNGIt4pnzd7Rqww7y4M/D/66KfzEsTrlSrxu/gambnAhz5xc06XFWNjZlkx0mN6zC0MJiKol99QP3h1ipzYNJpr/dTP/XhOl1zlq+ejQAz+k3/279Lv2Geaq8TzOlM67T/N+cE76uB/GeWs9PLGf3is5dxUJCYd2P/9h/88DbX0j3by6peNp3Q5qnKCgyX7mZOD6f2cvlkTIECAQHMEHKVvzloYCQECXROwY7RrK2o+BJoq8NCDB8e/bakc+IM33rLnNa8uc6ZIRyNlrUcPHerJafoUUsxn3tMm0JIip8tYYWR+8Pf/6GUvuSgdXY/PaCE3kqukRCWiGifTc8UoMKZipcdKs5WvERm84/ZLcxi3cnXSrxECzofKwySihykoXHLFzs0I46aYb/myqegrcHKP8RajeGRn+hr7T2Puf/6FL8fXaDaXqSSir4iZJtvoJSKY6bGhsec0ZVbKx9dJB3bXnQeSVfjHGf94HkIAxkMMyjhsfiFV6m4j9nr0MQgxkfxyrSsvvzp6HxxS33JGLU3fHMyXAAECBFYuYMfoypfAAAgQ6KyAHaOdXVoTI9Awgf2/8f76I5r7cfvXH97ak6hoQo4w3KbbLaNAigzmdYlYWLyc547b7845QxNRIIpVLtWpONhjpZHK1xjPr/7Cv6hkTv01IuPlC+7L0/0RH8xvN4qoZQrs5ihh9BgjLwOFkS55I3yWo8/5CQOD46wEhVOVqBtR5rwFtVJrooHFA1Jz79F4zOL63/vN+Mzn9OPq4IqXE6n07isBAgQIECDQEAGB0YYshGEQINBBATtGO7iopkSgeQKPPXjbpLHOe267Z5Z5RLBp0h5n6a6BdSMEFvv+hkbc3veej8alSowsTSFCfvFIygiW5RBbObXIjEtRoIwSVioOxlVjLcb0WLY/mC5DkNHOYIH6OREZjynnAGhsrsxnzKOXiCrG1AYHP2rk0dRg+Sh8+U/+yqghDa0S44mYcj7SXpnjpAOLB7MOjirGE/OK/KFjS6PKLKMGL58AAQIECBBYocAJR44cWWH3uiZAgEBNgfLoWTzTbcyRupoNLqeY2OhynPVCoM8Cdd5EX/HZ+YLzz7vuLZXM+l9ve92vlIHR2DFav273SuYIYExtMKY5ar5lreVUHDWSZeaXs65jlcvnwnFMPg04oo3la+7zwxwGq9SZYK4VhXNfoyqWheuUH9VOb/MDMPbb9nb6Jk6AAAECTRPwjNGmrYjxECDQHQFR0e6spZkQaKpAPF20jFHWHGZUiU2jZ553Zs3yZTHbRUuNSG8aR6uUT1+nqzV1d0PHsPzMSWddv3x+mEP9KuX0J6o1UeGyF+lSIH6SeMxoCSJNgAABAqsScJR+VfL6JUCg+wKeMdr9NTZDAqsWmOjpouVgH7juuvJr/fSdb76mLNzz7aIlhTQBAvUFREXrWylJgAABAgsVEBhdKK/GCRDotYAdo71efpMnsBSBKbaLpnFFxTgRP+kYK4foJ62uPAECBAgQIECAAIFGCQiMNmo5DIYAgU4J2DHaqeU0GQLNE4hz9LMMKsVGK2+kGdPgYFTUdtExXC4RIECAAAECBAg0X8AzRpu/RkZIgEBbBewYbevKGTeBlgh8/WOfn2ik8c6lfW+86i9ecUWutb7h9M3XbP3bV5x78TNz5mAiXph+7xuuquSLilZAfF2CQLyJcQm96IIAAQIECBDoj4DAaH/W2kwJEFi2QOwYFRtdNrr+CPRJ4MEbb5louhEVjef6Pf36t33lyp/NFddjo5+56tEXnL/r0gt2vPTl5YP/YjPpoY98KHpZL3P8L1HR4z18W5KAFx8tCXrx3Xj50uKN9UCAAAECtQQERmsxKUSAAIEpBERFp0BThQCBBQnEdtEU9Fx/Gf3xsdHoMUKf69HPt7430lEy5YwaiajoKBn5BAjUFCj/DaZmFcUIECBAgMAiBDxjdBGq2iRAgMC6gGeMug8IEGiOQJyXz4OJ2OjFN70vBUBzZk4cDZLm78cnREWP9/CNAAECBAgQIECgxQJ2jLZ48QydAIGGC9gx2vAFMjwCPRc477q3xMNDH/237xg8KT9URkh0KItMAgQIECBAgACB9goIjLZ37YycAIGmC3jGaNNXyPgI9EngtH0PDU53/Z1LF7/lntvuOXLzHw99lmiqIiQ6SCeHAAECBAgQIECgAwICox1YRFMgQKChAnaMNnRhDItALwUeuPPUXXuHzzxO1h/a/fJ489K+jes/9/pfj//1lpvhWHIJEJiHgJcvzUNRGwQIECAwBwGB0TkgaoIAAQJDBewYHcoikwCBBgqkF6FEqCLGJiTawAUyJAIdE/DypY4tqOkQIECgvQICo+1dOyMnQKDpAnaMNn2FjI9AnwSGHqXPACkkmr9KECBAgAABAgQIEOiDgMBoH1bZHAkQWI2AHaOrcdcrAQLDBMYcpY/i5Y7Rq37pJ1MD+796356znjI+HVfrFFNmPCMfPn24B9Iqn7l9e0r4JECAAAECTRA44ciRI00YhzEQIEBgvMCVl1+dT3de+/arL7n0eePLN+HqN+76UBOGYQytE9iy67zWjdmAVyLw+V+4vuYL5WN4Z1x7zfqrlkb8KneM3v/IobvuPBAF92zZvv+xwyNqyCZAgMDmAuWPkUhHhZP2bDv7nKduXlMJAgQIECCwFAE7RpfCrBMCBLou8OVPfvGUL3063ukcE01xip0vOD8S+/+XL0TOSy56oOsA5jc3gRO2fs+WF/2z8c0d+vj/NL6Aqz0ROPiZF9Wf6fij9OWO0dRmJZwREdKU45MAAQL1BQZ/dNT/qTVY8p7b7vnE2z4+mC+HAAECSxD4kbe+cgm96GL5AgKjyzfXIwEC3RGIPVaHPvKh29/63sEppfDonv/wrLj0uf+wFhFS4dFBJTkECCxNYPxR+vhpNvRdKCn8MWqQgyEPOQQIEKgIlF9ju+ionyfyCRAg0GSBb1169OFCTR6ksU0nIDA6nZtaBAgQWNv/7vcMDYkOpYkIqfDoUBmZBAg0QaASFY14aB7VmK1hUaYMeUgTIEBgUCCCoY/vf3jvvtPjM36LjeafrhIECLRI4MQb71t7dYvGa6gTCJz0pje9aYLiihIgQGBFAh+44cMHDhxMnf/AZd/7tLPPXNFA1ruNrVVf+oVfu+ff//GkY9jxhaf85f+79/S/dtekFZXvj8AJW/Y9ae9fHz/fb9zxjvEFXO2JQPw8qT/TfX/v4pNPHflcv/ix9qTtW79x+BsRIT148NCRQ9+M4MX2h0+Iz0jvPGvX0M9cJpX0SYAAgUGBeGbxjhOflH6qxOeJO75t564n1//ZVZY8/JeH/8ef3lHmSBMgQGBpAs/5wfOX1peOlilw4jI70xcBAgQ6IBDhgzvffM3gC0/ioaLnvP5V8XqT7/rAO+J3JOJrZA5O+XP/ZILHAg5Wl9NzgYcePPovBD13MP0QSE8xrkkRR+nHlEw7RuMzfsTtPmVHlIxYRsQ9fRIgQGBGgdgrGttI4+fJjNtF46fTmB9iLhEgQGChAo7SL5R3tY07Sr9af70TINAygaFR0QiA7njpyysHUde/XvzMPa9ZP3ExeOg+YqPP+dVPtWzyhrtqASHRVa9A4/pPTzGe77DiZ9cdt98dIYy9a+uPAkxn6n0SIEBgOoGIiuafJLPERuMvYPHT6cCX753vTzytESBAoKaAo/Q1odpY7IQjR460cdzGTIBA3wSuvPzqW289enjq2rdffcmlz1uJwGCI8+nXv+3M8zY/1x/vUX3guusq+0zFRleyiA3vNN5Kv33YW+kjKnrqrp0x+Eic+Oc/3PBZGN5yBCbafv6dN/zyrr0X1hlYBCDuf+RQnZLKECBAYLzA0F2iZ58z8rEeY1qLH00RGP3su24eU8YlAgQILEggdoz+2KtfsqDGNbtaAUfpV+uvdwIE2iTw5U9+sXzbUhyTjyPzdaKiMckotu+NVw09Wd8mAmNdnUBERSMkatPo6lag9T2PP0o/ZnoR1xi8OjRzsJgcAgR6LhC7RGcXiJDo7I1ogQABArMIrO8Y9aujAgKjHV1Y0yJAYAEC977hqrLVCHRWjs+XVwfTUTiqlPkT7fYqK0p3XmAwABo5acdo5+dugvUFJnrGaP1mKyWHxjWGZlYq+kqAAIFBgfQU48H8MTnxNyix0TE+LhEgQIDALAICo7PoqUuAQI8EYrtoOdt4t9JEUdFUN6pExbKdj376tPKrNIEkMBgDTTtG+RAoBSZ6xuhp+x4q60oTIEBgJQJTPKkjoqJT/KVrJbPTKQECXRXw8qWurmzMS2C0w4tragQIzFPg0X/7jtxcnIg/9+Jn5q8TJaJieaB+orjGRB0p3DEBO0Y7tqDLn87UR+mXP1Q9EiDQYQE7Rju8uKZGoMMC6Si93eudXGKB0U4uq0kRIDB/gfK9SVv/9hWzdDBj9Vm6Vre9AnaMtnftjJwAAQIEssAUO0Zz3ZR4zrf+W/pdyfeVAAECixawe33Rwitpf8tKetUpAQIE2iVQOUc/9XbRNOuofm+75m+0SxewP3Tp5N3v0FH67q+xGRJog8AUO0bjr2FxcCf9E/VZa2sHn5jmWWu3PpFc++oLX5PTEgQIEJi7gKP0cydtToMCo81ZCyMhQKC5Aqd86dN5cOVB+Jw5aSIayVtQ4zGjL7nogUlbUL7bApVnjIqTdnu5p55dvHyp/uM44ij9rr1Td6UiAQIE5iMQO0Z3rD25ZltlSHR8lbP+9N1RQHi0ovT81164beeO7bu3xTa3e2675+GDh+46cN+B/3hHpVjHvp7+N87ee/pTYqajPjsvMOmC/vVfflnaCPknH/wUnFF660fpXz3qovx2CwiMtnv9jJ4AgeUL7Lr0gtk7jUZyYHT21rTQeYEUJ3WavvMLPekE60dFJ21ZeQIECCxIoP6O0f3vfs+9b33vRMMQHs1cf/Vnv+/M887MXyOx8fXMc9eeuXbZi7od/3rWd5wTk12f6dra8M/LXhQx98++6+bSp8/pfDw8QskH1joeN+/zQpv7KAGB0VEy8gkQIECAQIMEYtNog0ZjKC0UcJS+hYtmyAQ6KFBnx2i83uTON18z9J+Q08Gd9K/UD954y9AyER7t+dbRH3nrK8ffOt8bsdG1tT7vDYwHW51+7hn/6df+aDxUH66WJ8T3P3a4D1Oebo4JKn465TjydO2o1UABgdEGLoohESBAgEDfBQbPzqdNo8Kjfb8zZpi/o/Qz4KlKgMDcBDbdMTo0Khrx0AiG7njpy8uQxJ7XrJ9rHXrcvs+x0TgWXa5W+MSh8siJzYARCsyAERv9/a6fqY9Z33Tjn+3Zsj0SEfJLifyqgKCIfbWfeNvHS64epssT4kG0v4cE9aacoPKfoHqVlGqHgMBoO9bJKAkQaI5AbE9IfxGfZUjRyCzV1e28QOUZozFfIdHOL7oJEiBAoA8Cm+4YHdwres7rXzXmr17rca6L3xLhv3vfcFUJ2M/YaDxeswzc/P7rb8gm6Yh0fppk5PchLLj/PZ/Pkb6UiDBxBIUTS+VpA9mqV4m4Z/J87RjNFBK9EhAY7dVymywBAlMKPPKMi9bWjj7lauihrSnb3ajmzUuz6PWnrh2j/Vnr+jOd6OVLjtLXh1WSAIHFCTy+/+H9n3jPqPYrp+Njo+hpr3tdnehVhEfPvel9t73uV8q/pz3nW//tcyd+96i+Opkf20LzvCJYnNM5EYfH80H7Cmy8qSltqxz68M0In5102smxo3Do1Wh/z6uf/YynHH2q6Zi3PKU3I0VHEbKMWulrJNJbofLVxx/4+qiT/rlMaiFPrWYimr1n4yGkqXy0NthRzbnkHtNLrtLXL913TxpYNLK+AfOJmaarkRmJUYwxmLkg577KFamMZH0YGyNMhdNnlN/z2vUxjxphWbhv6fKZA32be+fnKzDa+SU2QQIE5iAQJ4/uLZqJ13pW/ipZXNw8GWfEyr+1b15Bid4LpJP1No32/kaoAkz08iVH6at8vhMgsESBiIc++m/fMenff/a98apy/+Om443ya8XDSde7e2G/AqPxV9asNCqCOeohievB5ScqD9bNuyyjSOXq4Iue4lVP8dajQy96TuUhnrlkdPQnD3y9bHPbbTsiQBmB3TyMoSf9847X0+/92v619dDqFL8ibhsjTBUrrxvKIyyaHT6XVCBCout7lotfZ66deehZ5x748r0pP2b6+xsh4FTkkkufl8tWGCO/BKlcnWhgEfEsO9roMWaxtnbp88r3bg2UyW/oOjrGyhiO5vb1f8pnDvTVoLPzPrGzMzMxAgQIzE8g/lKeHvafmnzguutmaTvOiM1SXd0+CFRioIMn6/uAYI4ECBAg0AGBCIk+6RMfi3Puk0ZFn3792yaKioZVlF+PjRa/0nvqi4yOJ+uIRcwuK8QWxZzOidgwmNMpUe6Vq1wtA3YRco3dA/GZasVg8u7USoPxtQwC5qtlJC5ijjk/J/IEy1nkqzUT23buyCXTA1jT10nnEvHHSlQ0tRODLPNLvdxvhTHyy2KVqxMNLNzKiGesSPzO/Qb70EXPBXKiMoac3/NEvr177tCx6dsx2rEFNR0CBBYlEI/8z3+hj8TUm0bj/01zOzHWOAn7nEUNWbstFhiMhNo02uLlbMbQHaVvxjoYBYF+CaSNovfGzs0Jf8VzRac7nRMxqah7+1uPPgFpwm57VzzvlyyjcusHwI+XKPfKlVcjxJaXKU7u57Bm5Oe4Z8Tpcv7xra5/i78YH77/4Uhs7OI8mpOin+Xu1/ULa2tlqHRMm6nwqM9yzFEmn6Mv82vOpYw/pirBeOb27c9/0XNyADe6WNfb+LUc5OwWtuWO3bzZ9lnfcU6adeweTc9eyGHc+A+cvBDTPakgzbSTn2n5ypXt5DT7OSmB0X6uu1kTIDCxQDz1v/xLdmwaPfO6t0zcytpaZbuoB4xOYdjPKhEqrWwj7aeDWU8t4Cj91HQqEiAwtcAUx+dTX/EC+qk7rfydrYdPGh1PFzsB85H5vCuwDH3mzKHtlFcjApjKRAyujFRG3O3LG4fi42oE3cpLuc1K2C7nf/ZTn0tB1YhARbAyBy5TU6nY0Men5hbKRMRSY8DrwdyNzwgaloGtcivlpHOJseWOop00x2A8sHbff/qPdwzdKrsc5DzByqbaP/rop2MAEd1bH8bGr7BNr+TKgdGIig5drDzTPifK5euzQyfn7ih9J5fVpAgQWIhAbEDI7cauz3jAf/5aM1F5J0BsFz1h6/dE3fyZE2WmdLcFBhc95jsYA007RuOSXwQIECBAoBUCcYK+PCVTf8zx/KIc3KlfqyxZ+TtbeUk6ooQZoUyPyaxsdcwl8zJVYnBRoDyiXsYQc90IgOZ0mSgjoWk/Y7o63XbRCPnFvs78mQccbUZk9hNv+3juOl+qOZdybF/4/27P7aREGbot9XKxQfmyWHl10oHlLmLWpXyKh+aoaC5W9ltGvXMBCQKdF7BjtPNLbIIECMxNIDYglC9LTbHR+q8FqERFY1g/eOVvbgzuysfv/+xJu69MA338/gtP2v38tbVjmXK6rnHccqfbYPAofblj9OTn/s4Td0vcOVF9/dfGXSTdL4edL7ipftDBUfr0J8UnAQLLEYhD9OVRm4k6jecXTVR+sPAJF/61tTWn6Qdh1nMi+DW4Y3R8dKzcKzc0dhZP7azszSz7zgf2y8wyAFrmRzqiimkPY3zmDYz5hHi5zbNSsf7XdPJ9aPmacykfVDpmLtFFjkUuBznrRVaYPCoAAEAASURBVNfre28ve1E6IJ8lK7MuFzcCspWnKFQK9/lruXx9dujk3O0Y7eSymhQBAosSqDzRP0IScTS+/DfhoR1HgU9e8mOV+MWFN/xERLLu/9j68+kP3rL+OstKOgJecrJMfzSG3kKRWe4YHX/njLqj5IdA5c9Uq03iNojx1/8VR+nrF1aSAAECMwqc8qVPT93CRlhz6trrFfODL2dqpaOVy92IOZ2DdzHpnDkUIF8t40QBnndlph2aKbKZWhgaSy2rVzoqQ3hpo2jsfMwbJ8ttnpWKg1/jL+E33fhn8Vn563rZRdQqBzPFXAb7HTrl5SDH1GLK5ZDSjOJ0fzxmtNx4W5ZJ6aHDHizWz5y0fLHRuJ/T7/asBUa7vb5mR4DAnAXi72TxjtSy0Qh3xotWYzfo/ne/p/L/lPE1MuNSFCirRDqd8PrsQ5ftfvGTI7oRnxGvic9cTE6vNNI9kD7zPVBJlDtGH939g8knPsu60v0RiJ8Y8a8FlX9uqdwzvhIgQGCFAnHIZuret+/eNnVdFTcVKLc6VuKDqe5gdKyMG+arZZgv/tIb2xJH/X78ga8PjqqsPng1xzHTRtF4X1AqU/nL9mDFSk5MMF4iFJ/xO7cZZSrxwXIwU8yl0ml8zeHjSJd6uWRmzDllsXx1uoHFlH//9TfEfCtc8R8yEbCuzL3stxx2HphEKZAD9GWmdNsFBEbbvoLGT4DAsgXiH12/84ZfrvQa4Yk4L/YXr7gidoZGJDR+RyK+RuZg5CKioime9fxTPxjtfOb270/RnIh0SPQTISJcn/nKvnRTPbz21Mrdlb6WO0a3rd0dt0pUic+0qTbtqI3PKCyn8xrpB0WsdTyGb+jdMjTTUfqhLDIJEFiQwODff+p3NJfQw0Q/IeuPreEly2Pm5fMly2HHX2Xz1xwUy4m4NBgdizet5yqDV+NSPJczNnKO+j3+pHluuUzkiG3cDBHIy2Me9WTSsu6odG4zCpQbWivla84lv729Uj19zZHN+JqDm0tGjvnGW+kjQhpvny+DwpW55+HFUMthD51XnzPL5euzQyfnLjDayWU1KQIEFiuwa++FF9/0vlF/4Y7/Ehj1HwNRJU7QR1Q07faKHaMx0Bec8+GU2HnBFyX6g5C2fEZwM0XJX/D0O1NAM4KeQ2/f8qmjETyN2F8E1uPzy2c/J8JkcUeldiS6pxE3Sfy5iLsiFjcSKYaewuJDb5VRmY7Sj5KRT4BA0wTKIM7UYxv1l7GpG2xFxTJal1+zXo68slswB8VyIgrnp3nmiuWLhobGzgar5LqjEpuGmfJuxzKQN0WMtRxAeWtVKHKxKeYy2NQznnIs+pxbXj5y6jrQKhtmR+EPjXrn8fc8US5fzym6N32B0e6tqRkRILAkgfOue8uo2OjQEcRG0Wf840siahNXUwwr7RiNrxEUi/yIiqacFPOKfImuIsRyp/BWXvqIdaZQaUx56K/B99SnQGoKj0bd1KBE6HUMIW6SmFSsb0RF42dC+hqfke7nf/YP/QMikwCBLgnM8nzS5JBjal1iqTOXclNk7LWMZ0qWtSJ+VwYZyyhhWSwqlrtNI13WKmNnuYVKlWgtuo6HWqbfZeM5vWmYaXBzaO4uNzJpInzyvVFOKtrJjdecS0ldiaWGc97iGi0PjUJWepkXcrSTzCtLH8MoI9qj8Csmk/IqT6ClAie96U1vaunQDZsAgV4JfOCGDx84cDBN+Qcu+96nnT3kn2GXD/KXH/roo3cfqNnvrou/65Rztp54yp5UPhJfP+XCb1s7FIkIim09ZcdZux5KV9PXKCbRVYRY6FjufANEOu6EfCOdePK353RObD355EjHZ/x+9OuPRvknPflz0c6RR/bffM9FZ37rY3u2fj5i69FUpCU6gBBT2PvUbWl9Y3EjHcsdIfVY7kjH7tH4efLIFx+t/yNo39+7+ORThz+oId9mKfGNw9945LFvVDJ9JUCAwEQCh2740ETljyv82JFvf/n/fFzOhF/u/4N/f/CTf5ErfW3vc3O684mTd289bd/uNM0nbd/6nB88P//O+XE14oOf+O0/KTXKimc/e+/TXvC0PRecdd7LnvMdFz6jLHbb7Xce+ov7Us7+P98fjad0VIkWIifCgs99xXdH4C/lx+n+//Gnd6T00154zo5v35HSt/0/t6bEqM+Hv3gwN57K/PE1/3lU4TJ/fC9fO/mbMdRUPub4pY+tn8mIX5POJarsPvcpaTrJOYud+Z1H/7a/0fDaf//Xn0mJ+Fw0ckZLQ0orEv2uL8olz8nDqOCXo8p3S8wuL1yu2OdEBLjPv+Dc+IMTtn126OTcTzhy5EgnJ2ZSBAh0TODKy6++9dajf6m69u1Xx/sumzDBeJZo/R1bz/vXL4gdXnWGHbGPeLvOqCPVdVpQpnUCsejp9ohoeHlqfnAiaetovj2ifEpLhFXnESr3w5d+46b6P4LOuPaamjtB4i/99z9yLFJf6dRXAgQI1BG4+/LX1Sk2qkw8s2jUpTr55d/Q4nzP50787jq1OlNmz6ufvelflWODZLnnMc09thnmgGapEYXz/4NUKsYWxe+97EVl4TId/4cSj7nMOX/1Z78vb6V833s+OmrfYi5fbnGt9JvLDCbKXuIJm4MFymnG8zfz8fyJ5pKaje2Zg+1HTkw8S1bGUPZe1p0X8vhZRI/llPMABicSEe14aGwuIBECg0pYuiFwYjemYRYECBBovkA6+FxnnBEgy2GvOuWV6YBADppvuvSVsGkunxIRYK3kBI6cziDERGKJO3DDmwIBAgTGC+x/93vGFxhzNQJM5T8a9S0qGjL5peRjlCLQGRG0SoEIYoZemRkBvvERyYgqphegl7UiHRUjAFdGRSOzfATqplHRKF+e/h4M41Z6zF/LXnJmmShHVT4+daK5pAYH554mHm9wyj1WjtIvGnnULGI8sZQx4BwIziOMRJpIDD5nbsqYS0oQaLuAHaNtX0HjJ9AXgQ7sGI3XLvVltcxzNoEtu84b38BjD942voCrHRbIu2JjjhPtGP3OG345XhxXRyb+u8iO0TpQyhAgMEZgoh2j8Rz2aOrBG28pA5rf9YF35D13YzqqXIqfYH/xiivKzK++8DXl1x6mIzAXUcj0GdPPu97CqgwRVmRy+Ur++K+VvsYX3vRq3lw5fqibtjNdgUnnUoqVm3Yj5jhqAGWVUWUG8yca2ESFB/uSkwVC8sde/ZL8VaJLAnaMdmk1zYUAgUYLxDMBGz0+g2uPQITG2jNYI52zQN7/O2m73ko/qZjyBAgsTWDPa14dv/e98aqyxzvffE2Ew8qcOulDH/lQWUxUNDTS3sy8QzM2csYp6fh9+P6HBzeNZr1cPufUSVT6qlNlVJkYW46MD76IaVStOeZPOpdSrHxF1ZghlVXGFKtcmmhgExWudORrKTDdYpUtSDdWYEtjR2ZgBAgQIECghwIR9Dy1h9M2ZQIECBDovUBEwWLr6O1vfW+SWN89+uZrIlqao2ObCpWPFt20cG8LxEnqoYepmwZSOeTetOGNH088BODcJ0pMty30idr+t1kC8a819X8iNWvoRjNawI7R0TauECBAYK4Cu1989O2cc21VY10TmHo/YNcgzGfeAqfte2jeTWqPAAECcxaIfaPxrqTcaMRGY99o7G3MOaMSEa0YjIraLjqKqxX55eueWjHgcpDljlE7DUuZ9qYjwB2DFxVt7wqOGbnA6BgclwgQIDBPAUfp56nZ77YET/u9/lPO3lH6KeFUI0BguQKVA/URG/3KlT8bQc9R4dEIicabmuK5ouXzSWPIoqLLXbc59xbvo88t1n/tUq6y8sRdB+5b+RgMYL4CAtzz9WxUa47SN2o5DIYAAQIE+i5Q5yh9vJ3J+5f6fqOYPwECBDoqEBuynn792x647roy0Bnpg1f+7AMbm0l3XXpBnnrlfU05X1Q0U7Q0EcHQ//qVOyIUtX4OvYVziIcVvO/w4faOv4XkhkxgegGB0ent1CRAgMBEAjsv+OLa2vMnqqJwDwU2doPuHD9xUdHxPq4OFXCUfiiLTAIEGihw5nlnbo8XMb35mjI2GuNMXyuZg+MXFR00aWNO2qDX3m16bR9/G++ZhY45HaVfaBcaX5VAG//1ZVVW+iVAgMBMAgdveeZM9VUm8ISAt9I/IeF/JxBwlH4CLEUJEFi1QOwbPe+6t8S7mCYaSDyfVFR0IjGFCRCoKZAi3fHsjprlFWuRgB2jLVosQyVAgAABAusCp+7a+diDd7MgQIAAAQLdFoh3Me146csPfeRDo47M5+lHSPRzJ373V/N3CQIECCxAwMuXFoC6+iYFRle/BkZAgEBPBLyVvicLPeM06zxj1FH6GZH7Wd1R+n6uu1kTaLtAhCF2bIRHT7v/4SM3/3FESNOM4kB9en99xEMjR0i07Qtt/AQaLuAofcMXaJbhCYzOoqcuAQIEJhCIt9KLjU7g1deidZ4x6uVLfb07Zpp3HKXftXemFlQmQIDACgW279524BkXfe6mk46O4YX2h65wNXRNoHcC60fpX927Wfdkwp4x2pOFNk0CBAgQ6I7AQw8e7M5kzIQAAQIECIwViIf6Ob46VshFAgQIEJheQGB0ejs1CRAgMJHAxlvpJ6qhcB8F6rxYaWNXaR9xzHkWAUfpZ9FTlwCBFQpEVNQLT1bor2sCBEIgHaX3s6iTN4PAaCeX1aQIEGiigLfSN3FVmjemOkHPOErfvIEbUdMFvJW+6StkfAQIjBCwY3QEjGwCBJYnkN5Kb/f68sSX2JPA6BKxdUWAAAECBOYh4OVL81DUBgECBAi0Q8CO0Xask1ESIECgnQICo+1cN6MmQKCFAt681MJFa+iQ6xy3b+jQDWt1Ao7Sr85ezwQIzCRgx+hMfCoTIDAPAW+ln4diQ9sQGG3owhgWAQLdE4i30ndvUmY0d4E6Qc9Td+2ce78a7LyAo/SdX2ITJNBVATtGu7qy5kWgRQLpKH2LBmyo9QUERutbKUmAAAECBBYuUOcZo47SL3wZdECAAAECBAgQIEDgeAEvXzreoyPftnRkHqZBgACBxgtsvJX++Y0fpgG2QCBeviQ22oJ1atgQV36U/g/ff2PDSAxnqQI/9KOXLrU/nXVIIB2lv+P2u0/as+35r72wQzMzFQIEWiCwbeeOR0/51u5TdsRYvXypBQs2+RAFRic3U4MAAQJTCcRb6Xe/eKqaKhE4XuChBw9uOz7HNwKbCsRR+l17Ny21wALvvP79jx46tMAONN1gga07dgiMNnh9mj60dJQ+ohKH73/44bW1CFI8fHD9h0nESR/f/7BPAgQILEggfs7ED5mm/4g0vpkFBEZnJtQAAQIECBCYn0A8Y/TUzVqrc9x+szZcJ7ACgYiOraBXXRIg0HKBvGN07ZS1tYNrERVNsdEUsBj8TNPN+SliEpllgMNVGiHg3sh/LmiUPzfKdNwka4+kDJ+dFfCM0c4urYkRINA0AW+lb9qKNHM8dYKecZS+mYM3qiYLrPAoffmf300mMjYCBJopkHeMbn3kxAiJpmOtMdT1gMXGBtL0GfkpkX7m5Ku+llY0aPijsekPivhjUvl5ElW8BS4QuvrLjtGurqx5ESDQOIF4K73YaONWpZ0D8oDRdq7bike9wqP08d9g6T/FV0ygewIE2i8QT/pbj1ms7ViLA/X717eO5jnlnaQpM11NmVHG12Ch4d7wZ6HOj4J1pY2d6fEDJ37aeMBo/jHb1YQdo11dWfMiQIAAgc4KxHH7zs7NxLolkOKhoqLdWlWzIbACgfzCk7RpNOIUMYi08W09crHxapTyM18dWsZVVvkeqNw/Od+dU/4p65tGviviB07cEvErHnAcn15Jv4HRwQ+B0Q4uqikRINBMgY230jdzaEbVIIE6Qc9Td+1s0IgNpSUCKzlKn/5TKoRyoiVahrkQASHyhbD2qdHtu7dFwCI+I1oRifxZ5kgnGQ4c3APT3QP5Z0t6DX18jURgxs/a/C80ffq524u5Okrfi2U2SQIEmiDgrfRNWIXmj2HjGaObxD0dpW/+OjZwhMs/Sh9RsIiH2jTawJthVUMSH1+VfJf6Te+mjyDF9pjVKWvp8/5HDu3evUOag3vAPTD7PZBaiM/YJXr0R02XfoaayzABO0aHqcgjQIAAAQINFvDypQYvjqEdE8hRsJw4dk2qfwK2i/ZvzRc147R1K1pPh1sjkTZ2pf6kObgH3APT3QP5R0oCTD9qKpnpks+OCQiMdmxBTYcAgeYKePNSc9embSN76MGDbRuy8a5eYCVH6WPaedPo6gmMYKUC4uMr5e9m5zlC2s3pmRUBAssVGPojZWjmcselt4ULCIwunFgHBAgQSALxVnoUBDYVqPOM0Y3j9pu2pACB4wTiKP1x3xf/JR+ij4jY/scOL75DPTRawI7RRi9PGwbn6X5tWCVjJECAQPsEBEbbt2ZGTIAAAQIdFqgT9HSUvsM3QJemlvaKps89W9af2eUXAQIEphbwPuip6VQkQIAAgTECAqNjcFwiQIDAPAW8lX6emv1uy8uX+r3+U85+JUfpU1Q0RmzH6JTL1qFqcTN0aDamsgIBO0ZXgK5LAgQI9EBAYLQHi2yKBAg0QyDeSt+MgRhFowXqHKWvU6bRkzS4VQgs/yh9nmVExOwYzRp9TjhN3+fVn33udozObqgFAgQIEBgUEBgdNJFDgAABAgRWJlDnKP2pu3aubHw6JjCJQA6E2TE6CVs3y8bNYNNoN5d2WbOyY3RZ0vohQIBAvwS29Gu6ZkuAAIHVCXgr/ersu9azo/RdW9GlzGdVR+ljchERs2N0KYvc6E5ERRu9PG0YnB2jbVglYyRAgED7BOwYbd+aGTEBAi0V8Fb6li5cA4ft5UsNXJTmD2n5R+nTdtG0T9CO0ebfIYseYbofFt2L9jssYMdohxfX1AgQILBCAYHRFeLrmgABAgQIVAXqPD/0oQcPVqv5TqB5ArFDMEVF49OO0eatjxERaJmAHaMtWzDDJUCAQEsEBEZbslCGSYBA+wW8lb79a7iMGdR5xmidMssYqz5aJbCqo/R33XkgIqR2jLbqZlnIYB2lXwhrnxq1Y7RPq22uBJol4OdPs9Zj3qMRGJ23qPYIECAwQsBb6UfAyJ5YwFH6iclUWFtb/lH6pL533+l2jLoBk4DT9O6EWQTsGJ1FT10CBGYR8PNnFr3m1xUYbf4aGSEBAgQIEDhOwMuXjuPwpakCKQoWn3aMNnWJljqudCcstUuddUvAjq1urafZECBAoCkCAqNNWQnjIECg8wLeSt/5JZ7LBOs8Y7ROmbkMRiNdElj+UXrPGO3S/TP7XByln92w5y3YsdXzG8D0CRAgsCABgdEFwWqWAAECVYEv/cZN1SzfCQwI1Hl+6Km7dg7Uk0FgE4GVHKVPsdEYmWeMbrI8PbjsHH0PFnmxU7RjdLG+WidAgEBfBQRG+7ry5k2AwDwEdl16wTya0QaByQQcpZ/MS+lVC0R41FvpV70I+ifQegE7Rlu/hCZAgACBRgoIjDZyWQyKAIEuChz8zK33f+xrXZyZOS1bwMuXli3eif6Wf5Q+2PImQTtGO3ETmQSBVQrYMbpKfX0TIECguwJbujs1MyNAgMDCBR55xkVra++t383tb33v7hf/RP3ySvZQIJ4feupm037owYPbNivjOoGKQByl37W3krfwr+mxkik8ev75Zy+8Px00WCCC43vX/Ohq8Ao1fmh2jDZ+iQyQAAECrRQQGG3lshk0AQINETj93DPunXAoN7/y35zz+ld5EdOEbD0qvvGM0U0eIVrnOaQ9IjPVpgqkt5DnTaOX/cjLzty+/Z7Dh9NnjFqiqwjlQkc6pnnSaSc39T41rtYIxI5RsdHWrJaBEiBAoD0CjtK3Z62MlACB5gnE39F3vuD8SccV+0bjRUxxrD6drI/Px+//rHRvHSoTr3M7OUpfR0mZisDyj9Lnt5DnhKhoCMS6dD4inBc6z/TxB75euSF9JTCpgKjopGLKEyAwLwGP8piXZDPbOeHIkSPNHJlRESBAoBS48vKrb731jpRz7duvvuTS55VXV5je/+73RKBzhQPQdYcFIuyeXvB1xg+/sJymly+VGn1Oxz+xxMOLawqcce015178zDqFI/pw/yOH6pSsUybtGI1j1BEaq8TLKvsKXe2GQNwVMZH4TOt71r6nxNKnHaN7951e555RphsCd1/+uvoTufim99UpLDZaR0kZAgQWISA2ugjVhrRpx2hDFsIwCBBoq8COl768rUM37sYLRMwrwu7x+0+//3/7/C9cH48WTUOO55A2fuwGSOCoQN4uGt8jRpZjf9I5btgxk7TwaX3j86t33hc5dowe/fPgf2YQEBWdAU9VAgQIEBgpIDA6ksYFAgQI1BGY7jR9nZaVIVAKRJD0v7/y18rwaHlVmsCmAss/Sp+fLprHFtGxiAbmx01KJ5kuOcSMYn1jRrHWKSoan5GTFz3fDBIEJhWwXWtSMeUJECBAoI6AwGgdJWUIECAwTmDfG68ad9k1AvMTSOHRr3/s8/NrUkt9EYi30i95qnmv6LHEaSenQ9YpZBbBsthOGOkYmPwOOKRgaFrNWNz8NRJLvvd010kBO0Y7uawmRYAAgZULeMboypfAAAgQqCXQ2GeMptF70mitVVRorgIX3vATc21PY+0TaMszRiMwGrtH4zGjo4gjcDZ0R6H8JNYWhxhtZag58J0m4hmjo/4IdDLfM0Y7uawmRaC3Ajatd3jp7Rjt8OKaGgECyxPY85pXT/F6+uWNT09dFLj5lf+mi9Myp0UJLP8ofZpJ2i6ao6IROEv5ORFfy6io/Bb5lIuV0uVSxkTSNtg0I58EZhSwY3RGQNUJECBAYKiAwOhQFpkECBCYWOC0103w9tWJW1eBwDABsdFhKvKGCyz/KH05jj1btqevOXCWE2VwLcrIr0A12ScvVrlwka6MOc3IJ4EZBWzXmhFQdQIECBAYKiAwOpRFJgECBCYWOPO8M8+49pqJq6lAYDYBsdHZ/NRekkB+zOhgf2VwrbwqP2m0xaHO2pVlpAlMKmDH6KRiyhMgQIBAHQGB0TpKyhAgQKCWwLkXP/Oc17+qVlGFCMxPIB40Ob/GtNRZgVUdpU+gg2+o7yy0iREgsBgBO0YX46pVAgQ2F/DzZ3OjNpfY0ubBGzsBAgQaJxAPG33kGRfd+wbvqW/c0nR4QPGq+i/9xtoz/vElHZ6jqc0uEEfpd+2dvRktEJhSID9OYaL6f/j+Gycqr/DcBb77WWef/dynzb3ZKRq0Y3QKNFUIEJiLQPz8ERudi2QzGxEYbea6GBUBAi0WiH2jp93wy/t/4/0RrmrxNAy9VQIbN5vAaKvWrGeDXT9Kf+fIt9L3DKOn040XcO1d2zbp5N95/fsfPXRo0lrKz0tg644df+fKH21IYDSiEmKj81pZ7RAgQIBAFnCUPlNIECBAYG4Cu/ZeuO+NVzlWPzdQDdUQcKC+BlKvi7TlKP2o9/bIT7fvShxGdVr+iapTpixfPx2xufgd5X0uTSCZp+72nPWU+ou10JKiogvl1TgBAgR6K2DHaG+X3sQJEFisQOxr2PbDL9z94idHuMrW0cVaa31DIG6z+z92QdxyPAgMFWjaUfqIow19rdDQzJiR/LSsK3EY7HRw+QbLDL0P62fGc2nLd3YtLSYYI9RX/WVaZsn4m9U9t93z8EE7iJep3rW+tu3csX33xFvXu6ZgPgQIHC8gMHq8h28ECBCYt8DGkx8vER6dt6v2hgg8eOMtu1/sQP0QGVkrFxg8Sj/3ONrK59irAWy6fIOR00l94p7xzq5J0RZRfv9X71tEs1O0GTtGIyr62XfdPEVdVQgkgdP/xtnPf9FzaBAgQKAUEBgtNaQJECCwKIEUHo3W7//Y1yJ6tahutNt+gVn2F3vSaPvXf4EzaPhR+qFxtKGZYSQ/3SiLdpjldtw0cjqm8bRXVFR0DNEyLzXnKP0yZ62vrgrsPb0pj4boqrB5EWijgMBoG1fNmAkQaLFAnHS2p6/F67eMoV+yZdd59/7Bn0YAfYogaUTenaZfxiq1sI+mHaWvEA6Now3NjIryk95CHUZFXSsLV/9r/bfSpxP0dozWt11oyebsGF3oNDXeE4G7Dtx3+rln9GSypkmAQE0BL1+qCaUYAQIECBBYnsAZP/zCZ/+zK6d4f5f9yMtbJD1NIpBCXZPUUHbFAoNR1wiVzjKmeCt9neppo2h82jFah2sJZewYXQKyLggQIEBghQICoyvE1zUBAgQIEBgnEOHRSWOjU2wyHTcC1zok0PCj9B2S7uxUBkOl5VRnDJvmpnIMPSfyJYmVCNgxuhJ2nRIg0CiBePlbo8ZjMPMVEBidr6fWCBAgQIDATAIPrz21rB+x0Z0vOL/MkSYwnUAcpZ+uoloEhgpUIqHjw6ZDWxifGTtGa24yHd+OqzMKNGHHaLx2KWZx/yPeRz/jYqpOgMCUAumn0JSVVWu8gMBo45fIAAkQIECgTwLb1u6uTHfPP/7RSo6vBFonMGr3XyW4luY1NHP8pVFV5E/nVucGGxMJHcVep9lcJu6Z+o8lzbUk5i7QhB2jsVcrohK7T9kx99lpkAABAgQICIy6BwgQIECAQKMFTt21c6LxxfuXJiqvcE8EmnmUfmhwrZJZRtkql/LayU8UMzqU1Nl2isSoYdRsKj9d1I7RmmILLdaQHaMRG7VjdKEL3avGD9//cK/ma7IECIwXEBgd7+MqAQIECBBYvYDT9Ktfg/aPoL1H6UdF2UZF8eSnu3VSh6g1KfVEfyzqb/+MvaLxO8Kj9atMNBKFJxKwY3QiLoVbIbB997ZWjNMgCRBYjoDA6HKc9UKAAAECBGoJVJ4xWqvO8YV2XvDF4zN8I7B6gVFH6WcZ2agonvykOqnDmLUY1dSYKoOXam7/TNtF4zPumZpVBvuSM0cBO0bniKkpAgQIEGiggMBoAxfFkAgQIECgvwKDzxid1OLgLc+ctIryfRBo5lH6LD9qe2MuILFkgVErMip/XsNLe0XtGJ2X5+zt2DE6u6EWCBAgQKDJAgKjTV4dYyNAgAABAgQIzEegUUfpB4Nrc9mTOB8prWwIjFqRSv7gUs7ul6Ki0Y4do7Njzt6CHaOzG2qhaQKeMdq0FTEeAqsVEBhdrb/eCRAgQIDAnAV2v/jJc25RcwRmFohQV9lGJbhWXsrpRUTccuMSpcAs1KOWcpY209jinvGM0XKZVpW2Y3RV8vpdnIBnjC7OVssE2iggMNrGVTNmAgQIEOiswOzPGPVW+s7eHLNNrOFH6QcnNyriNlgyckaF4eQnrlEO6epE1EP9B3uZpU1vpR+DvPxLdowu31yPBAg0TWDHGbYdNG1N5jkegdF5amqLAAECBAjMKDD7M0ZnHIDqXRVo1FH66ZDL6F6ZjtZGheHkJ+pRDtMtxKha43upv/0z9oqm0/T1q4wakvzZBewYnd1QCwQItF3g0L1fa/sUjH+MgMDoGByXCBAgQIBA+wS8lb59a9aDEVeO0k834zLuVqana63PtSph5U0pJi0/tMGaDwz1VvqheivMtGN0hfi6XpCAZ4wuCFazBFoqsKWl4zZsAgQIEJiXwOP3f/axv7y5bO3Io//lhK3fk3N8XZBGFi4TW599Zfl1inS8lX73i6eop0rHBVpxlD4CcLNHPEc1Ij/f4psiV6wGy1cK5JZnT6S9onaMzi45rxYatWP0wNrD85qXdvos4BmjfV59cycwKCAwOmgihwABAv0SiKhohD4rc67k+Fr6zFGjbDalH7//wi27zhvMl0NgRoE4Sr9r74xtzLn6YHBtMAA3RZejGpFfH3OUVW5h0wK55BSJiIredeeBvftOj88pqqsyX4Hm7Bi94/a75zs1rREgQIAAgRBwlN5tQIAAgb4LbPn2C/tO0K35eyt9t9azI7MZepS+TnAtgqcdIWj8NBpFHVHROFPvGaNNuGsatWO0CSDGQIAAAQIdExAY7diCmg4BAgQmFqico5+4vgoNE/BW+oYtSFOG04qj9INYdYKng7XkTCEwNfVgRHUwp/54PGO0vtVySjZnx+j9jxxazpT10nkBzxjt/BKbIIGJBARGJ+JSmAABAh0UsGO0g4tqSgQGBDrwVvqBOR3LmCUSd6yVrqcqSpWvU89+MKI6mBON19z+6RmjUy/EgiraMbogWM2uUMAzRleIr2sCDRTwjNEGLoohESBAYHkCg29eWl7fehomcNLu5w/LniBv4630szYyQX+KEqghsH6U/s7DNQqOKxKBvBxxK9NRJ+eX9Stl8qW+5eeJV5QqX3OxMlGxqnwtS26ajrfS713btmmxKJBio5GIKueff3adKsosTqA5O0Y9Y3Rxq6xlAgQI9FlAYLTPq2/uBAgQWIswnKP0jboPIlQ948uXvJW+UQvanME0/Ch9GXEr0yVgGcgr02WZMj2qTK/yR2GWUGPSFavK1zEVZ78U4dE9+9d+6ud+/Kt33hetnbl9+z2HD6fP/FUiTOaOkKmj5WWueHQ36teOM5586N6v7T5lh7fSjyKST4DAQgXip9BC29f4agUcpV+tv94JECCwYgHPo1zxAuiewLIEmnaUPgJ25dTL+EuZLsvMmK70uGlrbS+fJjgF5qQT31Ry0gLpMaNRK3aMpro5Hppio5EpsTiEHICOm2flN0O6ASIqGlGJ/IzRb136lJSfE/FVmsmm90Au4Bmj6W7xWV8gfgrVL6xk6wROOHLkSOsGbcAECPRQ4MrLr7711jvSxK99+9WXXPq85iN86/CXHnvwtuaP89HPX3/k0f/S/HH2ZITftvdntj7j8spkP/8L1x/8zK2VzFFfL7zhJ0Zdkt8xgS/9xk31b4wzrr3m3IufWUcg/vafAxB1ytcsc9edB2qWXGaxiPtMFDpse/mF2m6KE++arz+AFB6N2GjsGM17GHPMTs4SBNJixR+QiRYuL/Hdl78upzdNXHzT+8aXSVGJA1++tywWt0d+dq10kuEw6FDeM5E+/dwzKjm+EqgjYNNoHaWWlrFjtKULZ9gECBCYg0Cc2o5WvHxpDpRNasIu4CatRoPG0vCj9KOkJtqwNlHh1ONEUdGo0vbyg85ToKVGBitWcAYLDPY+NCfvGF1/NG1xiD4VLnuRXoRJUo3PCEOXwkMXazmZ5Y7RCPxFp3cdWH/AQrrHUk4aScqX5lC5B8qbJF3ySYAAgSwgMJopJAgQINA7gXjAaATRPGO0dwtvwr0UaNpR+pqLMFFcZqLCNQfQxmLjI5KVq1OjbVqxUiDv7NuUNMVDo1iOkMbuyGgt4nRn7XtKbCCNz7gqvSCHJBz3SWp/0/VaQoH8jNHoK26kCHLtPX39HkifaQDpxo6ciAmmmy3dgZGOnFRSmT74pPuhvE/ihkm3RFzatnNHKuCTAAECWUBgNFNIECBAoI8Cu1/8ZDtGG7Xwc3orfaPmZDAE1t8zPneFSoBvsP1NC8xeZdIuFl0+zagSkaxMc/zVSuH0ddJhD21k0h1bcc/k2ybGHGNIcboIkkb7ESSNzxQbzVcjoic9o0lyjs8kOXQpV5JZHmLNQa50U6WvKfSZY6YxyJRf5ihTanTM51nfcU66H/Iq5wmmRLpvHz54aCU3sE4JEGiygGeMNnl1jI0AgWMCnjF6zGJOqdgrGlHROE0fO0Y9Y3ROqHNoZvZnjJ7z+lfFys5hKJpovMBEzxj9zht+edfeC+vMaRHPGI2tf+k/WesMYFSZFKwZdVX+KIHmuE30qMq4ZyIwWrlz8nbRmGxz5jVKvqX5g7ATLVye9SKeMRrvzBHYysISkwrEj5Stj5y4fff8/6Fu0pEo30aB8p9n2jh+Yx4jYMfoGByXCBAg0GWBFDv77EOX2THa5WU2NwJPCDTwKH3EX54Y3fr/Vr6Wl1I6trANZk6Rs2lHU7S58ipjJlXfbUwjy59g2i6a4ul5YOXh7jSvdCkXqCQqX2MWyqelHOqQMuvfMMu8K4aGJPKe4nIkZaZ0kum8QznBmHLla0KIQ/T56RzlDSNNgAABgVH3AAECBHot8PxTP+gZox27A2wX7diCdmM6Q/8ztRJ/Kb/meNYipl92VKf9cjBlelTdskyZnlf51E6l5UknNXQwZSOV9nP5Sv74r7nW1Il0BrYcWKWpdCkXqCQqX6Ou8glwqEPmijKVla2wr/BrhLfSYyJTnCunY0gpHVsCpUOgVw4R8SzvhHLukZ8u5bsiEn4RIECgFHCUvtSQJkCguQKO0i9ibeIcfTzRMj6/edfbF9G+NqcQOPm5v7Nl13mVip//hesPfubWSuaor47Sj5LpXn7fjtKPWcEI4pQxncGSYwqMuTTYzgpz5j7OuTe4Kc50J7LvuvPApi0rsFCB6RZuvkfpY4LxlI84Sr/QmWq8DwKO0vdhlec+x6Gb1ufeiwZXJWDH6Krk9UuAAIHVC3gr/erXYGAEEaceyJNBYA4CDTxKP4dZPdFEJSoaIb8nrhz930qB8uqYS2WxlafnPs65NzieqHz/yfiS5VVHX0uNnqcFJnp+A5g+gRUKxD/MrLB3XS9aQGB00cLaJ0CAQKMF4ti1Z4w2eoUmH9zOC744eSU1CCxWYOhR+qm7HIx7VpqaJeS3aeO5r7Jkmc4FKomyTJmuFCu/1ixWVknpoRWHZg7WXVDO7G/fygNb7UTyMCSWLBCBCXv9lmyuOwIECPRBQGC0D6tsjgQIEBgiEG+lj9z0Vvohl2W1VuDgLc9s7dgNfIECp+17aIGtb9b0jPv+KoGwWeKem4306DMoNy0WBcphlOlRdcsyZXpU+UoXY4oNXhra/tDMwbrzyqms2nTNDg2pL3ki0428M7Wm2+q7iOnHjlFH6RcBq00CBAj0XEBgtOc3gOkTINBfAW+l7+/am3kvBZp2lH6iqJlA2Jh7diLJUe2MaWTMpVGtpfy5rNqkIfVRo5WfFmWUw5ilnONW3zG91Llkx2gdJWUIECBAYFIBgdFJxZQnQIBApwS8lb5Ty7kxGW+l796admBGg/v+RkXNpgjcTO1Ts6+axaYexowVR0lO1OyYRoZeGjQZzJloAFMXrvQ7dLTRuPwkPMqhwjj1cqhIgAABAgRaJyAw2rolM2ACBAjMTSC9ld4zRucGOo+G4o1YMzaTHpIwYyOqd0+gyUfpy6DMqMDNqBUp61bKVC5Vvkbhmn3VLFb2PthXeXUwXZYv0+NLDl4dmjO+wemqDJoM5gxtedLMwZB6pYXx/U46976Vz5jjGXOx1SYcpV+tv94JECDQVYEtXZ2YeREgQIDApgLprfTb99y8aUkFliYQ0eotu85bWnc66o9AHKXftbeh0x0alIkQ1dD8yhzKMpUq5aWoVflaaSe+VqoPFkg5dYqVfU1avqw7OIbxV4fOYlSVMQMbVWVwPPVzpntU5aRH6SvjGTqRSSfe4fIVroZ/TUfpPWa04cvU3uHFrfXwwUPtHb+RL1Rg284d8W8zC+1C4ysUEBhdIb6uCRAgsHqBOHb9+P0XfvOu/7L6oRjBnAQ23ko/67bTOY1FMwSOCqzv+7vz8EQck4a0ovGhVep3WrN6zWK530nL54o5MSYwl8vkRP3u6pfMjc+SiEdV7l3bNksL86o76cQ7WX6im2pe8jO2E1GJe267Z8ZGVCcwSuATb/v4qEvyCYTAj7z1lRy6KuAofVdX1rwIECAwTiC2Jcblz3xln7fSj2Nq5zVvpW/nui181E0+Sl9/8pOGqOq3PFgyIkeDmWNyFld+mbOeywQnpRjT6dCj9HNsf0zX3b406qYatJ1uq+8i9Lx8aRGq2swC37r0KTktQaAi4PaogHTsqx2jHVvQlk3njtvvvuvOA3nQe/edfvY5T81fJQgQWJxAepBlvHkpEo/9paP0i5PWMoGmCDT5KH1TjI4fx6jIUVkqoki5WE6UBSrpSctXqle+lq1VLo36OkWV3NTgBEe1NlgyNzJpYuhR+qHtjxrMpD32vPygbXO2+tox2vObc9HTP/HG+xbdhfbbK7B+e7y6vcM38k0E7BjdBMjlRQj8yQc/9du/dcPFz/vxv/VD/+gNP/Ob+Xd8jcy4dNONf7aIfrVJgEBFoNxaeMLW70lXJcJhtQiVZZr0q7fSTyqm/BIEBvf9RRirZr/1S9ZsMBebveXBKFJufGhi0vJDG8mZ41sbOrspquTuBhPjWxssv9CcWQYz1GrMaNtefszUmnzJjtEmr46xEei2gB2j3V5fO0a7vb6Nm92XP/nFN//W79566x1jRvbO69//zuvXzj//7Df+w5889+JnjinpEgECMwpsPGD0sxtvpb9wo6n0GUmJlSHM5a30YqMz/tHoZPWmHaWvH8YaVTKCUzUvjSo5qvrgDTCqhcGSs+fMq6/6s8tjrlSZ10hy+1Mkpng6bfQy6cgrE990nC0tPynLpg5LLmDH6JLBe9Ld/Y8c2n3KDi/16slyTz1NO0anpmtFRTtGW7FMHRnk+97z0ct/8lfGR0XzVKNYFI4qOUeCAIFFCKRNo+k0vc8mCKTHvy5irbXZc4E4St98gQjc1B/kmOBU5VL5dUwXYy6VLdQc4ZjWxrcwpq/xbY6/OrTT8VXGjGSwtfFNRfnpHlU59Cj9YO+VnKEjr4yw8rXSQnytFKh8bX75wSkMZRksNji1huTYMdqQhejYMCIqGjN69JRvdWxepkOAQH0BgdH6VkrOJBDH56/59d+dtImoIjY6KZryBCYSiDeYRzTw8P6jr1mMOGlsIM05kZ/SOScaVyZrTOcTwikeXZHc2Lq7zjvRCg4W3ngr/WC2HAKrFBg8Sj90NKMCN0MLVzI3jVul8mO6GHOp0ledr/Vbqzny6HR8m+OvDh3zFFWinaED3rSpeFTl0DFMnTl0GGNaq4yw8nWwYqVA5Wtjy5csm445zaJmscEpLzkndoza1rdk8+51t333tsqk4qaK31sfOdFZ6YqMr6WA26PU6F76pDe96U3dm5UZNVDgV9/4Lw8cOFgZWJyX/8HLXvrdFz4n/f7mNw4Plnngvr/8Ky/8rp27nlyp62vfBD5ww4fz7fEDl33v084+s/kCR775wLe+/pdNHmdsTvzsQ5edddrXtpz4n0/c9tT4XUnE14jWnXzGA4OXco4yk/pEXPWbh87f9vStFe3ID9VobctpF1Rum/s+/NlH7z72qrrK1crXk8/9vlPO2VrJ9LWTAv8/e+8C7NdRnfkeG9myHkjCxpYsCRnZY8Yo5mFiLBxB6pJMcMZlkoEhQYQ7SVwTD5cECFQqxEMmDAl5AFUUDs7gKXxTTjLhEWJIcWGogcqjLmCICcSQgOILgwlClqwoNpKsB7YcnbuO2l5u9Wuv7t177+7en0r1d+/u1atX/7rP8dF3Vvf+7mf3yDfG5p/bfs4a0RsOHz768PFHHs5LjPL+jpw80d8niT5nrnDfBOWrTxs0MBA5DLfaI4btA5GHO9oDBWoyugoEzAE4h1uzZhUbCAtnrj7rwcPHnMaSMJwd267MjoVSfWkVEqAduf0T8l6bf677tSaUMXr2irNOHM/wnUQeGCwbI0D7h3aRPil6VPtqz0fu1utRBgGdwBnfOf70f7tNr0G5JQLIGG1pNcudC2V92ifob7rlxts++LZfeMPL+C89vvO3X29Mgzp+7CN3GJV4BAEQyEKArrOkF9OTK5WraBdUPQl2dhNnTcImlg8RU4m6VKD8UOquGKq83f53jGbZG3DSHoEyj9KTfBaFerTUtvBAdmt4IrH2zMTuyE3hEdmMCwFXbBMojDwcR2IfpY+NhF11FmI9l2bfOUHdwBe8XZ891VcPI6qMjNEoXDAWEqA7RiljFEfphbhgBgJNEoAw2uSyFjep+/beb8T0xl+94eodzzQq6fH5111FgqlRT69jMmrwCAIgkJcAaXNKoSO3SubTa9SBcdXEZqTlrdpwO9vDJsxHSZ82VVJIuUkdge9/xyjevERrgT+lEfAdpQ+rdbZGU9q8OJ7wRNiMC7H23JELnR6S6Tk7dg7HgQ1dCETijNxZ6Qwy4LkKe2eQvkrfZH31Pj9j1uOO0TFpz2csumOUVFE6Sj+fKWOmCQTUUXr6LpTQF13KJ+A+i1R+3IiwLgJfvPOLRsDXvPBKo4YfSTClI/Z2hikbqMJ/e9eSIqP+POvSLaSoUpm+VX3yr75IOqw+4pXbr3zxS3dsuUh0fvBbd37zE5+7S+9ObskDfXY6cYZEHel+1a98Y7fukxxe+wNXbN0uuklw97f3Uc6s3l2FtGHjeYSRfnlOj/gDAskEKD+RlDjS5tY++Zv0MnrSPdeeOsa9/GnXL3vyl6mGDNZe/miBRiGzJ5x7vRLvyEb1hY0C5eNziirhXWCqS5aXLwGngmpV8ig99s8YfeDTD0IbJZL4YxAo7a30RnjOx/4aDYliPieBJjuYKGO7+yQ1vomrYAIzCncceS5Rb6V3Ru6sHHkWgw4XWEoeV2LDxsUW8Fb6Ypem6sAoXfTcc1cfPe6+sqPqqSH4jATUW+nxT++MSItydcbi4mJRASGYJglcv/NGQ+j84K1vDciCJAXeu+fx2/TobiPD+PN3/N3rX/02ndWdf/d+0h9/6U036ZV6+aevf+nPvPKawPcy8vnem99vxKl7oHLAiTMkkll/4123+nwGvKlxlSQaSJglBZk0VrqLwIizyUd9F1FasTPjuLSJnzx6zyMHS7+uyJefSLmNnMmIQk8avDPZD9c4C8sv3mnUf/1Xbjv0pV1Gpe/xotf9JIRRH5zG6u/5nc/LN8YFN73D+J+pjwb9lpGOFvpa0+rpQLTkQG6CfJPQxZ5CFifstqe35O7JHSnyPn2F3enHOV/iMKOzC8KdY3f01RgzNR7tXoaB8Ti+PY3YGYMdVc+aTZvPT/Cwb+dr5L22f/7DncYqV4tkrE5LGIBAgID9/iX6Xx5ljH7uPZ8J9EITCLzk3bP4R/c8FxoZ4/Nc97FnrTIu9VEpK1N/NMqU3UmyF/+V/EOOrjENqKLkn+TF177ut4yB+JGSPUlp9SmYbKacCFPoSajdecOvBXyGvZGo+hMv/qWAKkpRkXMyIMVQGBJPBAUQYAK+/EROYESBWPWEwLTZD9fYBd+K2Ja+GnUk39eKehCYhIBQEUtI7jO6kGYUmKCv1XAS8KA35fXGnp3B+MbiXlRwdtQNAuWEvnpIku4SZTwQYa4mI1Tj0R7FMDAeR7OPpa3b20FWWkP5DVBFK127ksPGpip5dcqJDW+lL2cthogEwugQVOHTJECHvo2qW2/+I9IiKSPSqE9+fMdv3drZl2RE/bQ725OCGdYf2ZIK5CQgsOqWYaFWWd71hV1/+L5P6r1UmYROElXtemeNPCRnd1TOmcCxhQt9GaNzxjLt3PuvCJ3Nn3YKGL1MAqUdpY8Sbgxj41EHHtatwq26n8AQbCb0ZrgyHsmbXcNDcEE4Fts7C5KB7I6+XoGQfF1s5501nZK6cyxnZedYyiC279D2KqoAbee8Yu0Ds6BUX+cQ41fSj8d2rt/4YWDExghgUzW2oANNZ+koPf60SwDCaLtrW9LM7BtFl69eTVokZUSSUknJnhkTHul0OR1Rp79UsBnQoLYaayuY9G4oOpuv/v7px95J3nRXJESSlqrXhMuBkBQHOoZveLDVUoqBQ6KLCOyQnJqv4RaPIGAQWLmQ7ZcThmc8JhPonzGaPDQ6VkdAfo6eplbaW+mjhBvD2HgcYuEyDmG4Mh4peLsmPKOAhhXuGDuQ8pbQK6GLL3L7rfSGpXMsZ6XR0fcY23doe1+cyfXO/ROYRSGpvjRfZIwmLzo6Bggs3TG6YnXAAE0gwAQyqhbsE4USCODlSyWsQvsx0M8x7/zt19v6I81cpWpSvqe6LpNfo5QG5fSrS19GGuh//ZXfJR1T90YvMtIv5TRESQrjzW+4QT+8T+f66XJSeveR7odepvT8haXXPYX/WN4cIT105MjffuHrxo2ZxquWSAbVY6bwfuHUi5vkia7hONE6ZwIkw/VPUZwzwOxzp+VYtu6yPm4P3vHVc3/w6j4e0LdJAudvvWDCeUW9QmfCODuHJlEpICF1do8y8I2lB+CzUQOFW6OCGchhpTEkhJ3QJXb5hPb6/kmIasIuKmMUB58nXIImh6aM0aU7RheQMdbk8mablDpKH3hhSbaR4GgKAhBGp6A+yzHprfFvPHpD4MA7yY6PKo9vWnrHEZ2+//cvf2EUKnohjy5oUl/SNH/97b9Ieam6HxITdZHxGZdu1bMvnS+Lp++AdE2qLoyeEi67b182NFZnSCppVA+JzPSx9OD1MnWhaPnX+Ia0qluiDAIBAlBFA3AmaXJmjK7bcbk8N/CUJYTRSVZv1EHpzUtR403703w4788WdOyaqMmycS4/7NAnKmUfiEb0jcXBdNpIPOjeqByeSIJDw3/soy2px8YQnlFsPGPax8401t43l2KJ0Tex/Xfv94WNehBII7Akta9I64peMyKg3ko/ownPbKr4xcjMFnzS6ZLQScfSKYmyMwrSLklCpXcK0Sn7TmNlQG6dyiBpo7ruqYzpvUbsln7GIoWR/xrSKpsZBYlwSeM6vTlDMg74G5RIh3Xm7ZN/fkWVESEeQUBIwCnDCfvCbAgCWaTqWMlsiInA59AE5Fo5RbL2+7cNHU8f/7agY9eE/ZOU4zSI8uN04qy0x4oayO6eq0YYrT6c0WW4iaRdVRmW1PWJ+MrOGRmzNh5tV4aB8djfnjx0+uwcxTbgmijnTmLsasKCyhidMAAM3SQB3DHa5LJiUiAQRQDCaBQuGPclQJrgbR98m31FptMvvZhIyaNOTdDoYr/4ng3sVz9xliXb+Ap00J6uE6XrO42z7T775Pp79xzQ+xrTIR2W3vhEYeiSrm6PMggkE8giwyWPjo42AadUfc4PPs22DNSQZPbApx8MGKCpdgJ3vez365pC5yt0ek5HLuUYCpH+6HTirOyMVnfrM7Zt7BpfX1+9JFpjFEkX33Cq3nDoM5b/9OXzEKgXxsAejFkbj8pM92kYGI/97cmD0ycH7CzIuzgt9Qk6/ZdWSdkMOEdf2qJUF48tg+KO0eoWcZKA8Vb6SbCPNiiO0o+GGgM9ToDyHOmKTErSJJnvE5+7izRHZwImnTGnPkoTJDn18f6u0nOu8qoGGzefZ/Sw7/RkA5JB6f5QJYM6o2LLzkIgpM6+dEbeuD+UgqG/qlLlwJJ/Z5Jsp3MYgIBOAHeM6jRKKDvvGF2zbm1sbN9+94cO3rHt4v+MM/Wx5Eq3J8mbFjc2SrqNIbZLXvueeX+k4BjKjl3DAQeayMbwYzyyE0khMJDTrWFv29g1HIbRl+sTCoFRbG+ScX0OJX3tEY0a+yi9YaAefTE4jYWVsT6Htldhy6l2WgoDTkv1FUKOMsMdo1G4YOwkQDKooY3ijlEnKFQaBNRRevouNO3FREZUeMxF4AlvectbcvmCHxCIJfCkzededfW2f/eyf3PDq//905/ylA1bNn7ly/9gOzlw4NC555677fKt3LTnO/v/1//8LD9S4Ueve/5TtqzXa7hsGz/riqfTuGxABfoed+t7P/baV/3mp/7irykGGpH+6gZ2mWLWK+1RAiF9Z/f+Oz7zt3p3w5jI0B/Dhu0pQvpLBP7vWz788PcWN2x80tp1T+TWVgsfvf3PeVEMXMVOefHEd09+75+LDU8FhozR0haIpOozz3myHdXRr9370L7TUsttG6OG7O/70F3Hv/nQdz+7h/4uLq7b9/6/xWe9BGgR//F3P3Xozq8ZCy153PymXz571XKJJdk8fPTh4488LDQWmi0eOXHk5AndmFSbM1dIf0NvW9o17DzQxDZZCrEDxdrrQfbpG4VaH5TKvnElPu2+a9asMvx3PpKkbuwc7uKLwVfPHasr6DOyqfqmI7f0eVD1xD9h4ajvkds/Efast27+uZfUHjYYAABAAElEQVTrj84yfRP77ncOOptQCQJyAmevOEs3Jqn0X85aXPbIGd/5m9Ne2KvboAwCRODp/3ab/EcpEKuLwBmLi4t1RYxomydA94ra72iiHEnKMOW50wn317/6tBxSevOSL33SNja8OUfksVSBLv00Ekjv/Lv36zb2KIGQ6FC8kRDqNKaM2t94163GuPqgHNt1L7km9l1Vtp/Ca+jOWUbhxFVg/CeP3vPIwbsLDMwICdqoAWTyx+UX77RjoL1U3elpexaomYQAXTB62e+9VT40/bKQXtErtxdaGpfGOHuRACTMYnN2n1VlmazCUW3afH7sGpEwmusMfji22MDS7IUxCM2MGNJ6sZNA94SFI7f7dr6GnXcWtn/+w5029K2JbHCavhMUDMIEjIxRMl56K/3xMz/3ns+EO6J1zgToKH3z/9ye8/pKf1E/Z0aY+8gE6DsOHX43dM9TZ9sfF0Z7hqTfOupURUkGVbd80nF1+lmQrkYlKZNVuZ6jy7vTnQN0h0D4wgHyRoHt2nXr+lWrnn/dVXLnsAQBRQCqaGk7wXnHKAW5bN1lpYWKeGohsPw//OzkoQqP0g+higbkHh8WZxdnpc9D//rO4QKsOvs6w+vs1WlAbgNROQftrBQepe/0I4lNMkF9oFh7SQzKfxpGSa9AzJLu+vTHL+Ot9OMzn8OIS3eMnrv66PFjc5gs5phMAG+lT0ZXRUe8fKmKZao7SPrtLqmK/FfyonnK/TRey55XlCQNUTGld8Eb2ak0LmUjkhyp3lNPkZAqOu0CLF3J+oaXUUiUo0qxUbqrAYfCe+jIkd//449MGydGr5SAT4ardDoNhB2Qqi963U82MEFMYXwC9P+R8QctZ8QEucfZxVlpTJNUp84aw4Ae7V5UKRlOd6U7ie2r/HT26jTQ47HLaVdVGpK6Pk17iNgaw1vnBGPtY+MZwb5zjiPEkDwE/ZvCzvVL9oaOIKAI0KYibfShFSfVI79jxy6QAVeirHDNgYNa9PNftIWnjEJ7BJAx2t6aFjejP3zfJ41j4xRi9kT0wPuUqMmAwj8Ufuwjd+hNJDje/O5fHeFCZT1lVQ+gs0xC7akbA15GJ/ffe/P7WS+mF1VRmSpPtXa6gQEIPE4gIMM9boTSiAQCUvUFP/bcg3d8ld44P2I4GKp6Ahfc9I4S5pCQ90ciFP//mqdgV9o1bOwsxNo7nfgq7YDtGuprxOC08Q3hq5c7MUb3OcxeTyfiNy2s7OlWPk01UHiysd4k9vqIetk58U4DZy/J1PSOfUbR/UxeRsbo5EvQZAB0jp4yRhceOPbsV17x6ASf+pgEZhfIgitR5g3RPJOnblm5dum90PTrmRG0AuaKwmgEkDE6Gur5DmSLgB//s0+qS4J8UEjgY8lP2dg5kkZf9R55o1I92k3PuPTx9zjpXej4vPM7HUVra7t6x9jyfXvvj+1i2JMA+h//z5calbYEbBjgEQRsAgEZzjZGzQgEwlI13jI/whK0NATdLlpIuqiR9yeB7BSh7Eq7hmSggH/bXhmHewUcJnT0xRAYpWeQumd99HDw4Vbd53DlJUld8McXqj5ZgRvTxOfWtNOe9RH1smbyeFE3iB1L7/u4R1cpYCkZNC3V1xVI3zpkjPYliP4uAueuWK1fq60uNb73wNI/1lQZnyDAG8epFXArCvUSgDBa79pVE/lzn2fei0ei52tf91t0jN05B/stRmSmbvx02qtK8kmn9W0D+25Q0lj5O5qhmRqP7I2SXrk8QoEuFaUXDfFf3+UDgR9zRwgSQzRDICzDNTPNiiYSlqrpplGSuiqaDkKdlkDUO5fGD1UiyiREJf//ox6Ar5duw8Holb6ObJyxkDaWHq0RTNhhuJVcBTwbAyU/CiX1zlDTApC77Y/COVaC26gu9qB2d6WJpAHM24t+gMebl/IihTcisHTH6IqlZED6Q7td/SbA/tJQBvicG4FyfjM0N/IjzxdH6UcGPsfh6I5OuhbTyLgkHfMnXvxLVE9EnnXpFvp/z94991MeJUmTRq4oGZCU+eKX7uhkd+vNf0Q21/7AFSo7Rr2zyBiXDOgF7uyK9FZ9OKWu0oWebEAFklZtJ7pB9vInPnfX6VHdSmSMqGhQOz+U5p49GDhsngDJcNBGi1plWo7we5ae9vbrv/4rt+FAfVGrVmYwT73tPeUE5jxKb/zLkxQZo2bo+CXDOW2cleFo5bMTWgrNKKqEaMNz4VbdsxGP8chdRiiEhw63Joenowg4iR3dcCvpbnQJBONs6tnd6TNXpcoYhTaaiyf8KAL6xbWsgqkCPkEAXyYzIQBhdCYLPfE0f+aV1zgVT6HgSFKm5A1IdM8mOQz7JI1Vv96U9FbDnh4pVE5QdYbdn6Z9vYDuk3D5oiIRmSy/8o3ddmA0tULOS+pzQbl8AlBFS1ujcMaoipYO1N/zOwvQRktbu6LioVd1rb9sfTkhSfL+AoqMRA9yTja5o9ObvNIeNzA7w61uafthY92MK3sWAsOR53CrEY/xmByYU1IPBxMe2tkanpodfKw9e3COzq2dBWf35GA6hyvNgDJG99+9v7SoEE/tBJbuGF2xml6+tHJh9bFDR2qfDuIHARBIIABhNAEaukQToJ9j3vyGG37jXbfqiZBCL5RVqkuZwl4+MwpDb/Jls6o46VXvJLYqe5IdE4LXx9LL4TtGCdc7f/v1v/Smm/QuNHo4AGNqel+UQSBAABmjATiTNHVmjFJUxxYuhDY6yerUMiipohte8fJaopXEaetBQjHI7igZTug84CptXNuh3I8Rs/Foe3bWhIcLtzod6pWciqVXdpZ9knrPYIxxDW+d9Ax7w9vIj7HBdM5u5PjlwyFjVM4KlnIC6hw9fR49fkzvRb+V8X3/0c1Qbp4A7YTlx3EFZePrjAVufIHLmR4lM9IL39XZeWFUpEXedMuN9hFyZ3dSEsne2cSVb/zVG+ycSvLvi4pVUTL4T6/9KfYzQuH5111Fc++ckYqEzD5461vtqY0QJ4ZogAAyRktbREnGqIqZtFHcN1ra8pUQzxW3/8cCVdGlvL+YP6TdhM11MajTmF0JLXXn3DdvQY9ELyePYsRsPCa7zdhxwqsqYwnb9GI9MLfYjrH2PJCz4PRmz87Zt8BK3DFa4KJUF5J+cF4PXr1/aeXa1fSX6umTVFEuqxp8zo2A2g/Qx2ndm/9zxuLiYvOTxASLIkDvXPrYR+74ousuUY6ThEg6bB5IFLVf0EQyIr2one4DdXomh3RqPnAenxy+9+b32ymZpDnSy99JpqSw6VJUjpDqb/vg2/iRCoYB1QTESrr/dOcNv6Z3/9OPvdMZHr156eN/9kk7MNWXwqB7BgKg9CFqL9PbqJiDWu7yZ3Ty6D2PHLy7/DihjZa2Rssv3hkO6fDBQysXHn1/3QOffvDb7/5Q2B6tMyFAQjnJ5ZRQvG5TryunKS1Lf0VvFnr074pxdDFSgobTfcLOw61ZMPZ0YkRoPDqdS2ycHZ2Vmzaf76wPV96750DYIK0179TSYqBehYQRiIRSfWN/saFo7Nv5GjmW7Z//cKcxfWsiG9wx2gkKBmECPm0UWyvMbYatdLWCEsfV3Iu6oWiGyzHolCGMDooXzkME6Iebv//Gt8hCvUSIlNCNm8+jn70kmY8+YVSNR7LjvQfup4s4lc9nXLqVfsMcCuWxNhI36YdvFc9zrnoa/fjuFCsfMx/vv4oV/ehMk6JR1euq5PMaL9AhR4IwOhBdqKIDgU12Sxmj4ZcvkWdbcL/ndz6PK0eTmbfRkY7Pn/uDj/7P7uxN1/aZ1DjCaDl6UB9WY/YtilhaMAnCqERSTwsm19oZoxuP/UdxOnRWqrECTXYwQuOEhaOxsguj5BN3jNqLiJpYAhBGY4nBXhGAMNrwTsAdow0vbulTI7Hy6gueSVFSpmfeWEla3bpwyfMXrop1SzIo/c0eT2wYtj2zSpiU7Q01IKATwB2jOo0SypI7Rkk5NbRRyhN84NOXH7zjq5BHS1jEkWPQJVEamjJGzx45AsFwSxlne47qhkZep1Cg0T30LBsjGo8S51FdooydoxvEnDbJlbHhhYOJ9SYP2+nZGYzTUj6Q3NIY3Xh0+omKzenQWanGCjTZwUQZ291HrqHf2ZCkhbS+kbHPZzjsrvmsdcJMfXp6git0KZAAhNECFwUhgQAIgMB4BJAxOh5r2UiSO0YNVVQ5pmzBc3/wavplEx2uh0Iqg12xlbpedt2OyzlLlCdz6pqFXkfp2VXGQucVXZ0CTZSWxJEHehkjGo/kIdBX+be78Lh297Axd+wcNNZS6FAYHo9uFIxRenrTnRuSutyz3FIfzigb8zJakx+zxBY7+kBziQ2jjz0lCiBjtA9A9A0TgOYe5jPzVtoewkOoMwdV6fSf8Ja3vKXS0BH2nAns+c7+//U/P6sT+NHrnv+ULev1GpQbI/DR2//8wIFDalK1LPfiie+e/N4/F74QZ67YsHj8vsKDnFV4tBzLnnR5eMpHvnfWWQtHfDYrLlr+pBc85cKffA79Xb7h0nXbv2/hkcUNP/FCfLZBgBb04l9+Hi0x/aW1trcBZYyes+ZCu15e8/DRh48/8rDcXmK5eOTEkZMnJJY+mzNXpPw6P62XiqFPX/KQ1t3oRWKWUcN8fPVGF58Z+7ELhgc28NWTgWQUui7pzNVnsTdhgST1njtHOJAyM+bom5dhFjXEEMaSeHxzkcSzZs0qiZlhc+T2Txg1gcfNP/fyQKtqoozRs1ecdeJ4r+8knaPAoHkCtIucc8TucmJBpSJAGaNnr3L80AU+bRDAHaNtrOPsZhG+Y3R2OOYxYdwxOtA6I2N0ILDJbiV3jJJzZ9Jo8qDo2BiBAu8YJcJRr9AhoSecVddp0NiatjGdhKsqJXeMSuD4NoyvXuJTYiP3r1vqZX0UX71u079sj5KwcBQG7hjtvxbwMAQB35loZIwOQbsln7hjtKXVNOaS8rt3wwUeQQAEQAAE6iWAO0ZLWzvJHaNQRUtbtaLiKfOO0c6j9AbDsCpKxp0GhkN63Lvn/o//2Sft+vnUXPeSa+hFl3XN1zhKbwRvSHjGo27s2zC+er1vn7Lcv26pl/XRffW6Tf+yMQql+vb3mcUD7hjNghFOfARwx6iPDOqJgE9PB5w2CEAYbWMdMQsQAAEQSCSAjNFEcIN1k9wxar98abBw4Lg+AmXeMTo0x4AixkPft/f+Xbt2P3Rk6RqK5atX06cq24+qi2GjKvkz3Gr47DS2R+QuXOChbWO9Sbc3ylduv786YTQsqRsSnvGoY9HLkt2i26tyoFegSfcjNNO7pJU7B+o00Me975GjmxZW6jVTlXHH6FTkZzIuMkZnstBp08Qdo2ncaukFYbSWlUKcpxF4xqVbt23bolelnfHRPaAMAvMkgIzR0tZdkjF6+OChIv6RWho7xHOKQJkZo4G8vyiNxrfIhiIW8Km0QuVHL1ON8ei0MQJwdtFtdAO9rNsYZd2My1wIGOtNur1e1m2oHABlWNqPffra3rLXBMIzdotw6EAvo8k3tGFG4/oshSH5zIyB7FEMg+Ei8UWYVo+M0TRu6CUkgIxRIah5miFjtO11hzDa9vo2Ozv6jfFtH3xbs9PDxEBgRALIGB0RtmgoScboqZRAkTcYzZBAmRmjgbw/W6MxVs2WdQwD+5F9JvS1vTVTs2GjeY6eQTnnGKbn7Bvu4hwlXBmQ1Ds6PumcsEG4tc9EnGScw0ksfZH46u2BJKNIbGzPI9cgY3Rk4E0OF5C3kDHa5IrnmhQyRnORLNPPmWWGhahAAARAAATGISCR4caJBKMoAhKpmo7SAxcI+AhQxqivqfx60nrsIPtINqqv0609UPM1dJlA1BwTyAe6pF1VaUvq46xmYCJRDPsb+yLx1fcfsVgPKmO02PAQWBUEAupnQDOtYmoIclAC2B6D4p3cOYTRyZcAAYAACIDAlAQkMtyU8c1vbIlUjZcvzW9fRMy4zITipbw/wR+J1pOgi5HbhF6CeFszGZQSXVWZhZdkk8QOFDvxWPvYeGLtS4snNn6hPWWMBlQtoROYgYCPAHaXjwzqiQC2R9vbAMJo2+uL2YEACIBABwGJDNfhAs1ZCUik6qpTArPSgjMHgTK3h5335whdVhWri81EM5LB67DqZDs+TKGkLgksYNM5cQNclH1gXMMtP8Z2kccT65lCSkv15blkLCBjNCNMuLIJICXQZoIaJoDtwSiaLEAYbXJZMSkQAAEQkBKQyHBSX7DLQUAiVa9ZtzbHUPDRJoEyM0Zt1gkCje2ks4ZGIc1onLE6g2nAwCnA+fD66qM4CCV1Z2DGQBIbo4t6lEwkYGOMa1vaNUYXjsq25Ca9EDDTPTvN7Mpcqb56hGllZIymcUMvIQGkBApBzdMM26PtdYcw2vb6YnYgAAIg0EFAIsN1uEBzVgISqRpH6bMib81ZmRmjdt6fLtBkWQNb0CG3NArVZx8rS8BTOXGC6hOMD6+vvs9YsX0Dkw00GaNIJiKxUW5tS7vGCIAfhZZ9zIR9OaQxC8gYHZP2DMdCSuAMF10+ZWwPOasaLSGM1rhqiBkEQAAEshGQyHDZBoMjAQGJVI2XLwlAztekzIxRYd4fL5tQtNLNfIIO1e/dE/fSIQ6jyYIBSmdY4HxtSV0FGQhbbzImq0/Q2aT31Y1jy7n8xI7rtC8qGGeEwkpkjApBwSyNAFIC07jNpBe2R9sLDWG07fXF7EAABECgg4BEhutwgeasBCRS9eGDh7KOCWdNESgzYzQWsSFa+ZQdw8weRXXcuPk8uwk1ioCQYX9caVdV+iT1QNiBps5Z9OmrO8/lh3z6Nr+vXg9DlTMGYzsfswYZo2PSnuFYSAmc4aLLp4ztIWdVoyWE0RpXDTGDAAiAQDYCEhku22BwJCAgkarLTAkUTA4mYxAoc3v48v6ERJKVHepI+pFcQhLGMyuzZPgGpXKuqjQCi3rU95JejnISZezjb9T3DKZn96gZJRsjYzQZHTpKCCAlUEJptjbYHm0vPYTRttcXswMBEACBDgISGa7DBZqzEpBI1ThKnxV5a87KzBj15f3p9AeSZkg/MiQkfVCUbQLChXCaOSvtIeQ1PSV1+UBOS3s6+l7Sy87uXGn7oSZnZaCevTkL8mBiu6el+jpH6VmJjNGeANE9TAApgWE+M2/F9mh7A0AYbXt9MTsQAAEQ6CAgkeE6XKA5KwGJVI2XL2VF3pqzMjNGJZR7Kjv2EEp4UheM7j961DZAjZOAcCGcZs5K5yjCylySepoKmWs6Tj/OSsLiqxcS6zTzofB1LCfVFxmjvjVCvZxAQN5CSqAc4wwtsT3aXnQIo22vL2YHAiAAAh0EJDJchws0ZyUgkarLTAnMigHO0gmUuT2ceX+xAo2CIu+lBCZ1wej6VavSmbbVUw6wzHnb8UuURJ+Nrz5t7nZsQj/JHQP+fT7zTjkQQPYmZIxmRzpDhwF5K6CZzhAUpmwQwPYwgDT2CGG0sQXFdEAABEAgjoBEhovzCOt+BCRS9Zp1a/sNgt4tEygzY9SZ95cm0AR6OZUgqnTWt7wJgnMLAAz28x79Dvfq2WpL6snxcySB/RBo4u6BQnJsnR0TAuv0GZhImU3IGC1zXZqJKqCZNjNHTCSZALZHMroqOkIYrWKZECQIgAAIDEVAIsMNNTb8ughIpGocpXeRQ92jBMrMGB1neQwlSGlJVGnUjxNMRaMIRbeeGNOuqnRK6kK2vnkFJhJoEg4aNvOFFO5Frb7AhA59Zna9XdMZ22gGyBgdDfU8B0JK4DzXXThrbA8hqErNIIxWunAIGwRAAATyEJDIcHlGghcZAYlUjZcvyVjO1KrMjFE77y+8PEJ1JmymtCTcMRpGTa0+0a2zY5TBCFdVGvsh17wMt/qsY5uiQgo45xgMh74uhpmvO9X7LLnLhAVkjE4Ifw5DIyVwDqucPEdsj2R0VXSEMFrFMiFIEAABEBiKgESGG2ps+HURkEjVhw8ecnVFHQgsESgzYzQ2709XZ3xaD01WN/MtP+4Y9ZGR1AfgG90NS+PRMJY/Rknqkv0gH5otDbf61Iwm7kKFQJNuFij7POgBGN19XQyzqMe0VN+oIYTGyBgVgoJZGgGkBKZxm0kvbI+2FxrCaNvri9mBAAiAQAcBiQzX4QLNWQlIpOoyUwKzYoCzdAKVbo+BtB7lViWNpjOdcc+A0GYsmWFpPCYj9EnqxujJ/hM65ppawtCqy8gBjJDqK0SBjFEhKJilEUBKYBq3mfTC9mh7oSGMtr2+mB0IgAAIdBCQyHAdLtCclYBEqsZR+qzIW3NWZsZoZ97fQFqPcquSRltb6cj5PHTkiOoRlhTDrfqYAy2ZPkSgnDB6YGp2k10TCKZPkzGQ8djHc3t9kTHa3poWNSOkBBa1HKUFg+1R2orkjQfCaF6e8AYCIAAClRGQyHCVTanycCVSNV6+VPkiDxt+mRmjvry/YVksPPoidWSMEuflq1cr2mFJMdw69HrZ/jsldbuLryYwNbvJrvG55fqAphloMgYyHtl5roIvEl99rnGz+EHGaBaMcOIjgJRAHxnUEwFsj7a3wbK2p4fZgQAIgAAIhAmQDAdtNIxo5FZajs6EUEoJLFP8GpkVhnMSoO1xtrOhvErSYhJkoKheyj9ljFKvDRvP27ZtS3kY5hJR2lWVQknd3hV2jQG608Cw73wMbGa9Kfu4FFjAp9GkR6LPyFev20xeVhmjkCcmX4hWA6CUQOyuVhe3/7yQMdqfYckeIIyWvDqIDQRAAAQGJwBVdHDEkQNIMkbXrFv7yMF9kY5hPhcCp0TzK0qb7VLe356jRlRpWoyzl6H+qIFUJX3S4/6jR9evWnXdS665b+/9pJDO7dMgz49ObtxqFKKMjb70SFdVblpYaddnqbF3hV1jDNRpYNjneowaV8jc8Kn3MppyzWISP5Qxuv/u/ZMMjUGbIRCQt6CKNrPKQ0yEtgd9CxrCM3yWQABH6UtYBcQAAiAAApMRkMhwkwU3y4ElUjWO0s9ya0gnXeYdo8K8P+kkLTun+qMq6ZP+UtIoaaN6P9JG+VGVWS2l+jZa1QRpLvp0eNZUcHLTDfRylLHesU/ZPkpPql8fh7F9jeHCj7pzw1Jvkpd9zMPOfb2MccNO2Dgt1Ze7ZyzgjtGMMGfrKqB+BjTT2eLCxJkAtgejaLIAYbTJZcWkQAAEQEBKQCLDSX3BLgcBiVTdedY+RyDwUSuB2q9ZEIo1wuVR3uiOUSpQxqjqpVRCyhulR73c3qMxOyE0NpOvhdySnQsLtqQuVP2E/jvNjOHCj7o3w1JvSivrkLM49znRB6JQ8Vb6tPVCr+oIBDTT6uaCgLMTwPbIjrQohxBGi1oOBAMCIAACYxOQyHBjxzTv8SRS9eGDh+YNCbMPESgzY9TO+/PNwSnWGEqNr69dr7xRuqjuliVRVVAn66lv7Y8cP82FJFF+5LLiI4epQ7PZ6jW2pXwU3c+gZWFIQrNcoRrDGY/6KDZkvTVjebSBYmNGxmgsMdhHEUBKYBSuuRlje7S94rhjtO31xexAAARAoIOARIbrcIHmrAQkUnXtKYFZgcGZSaDMO0btvD8z7uCzU6khCclZb3hSZpQ0SvLowtGjSgZVn7qlXq8kRaUnsqpY/qMkQppyAJoQKTnptAyMomPvLDtvp+VenWGwJRV8IRlOfGa6q4xlYzjjMeNA5MqYaV7nI3jDHaMjQJ7zEEgJnPPqd86dtgfuGO2kVK8BMkbrXTtEDgIgAAIZCEhkuAzDwIWYgESqxlF6Mc45GpaZMRpYCRJrAq2BJp+EZDhUZkuq6GN/WAOlCl9ZIjIWopk+Nq3T5mLEr2bKlr6CD6ltL7fkvmlXVYYldWcY+gbQyxyJUXA6MWyEj4HhAk1C551mnUMEZtrZt3P0EQyQMToC5DkPgZTAOa9+59yxPToRVW0AYbTq5UPwIAACINCXgESG6zsG+scQkEjVePlSDNHZ2ZaZUBw4Sh8Qa9IWT3fIcg8XlE/OCaVHu8yVqqnMR5ZlOTy7oE+NWqf9M9pVlfoG0Mv69I39oDf1KfuGI5+Bpj4j6n3tIeTTtPvqngspU7oWcvoKWYsmw8DuanJZc00K2yMXyTL9QBgtc10QFQiAAAiMREAiw40UCoY5RUAiVVeXEoi1HZNAmdsjnPc3HB+We1SB37+kRmTdkx71ciAekiP11qke7YD1SPSybanHX345IKn3CZ43RqwTQ2o0HoXeonqFjcOtydPUJ5KW6qt7yFVGxmgukvDjJICUQCcWVCoC2B5t7wQIo22vL2YHAiAAAh0EJDJchws0ZyUgkarXrFubdUw4a4pAmRmjcsRhoSfc2jnK/qNHO20Mg7DIaMipoz0aQdKjPrReti2NGglSiY3hNtejLamPFoxzIENqNB71WTu7K4NAL92DxDjKleE8EKFuOVqqrz6os4yMUScWVOYigJTAXCSb9IPt0eSy8qQgjDIKFEAABEBgjgQkMtwcuUw3Z4lUjaP0061PBSOXmTEqz/szhB5DuzFaeT0MM643CkbGqNHqfIwSGZ0eCq/0IdXDltgoe+FC6M5jy85ghhjXOZA82qjuRvzGoz5ooEk3k5SjIpQ4HNoGGaNDE565f6QEznwDhKeP7RHmU3srhNHaVxDxgwAIgEAvAhIZrtcA6BxJQCJV4+VLkVDnZV5mxmhy3p9QuxGaJWSMtrR75LqwUH2zzYQLIacqlNQ7x7VDNWLoNDDs8z4a8RuP+liBJjbzzcVXzx2pILHR7ccsI2N0TNqtjhWQt5AS2OqiZ5kXtkcWjMU6gTBa7NIgMBAAARAYg4BEhhsjDozxGAGJVH344KHHzPFfEDAJlJkxakY5yrto7EHlyqDdt4EauS4sUd8IiNBMoUu7qtKW1NMWojPUToPOccuRFH1z8dXrU5PY6PZjlpExOibtVscKyFsBzbRVGpiXnAC2h5xVjZYQRmtcNcQMAiAAAtkISGS4bION6+iRf76LBqzxs5NTmSmBnWHDYBwCZW4PYd7fOIgwSh8CyfLfaFdVCiMUmhEroWVAUhR66LMuc+iLjNE5rPKEcwxophNGhaELIYDtUchCDBTGGYuLiwO5hlsQAAEQyEjg+p037tq1Wzm86ZYbr97xzIzOB3J18ug9VdwF2Z42SmLo4kN/PdCyDu32jOXPW3XV2ztHqWJrdc4CBkMQoIzRdZuu6OOZ0rIeOH6kjwe7L+X9hXUxUo4CupLtkGrCXZytVCnPmnQOWnvlxs3nTTiFTZvPTxj93j0HnL2cS+y0HKKy/+j9PejzyutN90ypvmm/2Ni38zW6n3B5++c/HDagVvrWRJ+1yBPHDh358vvuOrnjvDPvuB+f5RA4/0Vbnn3V032brZbd5YvfV3/P/fvpC5n+L4zPZAIr165ef9l6H2HU104AwmjtK4j4QWAuBCCMDrTS7amiCtSJe28ZiNgIble/4P8NjwJVNMwHrWdvurYPhEmE0T4By/vu3XO/3Lg9S7pJwKc+Z5fVnA4ThNFOSX2IZXIGHzvQoE7kzgOWgSZjsgkLRx6yC6Pkc//d+43Yin38xv/+9oFPPfob/WKDnGdgP/JfrnFOvFVVlCb7ufd8xjllVMoJbHj506rIy5HPCJY6gWX6A8ogAAIgAAJzI0B3jLaqjVa6lJQx2hk5pQSWeVy6M/KwAW3FqhXt8OxGa6Ut1FMYHSLUpYyzPUflnp2SjbNS7pMsSRmcc8YozX3jk85xEvMJpk5jSWV2h5JBnTYJ2yZL8GlOjGh9Tnz1NoGApd5kjGv7KaFG3TFahXpF6aIlEEMMNgHKXbUrVQ1dIlnF7vLFj/pBCVCq6aD+4XxaArhjdFr+GB0EQAAEJibQpCqq7hWdmGzq8JJLANasW5vqvuh+VS9c0WQLCC72FTq6ZMPhOytVK8k6bIZCLgJyqnLL2NjSDnHrowS2jW5WSHmqaKcaNwp7RXeM0qlbpItGLe5oxnSzgW8sqKI+MqgnAvce8O4c8GmAADJGG1hETAEEQAAE0gk0mTG67MlXnLi34jtGO5ez1aP0VS9c56rBYFACVcg6gxIYwrmcqsQyLd2GLhh9783vH2J28CkkcOX2K9OO0gv9y81qyRildFESRukuS2ij8sUdzXJuGaNqN46Gt+GBNp3vzTVueNbzmRqE0fmsNWYKAiAAAg4CyBh1QJm0SpIxumzdZU1qo8gYnXTrDTu4fZR+kqO7cz5HTwtMNwn0WeaeS0bv/di0sDIhAHr14kNHcDA5gVy2Li9+6Y5svno4oozRKu4YJVUUR+l7rPOwXZcyRl/oHqLJjFHsRvdix9fS/8K2xvdCj1oIQBitZaUQJwiAAAgMQqDJjNFBSI3lVHLH6OGDh1LUhbGmkDwOMkaT0ZXf0T5KL8kxTJ6XT8LDHaPGHaM+UE7ygy6Zc0SuXL56NZdRmC2BKjJGWRJFumh1G7W9O0Z5N1a3FgUGnHboocCJICQnAdwx6sSCShAAARCYC4EmM0ZJX6t3/SQZo62+eQkZo/Xu2/6Rk0LndBJbr5xMKOE5Z1FspQHKR9sZf5Sx00Nnpa2nd3aBQcMEqrhjlBL01BLQUfqG16LeqQWO0jeWMYpD9Hl3Ke4YzcuzNG8QRktbEcQDAiAAAqMSoIzRUccbfjAS16rW1yhjlBJCw5zoKH3YoMbW9rZijaswXMydr9AxFDqOJLaeO6KQQMBH2+kqYDyCZuoMCZXZCRR1iYHKGM0+x4wOOUGP5FFkjGYEm9FV4OVLlDGacaDJXeEQfd4lwB2jeXmW5g3CaGkrgnhAAARAYFQC7WWMUrpo7RmjnS+db/KC0Qc+/eCoWx+DjUugkNQ/3DE6zrIHNFNhALxhoLEKiQ1kVtQlBuVnjHK6KCmkyBgdaE9mcetMDnVWZhluEics008yenuD0h2j7U0KM2ICEEYZBQogAAIgMEcCjaXpqVzR5jNGjy1c2N5mPfcHn9jepDCj0QgI5bOebx8abToDDZSgCwvBSgKOuqCtM8VYMiJsGiNQfsYoAVdqFDJGi9176ii9MznUWVnsRDoDY5m+0xIGEgJR/wuTOIRNUQQgjBa1HAgGBEAABMYm0FjGaNW5omrt6Y7RzozRToOxt1Hv8dQ+bGD5epNo1kGUzuUT43z1RM2Xohjo0izrrBPzgbUH6UQdlW5DGaP0N2rb2CGhJiMBzuHN6DPWVfkZozQjpUYhYzR2cUezDxylbyljFOmi2XcU7hjNjrQohxBGi1oOBAMCIAACYxNoLGN0bHwDjCe5Y7S9o/S0D+kofdWpvgPshaZcOlUVn5TmE+N89QFSCV0C3tDkWzIikxc1SaL017ltsApjEuA7RksQqZExOubStzpW4OVLLWWMkkAPbTTvHsYdo3l5luYNwmhpK4J4QAAEQGBUAo1ljBI7EteqTjyUZIw2+fIlOkpf9cKN+nUrGIwUBIHVxCZ5pTTJZBLOkkvc1mLT/yaBcZZM6aHqc+ZLNvnW4jtGSxCp68oYDQhwky/rnANQGaPO5FBnZb2sSBst4fcZ9QI0IkfGqAGksUcIo40tKKYDAiAAAnEE2ssYJXGt6sRDScZo52vr4zbB1NbqtUuk0Ve9cFNTNMcnBcGsmvR5zH+eBbIa+yuDk1LsO7hTZDRwGY99h0zqz7uFCjNfsiR+OTshYzSWJqfpYevGohvT3pkc6qwcM6q8Y9FWLOH3GXknNaE3ZIxOCH+EoSGMjgAZQ4AACIBAuQQayxglZe3QVy+pOvFQkjG6cmFfuVsqPjL12qUvH76u6oWLn/e8enT+8yxWjwvYj5PV2Mz6GbiMx8A0A0sQ6BXVRNvGKeZGOYFxHwLIGE2gp5T9A5/andAXXYYmEMjkbSxjdGiSc/MfdU323OA0MF8Iow0sIqYAAiAAAukEGssYJWVt1Ybbq048lGSMNnmU/tlrPl71wqV/EaLnKQIBPc4pwAXsQXQcAuElsFct6pW+9+45oNQlpN2Ns5q+UZAx6iPjq6fzy+r3QOe/aIvPBvUTEgi8fKmxjFH1HrAJUTc2dNT/whqb+xymA2F0DquMOYIACICAl0BjGaM0T9JGq048lGSMtvfyJdqHpNFXvXDerzE0nCLAh6MTeIQFuCiHM08/TBAZbX1TCNxetah0m02bzyd1ibbNzJdMSHs4M2SMxrLlo/TIGI1FN6a9MznUWTlmVHnHoq3Y5/+8eYNpwBvuGG1gEQNTgDAagIMmEAABEGifQGMZoyrlsOrEQ0nG6LGFCxvbmrQP8Vb6xtbUmE7nUXrDPvZRqN8lKIOxkZRsnyAy2vrmmBOkbTPzJRuTtnMsZIw6sQQqOU0PGaMBShM2qaP0zuRQZ+WEofYcmpOXe/pBd0UAd4y2vRMgjLa9vpgdCIAACHQQaCxjtIGUQ0nG6Jp1azvWtcJmvJW+wkXrFXJAygw0+YacVr/zRTWf+oQlC8BhGR0ZowFK4zQhYzSKM6eLUi9kjEahG804cJS+pYxRfSuOxrbtgZAx2vb6Qhhte30xOxAAARDoINBYxmjHbFtpbuwoPd5KP8TGPPJPDw7hNtmnfaAvIGUGmqIEuCjj5KnNqqMPaWDJEvjwbkHGaAK9gbrwogzkX+KWvq0VntNHOXoPrTip5oKMUcmajm8TePlS4bsrihVtRWijUcQ6jZEx2omoagMIo1UvH4IHARAAgb4EGssYJRxVn6Pn5Tx88BCX7UJjL1/CW+ntJe5fs/qCJ/Z3ktED5wD29BklwNnGCWfJewZcVHfnsXRD6zQejfhtpIZB3kdkjObl2cdbri/hPjHQt7Xyc/qWH3/039fIGO2z1sP1VRmjzo3krBwukqE9kzZawu8zhp7maP6jrskeLSoMlIsAhNFcJOEHBEAABKok0F7GaAOn6WknhQ/Lh2XTKjfiwgLeSl/pwtUVtlMZrGsKfaJ16sKG1mk89hnO6JvwSl9kjBoMx3/EHaOxzDlNDxmjsejGtHcmhzorx4wq71i0FUv4fUbeSU3oLeF/YRNGi6FjCUAYjSUGexAAARBoikBjGaOULnroq5c0tUKuyaxc2OeqrrgOb6WvePFkoYfzVsJZir4R0nr5vKE+IwHn0kSl29C/59WecYq5GUOFqzAB3DEa5uNsVVsXGaNOOJNXBo7SN5YxOjnqxgLAHaONLagxHQijBhA8ggAIgMC8CDSWMUrpomsv/2btS9iZENrYUXpaL7yVvvZN2xl/OG8lnKXoVNmWts2TzrHH9RnblqjpT8BH27k0UcORtKT2zMyTfKOgDWGMjNFYqvwqcGSMxqIbxz7w8qXGMkZpK46DdCaj4I7Rthd6WdvTw+xAAARAAATCBBrLGKXJNnDHaPgc/dIcD94dXtYaW+mm0X954IoT9/51jcEj5kEJRKlsYeOZpx/Gioyke4Z5hluTdwWni5I8uv8fd2/btiXZFTr2J3Dl9ivJCS9Kf4fJHuiO0f1370/uPk5HPkqPjNFxgKeNQsmhtgzaWMYobUX+DVMaJfTSCdChh636M8ptEYAw2tZ6YjYgAAIgEEmAMvUa00YpabQBbTS8jMcWLmzpND29lf6UKvplmvUZy5/HK4gCAUmAQF2oI72+uaj3Ly2dLd1zNLyxubVTj2PL2AIpg3PWRmnuG11ptj6MA+mevuG4fmm3nPpDYhwtmRLmNmw877699+NzZAK0Dhs3n0efvChqaSb5VG+lL1y94reBb3j50+77k68rUHR8O5CoOAnMGQ6qVkEdpbdVUQJClYXvrqhVW9qK9x2J6gLjAAHcMRqA00AThNEGFhFTAAEQAIF0Ao2pogSCVNFTWtLCX97x//3Qjn9NNRUVKFqlatFp+kDeKDU9crCda0b5rfT0/iU1feaAAhGIgsAAi1JFaQrqWPSp2Tz6EVA/p9Lj9PBQtgkElsw2zlJDYhxljOquSBvlR1VmtZTq0dqHhgLLHliBVfXIGOWNFyhQjh6fXyYZZcMrr3j8XsIXraKO9M2Nvo5QGBkCHYKmhVg6Cv3ULbxA9jq2pIrqW5Fmqi52oCxmFNIg2LsFNY0RwB2jjS0opgMCIAACcQQau2OUJn9KFb2LCtWpoiTgUtgq3TWgii7ZNHSUnrJflTr//U/dw9M/et/LFAcUiEkAgpJBiRXZMD0qVPEnWf1U/6KWzFFuKfE2B5swsc4lC3eXp9uwjK4yRhV5JXqSWkePLIDiMQsNA6PCywqp4l9OxqiKp8xPEt0eWnGSY1MvHFNXE6pP9VVAZS7QVw2ahqbB8jStCN91wMvEBWcaKbfWVTC2ovru/exXLh0ooT8oyCHQlyfRU1+kp+Dho00CEEbbXFfMCgRAAASEBFrNGFUiI32+6Md30qfSj+iz5Bql5KpQw8vX0suX6E4Apc7TgXqatZr+qg23o9AJ4dBXL1HyMbEiY6Kn5NEyf9uRUVUx5LmAGGdYEqI5n6On6dt3jBr0bGLUS/4n3F3+Vnq1W/Q9o5Q7+tTlUfXITRSn0vKooCrxKIRjUGWA8qUfx5IS4cvP6Vt+/PF/X/t+GcA6nc0NTTqTjDRI2CJvtCIzyRgljL6tqFCQAQoBCKyEqm0T2Ir6jkW5XgJPeMtb3lJv9IgcBEBgPgQ+evufHzhwSM33R697/lO2rC9/7osnvnvye/9ceJxnrtiwePy+woOMCu/MlReS/UVPPkGfW7c8+eSx+9Tnpc/5kU999IMkPhZbQ6KtCvXsTT8SnjIdtD9robV7o85+4j98+fB1T37wT2gF6S9JfkaBmKjUyHMu+C4VWEFWxg/e8/yVT13OveZgvOzMvyQINGWeuyJwxhlnnLX+BeEtFG59+OjDxx95OGwT20qpf0dOLn1VZv9z5oqIi6FW/suZR08MEkb2eQ3hkOb+xDWPXt+p/EfR6x/SmjVLp4nlfxaPnHjw2PEzzlmmJE71ufqJK/VHvWw04TEZjt6R9kzswqklPnL7J+RrvfnnXt5pTHeMnr3irBPHS/8SPvHQo98/SUwheYV+JbD4vUfWrFp5bPniofsfpBouoGkIGoTaBqvWgvYYrc6qJ7m/EVWxuzq/TJQBJcaedc7ZvBWpkr6X0l8CrlBQmUChxkdD1fO2IVbE8EmbzxXyh1l1BB7/jVZ1oSNgEAABEACB/gQayxglkYjT6EhnJD78SU18uF7VF1VDIckzRlt68xLvYcpz5DtGaWn4bDgXaGVJB1x7+TdVK31SX/pU9SplUqmldiXvCt2YPCsnzkrbiXO4qTxTeDRZPXI1d/osM2OUF9pZMPIW2cZXzwYoTEVAsjQSG1/86jQ9JY2qLFRODiXBjrrwI3dXNXqTYYlHORzdkgmXUKgiY1S/21GJUJw3Sl8RqBmBBolZ9iiKPG3jmWSMOqfJqqiu+nEuP32zldQrm+Z76d/xaMrhnaMbo1wpgTMWFxcrDR1hgwAIzIrA9Ttv3LVrt5ryTbfcePWOZ5Y//ZNH76niLsjGtFHaGErtUjuEdCL9sfxtQwEvv3hnZ5xVbK3OWdgGvBuV8Gcb2PV6DZftgnLF9bpnZyUZ6PVctguTeA4MSk0rnvEmZZD2SWlZDxzPn5J8754DafFE9SLpIXCgm1pnfppevWFcjjTMU+5HWW7afH5sl91//x1jyVQyo9NPoMlpP+fKACujifZMwsIR2307XyMnvP3zH+40pm9NZFP+aXo1Eb7LUglJqhLlaTnQ6KQYBu4SrWV3KYzhT6XRq32oNp7vk/z4mnjH2gat9tJnynNUqLduv0QV8NkeAWSMtremmBEIgAAIRBBgHSqiT/GmKnVOhUkyVvHxRgfYpCpKW/FL/7iZWeiLyJVUsOv1Gi7bBeWE68M+bWPuaBdsY3bOxlxjG7ONXbCNA364qcyMUX6dDsc5UCGgitKIhsQ2UAzFurXvGO0MNcyzs3t/AzsAdW+m8kwSnj6E3uQ0MOzn9hhgpaOwMeodJyxXkTGq+Bh5o1RJagt9UsqeXlaVqt4uK4FGt9fL/e31ce2xlH+7PhyDxKduo5djx1L2epx22fBPj4E/LamiNE1OGqWC2nicMcoQVA096k16WVny0qjHtnvR7JiPPnHmya0otEQAGaMtrSbmAgItE0DG6HCr26Q2Wq8eSupYZ8Yo3THa5Gn6JrficF+5Ps8kjJ696Vpfq6R+iIxREkb55J0khoBNnxxGZIzGZowGFsJo6lwXOtyqv0/J6O57pETjvXtOUz99lqgfiAAyRpPBctJosgd0zE5gPhmjOjrairrGZ5d9NXa9cqvq7VZffS29KE59UsYjMkbVOjb5iYzRJpcVkwIBEAABKQFIUVJSJdmtWbe2pHCyxVJmqmO26Y3lqMwvalsRIx3NicRXz8Z2CiE3odCHQCf5sPPOdcmljIfDQGvDBCrKGG14FRqeWmMZo8ZK6YmQdtlXY9crt6rebvXV19KL4tQnpT8iY1QtYqufEEZbXVnMCwRAAAREBJqUoupNFxWtGd19efBuoWVdZmUqenUxpGjL/KK2j9L7dDRfvW8hAnJeoMnnbc71EvJAOucdMvncKZk9cDvk5OHZAUBJsZmUXFPX7iqZJGIDgeoIQBitbskQMAiAAAjkJAApKifNHL4kqu6ydZflGKo4H2UqesVh6gqovS/qsBgXkPPsJtwx2rV9OtptpB0d0Fw/AX7B9+RTqS5jFEfpJ98zRgBhqbrtjFEDBR5BAAR0AhBGdRoogwAIgMDsCDQpRfFLbGpcTknwdMdojVPrjLk9Ra9zykMYlPlFbR+ll889oxiX8PYheZzlWxq6cFhxDrfSZDsNDCDl6GtGYHgMEyjnDoTqMkbDYNE6PoGwVN1wxmhYER5/ITAiCJRGAMJoaSuCeEAABEBgVAKQokbFnWmwJt+8RGzKVPQyLdp4bsr8oraP0o9HBCN5CIQV53ArufQZ+ATTcvQ1Dw9Ul06guoxRqFGlb6nT42s4YzSsCJ+OAU9uAmDo5tJKLYTRVlYS8wABEACBJAKQopKwTdyp1aP0ZSp6Ey92/PCVflH71LRYALn8xI4LeybgE0zZAAUQSCNQXcYolJS0hR6uV1iqRsbocOQb8BzePA1McOZTgDA68w2A6YMACMydQJNSlOSazqoXvtWXL1W9KOUEX+YXdedRermaFpY+w36Ms+TlrNo4kcz8JoFxIGOU4QggY3Q4tjPxHJaqG84Yncn6YpogkEwAwmgyOnQEARAAgRYIVJpcFkYvuaYz7KHw1mMLFxYeYVp4Te7GNBR9epWJMeEovU8ADUufYXQzVwbDurAPOCENNIWBoxUEMhJAxmhGmHBlE2g4YzSsCNsoUAMCcyMAYXRuK475ggAIgMBpBMpMLjstxPiH5jNG16xbG0+lgh5N7sbxudeCsVNrEwqgnX7GX4JKRwwADzTRZLEEla54dWEjY7S6JRsn4FxnnBvOGM2FaJwFxSggMD4BCKPjM8eIIAACIFAQgTKTy3oCaj5jtNWj9E3uxp6bOaF7mRjto/RhrU0+8YAfCHZyjH0sA0ugu8Vb6XUaKCcQqC5jNGGO6JJAQJ4OGdYHG84YTaCKLiAwKwIQRme13JgsCIAACJgEakkuM+Nu91mS7oqXL7W7/hlmVuYXdcJRep1FmsRpC3bhs+T6iE2Wc90kIFkO2wZvpW9yU405qeoyRuWC3ZgY5zxWeEUazhgNT3zOWwJzBwFFAMIodgIIgAAIzJpAmcllc14SSbrr4YOHmkSE3ZhlWevFaEtpDMSWOLkpqpBLGYwatBxjuS4cWAuajmQ5JDblkEEkVRCoLmM0nJ8Ybi1qRfRQ9XJRQfYPpuGM0YZXLXbdgSKW2EzsIYzOZKExTRAAARBwEygzucwdq7hWknQpdlai4cqFfSWG1TumJndjbyrRDsrEaB+ltycGKc1mMlUN1mIq8hg3QKCxjNGKkvj0UPVyYLHCTVOJU+FxkTEaXrU2WrNs4DZQYBY6AQijOg2UQQAEQGB2BOpNLgsslSTpMtC9/KZWj9I3uRvH305lYux5lN7AGMhnDDQZTvCoCIAYdkItBBrLGE3GHlb3Etxmd6hiCLgtU5xCxmjC5kEXEGiDAITRNtYRswABEACBRAJlJpclTuaxbs1njLb68qUmd+Nju3K8/7aBMazWBfIZA020BvKz5OMt2IgjOW8SCBNT0YWXQ24z4lwxVIMEqssYjV2DgJKou8quKmZ3qKIdyK2Owlf2kQyHhIxRH0+93sdWt0EZBKojAGG0uiVDwCAAAiCQk0CZyWU9Z9h8xuixhQt7Iiqze5O7cXzUZWL0HaX3KW4StU6x9Xlwkncqg07LJiuTdWHJcnTa4K30TW6qMSdVXcZoWIaz0cXa2x5QowikkUTGqGT/pLHVPWeUVp2unJV6ACiDgE0AwqjNBDUgAAIgMCMCbSSXzWjBTk11zbq1TU4ZuzHLspaJ0XeUvlNN62TS30PnEDDwEYhSpfFWeh9G1AsJVJcxOqZAM+ZYwvWKMkuIP6FLOCRkjIb55GqVS6vGEhuPFI/TlbOyf/ADue0fGDxkIQBhNAtGOAEBEACBWgmUmVxWK82x4m71KD12Y5Yd1CTGKAGOMab14u7zLERBgyo9z00y1aybzxjtA7Z21cYZvy2E6YicXXQDuxx2iIxRRSxMyabav8Y3orHExqNwXJ9zYXc2y+WHHaJQFAEIo0UtB4IBARAAgbEJlJlc1pNC1XeMSoJv9eVLTe7Gnps5oXuZGH1H6YUTTBPg7F7JZ8mFcRZuJrlJwIaWNqkogTVtCPSaG4EGMkbTtJW0Xg1sD0MI68/BcGggQsaoAhKmZEBzPsauVP8RnWF0Tic2zsAoaKqdAITR2lcQ8YMACIBALwJNJpdVfceoJPjDBw/1WvVSOze5G8eHXSZG31F6g8/QappEGTRCaukxiy4sXKNcAmtL/DGXngQayBhNE4DSevWkXWD3oTnMPGM0o0o49Erl2py1xJlrvvATIABhNAAHTSAAAiDQPoEyk8t6cpckXfYcYtruKxf2TRvAQKM3uRsHYhVwWzXGnmqaULML0JthUwCas6nnGs2QMKaci0ADGaO5UMCPhECs0jfzjFGohJJNBZtWCUAYbXVlMS8QAAEQEBEoM7lMFLrfSJJ06e9dQUurR+mb3I3j76cyMTqP0jt1NyExZ19odkJ6ulkAWqBJ9yAs4630QlAw8xFoIGPUN7Xq6mM1x0kmaCt94bBnnjEqWaMwQImHWmzmM9NaVmToOCGMDk0Y/kEABECgaAJVJ5cVTTY1OEm6a6svX8JuTN01p/UrE6PzKH2n7uZUP9VsO/ueBuWxhyxnyR9zVt9/h7tJILBSjAlvpWcUKKQRQMZoGrdcvXSpyNYcc40yqJ9w2DPPGJWQDwOUeKjFZj4zrWVFho4TwujQhOEfBEAABIomUGZyWdHIBg5Oku56bOHCgaOYxj12YxbuLWFMUz8DGIdTBgODltM0nC6cfaXKgYZIyiGAjNFp16IBqUjXdm2YyBi1mYxfE16j8ePBiDMhAGF0JguNaYIACICAm0CZyWXuWMW1kqRLsbMSDdesW1tiWL1janI39qYS7aBMjM6j9LFzk6QlxvqEPQiAQJhAOV93yBgNrxRaOwmEtd1ZZYwWqz+G16hziWEAAmkEIIymcUMvEAABEGiEQEvJZbwkkqRLNq6x0OpR+iZ34/gbrEyMzqP0BpxO/cWXlujr6Ks3xsWjTsAJza60azqd6AYoV0TA93U3/hSQMTo+81mNOKuMUeiPs9rbmGwnAQijnYhgAAIgAAItEygzuawn8eYzRlt9+VKTu7HnZk7oXi/GZP3F19GuH+4secJKjd9FcpOADY3itCvtGn064VbdEuXyCYRF8DHjR8Yo005I9+vs0mnAo3cWJK5y2XQGoxuEB51DxmiYgM6qgXLeyUJKbmBLBKYAYTQAB00gAAIg0D6BMpPLenJvPmP08MFDaSmDvAAAQABJREFUPRGV2b3J3Tg+6jIxZjlK3x+mRBnsP0qxHmxdeEzNC2+lL3ZjhAMrR+ZGxiivVIJG09ml04BH7yxIXOWy6QxGbjCHjFEJdiGxBNkxoYsKJq1jxslSGGkxCGHCbHICEEYnXwIEAAIgAAJTEqg3uWxKalOPvXJh39QhDDI+dmMWrGVitI/Sd0pynQZZcM3cyZiaF95KX+lmK+crsfmM0fGVl/FHnParIKyUzSFjNCP/MEznQHYX4Q60Ozr9x1YKR491C/saCUAYrXHVEDMIgAAIZCNQZnJZtuk16qjVo/TYjVk2bC0YOyW5TgMnrnJEHGd4rVYCe6srS/NK+0ocAkgzGaM+OWYg9SewFrEj3nvgfvKmPrnAj1zDBW7SO3KlYabbUJPRyo9c0O3t8lJ/K1RV6fucQ8aob+52vW+X2pZ9amJ3oG+stGhzje6LCvUVEVhWUawIFQRAAARAIDuBMpPLek6z6jtGKfjlF+8ME2j15UtN7sbwUg7RuoRx07VDeO7jc+ko/Z6jfTxwX9LgAkpNoIk82GfJ2e0cCsPdJBDG3jbbM+9YkoqefvIr/3Dmszb+zQf2PvcVe7e2NuNNm88vYUqUMbr/7v0lRCKMgcQap/LirBT6nNbswKd2H1jYTTGoTy7wI9dwgZv0jlxpmOk21GS08iMXdHu7vNTfCvUHfv4Fqt7+RMaozqSuXVpXtDpnlAshAGG0kIVAGCAAAiAwDQFKLmtPjaI7RuvVRiUXpB5buLDJ0/RN7sbxv7DLzBi1j9IbZMJyp27cR4MjZXDO2ijNfeOTztFhdpbtdbFrOp00aXDf3vt/+JtfOfSlXWp2dPHzxoWlMmmjG//m0Rn/94su3bVrSUV66MiR5atXP1pb1SNFfsVV2577vMs4+AkLKmO0IvWqj1iji6p6eUL+eqbnhGH0GfrkjvMC3SljtKLdFZiI3VTIFrIDQw0IFEIAR+kLWQiEAQIgAALTEGhPFSWO9aqiwk2wZt1aoWVdZk3uxvGXoFKMYbmTxDgfyUCTrwvqnQScJO11sWtsb05XtlmlNZQi+n2f+csrP/QBVkV9E/m/vv2Nd696aNu2LboqSsYVPRqh+mY6Tn3zd4zqGHVRVS/rNsIyiWJCy7DZpvNDqmK4byGtKr/bF0yrqqhvvnnr9W2ml/OOkuytwJCS54KOQxCAMDoEVfgEARAAgWoIlJlc1hOfJOmy5xDTdm/1KH2Tu3H8rVImxp5vpQ+IcYGmtuW57FsrQDJ2LKerNt5KT5Io5YR2SqI6MSWP6jUVlSljtJxom7ljdGSkPXVVjraBjFGei7PQ8B2jufaAk5uq1IfQy4EuYzYVGNKY08dYnQQgjHYiggEIgAAItEyg0uSyhpdEku7a6suXsBuzbOwyMXYepdfnnkvQtOW5OZ+jJ8LD3TGqL5+v3MBb6Tff9HtOSXTt92+jvxe97ifpLxWcBCh11FlfeCUyRvssEJLU+tAbom/4KH3DGaPlbMXYSGLts2ybSQbNEjmcJBPAHaPJ6NARBEAABFogQMllZcooLcBNmoMk3fXwwUMrk5wX3gm7McsClZkxGjU1W9CM6h4wxh2jsXeMBmCqJlKxh1uvztHHNCBV1BiONNB1Oy5f/cPX0hFvbtrwipdT+Vt3fvOh//EHhopK2ujrji5nyyoKBWaMNqxeVbElqg5y6Sj9s7wzaPiOUe+cR2+IzdyMtc8yoUkGzRI5nCQTQMZoMjp0BAEQAIEWCDSpikqSLqtevCbfvEQr0uRuHH+nlYnRPkqfKy10fMKNjdhzIWaiitIJemPdKTn0st97K8mguirKNlu3X0KtF9z0Dq5RheryRpExaqxg1GOUvFJyklpLh+gD5+Ub1twlW7HkHRj1dQdjEEggAGE0ARq6gAAIgEA7BBpILrMXQ5J0afeqqKbVo/RN7sbx91WZGO2j9H0EtYCWF2gafy2qGNG3EDZJu6aKCfYPkrLM9NxPShR96m3vUZmhYeckj37fR//AOFxflzZaYMZomHlRrVFKk0S6mmp29NqlNrRROkofUD8DmulU5HONK9mKI+9ASUi5pg8/INBJAMJoJyIYgAAIgEDLBMpMLutJvPmM0VZfvtTkbuy5mRO6zwGjT8sjXIEmasUdo/IdZZO0awxvrSqn9LYlfaab3/zG9Zet12sCZconJXtDG6X31NNf6lV+4Yqrlq5MPftzn97999+hX29QgT6FhQCWtKbq3krPStNAGtBAbo3VUZJoA6+kp3nN9q30vBXV4o6zc4yNZDwaIRmt8scS5iKPFpbFEjhjcXGx2OAQGAiAAAgwget33rhr1271eNMtN16945ncVGzh5NF7qhCwmpRR6tVGKd11+cU7w7v61B2j+8I2lbY2uRtHXgvKGD1707V9BqVXPz9wPP+rqO/dcyAcFclqPuktrckejvzMXBvduPk8G8s4NfRWevtGhc6hadvs3XN/p9lwBnSIXk8XpVxRuSrKUdHX1Nd+/Gf5EQWbwPbPf9iuNGoII9UEMv4M+xIec6k/k89FyaMHPvXoj+KTx5McwA/8/AsCmaF17a4oCM1sxahZxxqTzOoDRU0J3/xjA4D9VASQMToVeYwLAiAAAkUQgA5VxDJEBrFm3drIHnWYYzdmWacyMdpH6e3J+lRRskxrsodAzYQEKn0rva6K0r2iaf8wplRH6jsh/DaGrjdjdHz+edPoSBVtI2N0tm+l94l9CTsz79ZKCCC2S1TAGUHFxgn7aQlAGJ2WP0YHARAAgYkJlHkd4cRQih++ikzkBIrYjQnQ7C5tYMxyKDuLE5swahSBMN5way0MjYO39AL65Mgld5ImO59JR8oYDeT6zQSCcJp59Z02VFFCZ3xFGzAb3l1R4qCBxXi0t1ZG58ZY+qNkFKeNHbDuFmUQUAQgjGIngAAIgMCsCZSZXNZzSeo9R08TlwTf6suXmtyNPTdzQvcyMcaeoQ6kiMqZ2E5mfo5+/apVPnoJOqaNV3cebtUtSy4//eRXODy6J5QyFvkxoYCk0QRoepfqMkadMo0+o+zlgUZs481LinZA/cQ5+rQNKVQew5sz3EqBSUaR2KTNEb2aJwBhtPklxgRBAARAIESgjeQyY4ZVv5VeEjzdMWpMuY3HJnfj+EtTJkbfUfoEPa4P0oAy2MdtLX0DunBYxxx5mcrkuW7H5T0DO+OK/6Onh5l3ry5jVCjTdEpC8nWXjOgbzlevztG3oY3irfTyvZTdMrw5w616ML6NqtugDAKxBCCMxhKDPQiAAAg0RaDM5LKeiCVJlz2HmLb7ygW8eWnaFSh69Lq+qMN6XCxo6HexxHz2Bsm8y+QbtMB6/YLR4xdf2TPCtPtJew7aUvdWM0blklCW1fQN56tX5+jbOE0fPkrfcMZolp1TiBPfRi0kPIRRKQEIo5UuHMIGARAAgTwEykwu6zk3SdJlzyGm7d7qUfomd+P4W6VMjLFH6W1uhlRnPCr72ep3Nq6eNbEkncthxEBvpTdq6no8f+sFdQVcUbR0TYEk2lYzRn1zLyozro2MUR9qVR84ZR/uWH5rHzGxqH1YPmpEWCkBCKOVLhzCBgEQAIE8BOpKLssz57K9SNJdW335EnZjlr1ZJkbfUXr5lA2pzngU+gmcJRd6qNpsuJsEJMtR6VvpecV7XjCq/AgVQB50JgXhNQWtZoz6VrmPmMU+s6ha6jT9gU/tZreVFmb7Vvo+2yB5H/YZtNINhrDrJQBhtN61Q+QgAAIgkIFAmcllGSZWrQtJuuuxhQurnV8ocOzGEB1xW+0YJbmHYhim4XDKoDlSkc+2LpxGO61XkUgigvrWnd+MsPaY6mfzPSZzrF79w9dKpl1dxqhkUkPbJKtaKjCVKKrO0Z//oi1DRzu0//BR+oYzRocG6/Tfc+85faISBAYiAGF0ILBwCwIgAAJ1ECgzuawnO0nSZc8hpu2+Zt3aaQMYaPQmd+NArAJuy8QoP0ovyT0MTB9NUQTSaHf2akY51RM8V9zzxSi2tjHpenYlagiyMBu3uozRBoQhJYkqebSBjFH6cguonw3fMTrCVsyYH5rRFb7BgoCQAIRRISiYgQAIgECbBGpPLnOuiiTp0tmxlspWj9I3uRvH31RlYgwcpQ+IaIEmHazPzFev90V5CAKdyukQgw7t8+AdX+05xJG/+ERPD012v+z33iqcV3UZo83oO81kjOKt9PbXWq5dmlF7zejKnq+qyTVrn3/UV0cAwmh1S4aAQQAEQCAngTKTy3rOsPmM0VZfvtTkbuy5mRO6V4cxIKIFmnQyPjO73j5Lrvtpvhy+ScCnI/vqm8dFE/yHM5/F0+x/Cr6/tMrBNFN46m3vkc8FGaNyVnktm8kYDR+ln2fG6AgqZOduHF+mLGHWnVhgMCYBCKNj0sZYIAACIFAcgTKTy3piaj5j9PDBQz0Rldm9yd04PuoyMcqP0g9KLKwMDjp0Cc7DurCtI6uYffWxM6rxrfTGq1ru+8CfxM6a7emK0v7SKntro0Cq6PrL1svngoxRJ6ssopLESQN3jDoBcmXglD3bVFqQrO+EU4NMOSF8DK0IQBjFTgABEACBWROoLrls1qv12ORXLux7rNjUf7EbsyxnmRgDR+nls55z6qKc0piWUStS6Vvp9WtGv/3uD6XdE0q9/un1bxxzaQofi6h+30f/IEoVpRkhY9S5rFlEpbATOkpPSaO4Y9TJv4rK8PqOP4URhNoRhhifG0YcjsCy4VzDMwiAAAiAQPkEKLmsTBmlfHQTRkhH6Zu8ZhS7McumKjNj1JgaCWoJeYiSLmmejfDwKCRgrEiT8P/ikmdd+aVdDGTPb7xj85vfKHxZEPeq/XZRXR3mSaUV1u24/PjFV27dfklCd5UxWtF5Z5JmShOkErCrLkvXjL5ooXZtVN0x6ssMpfqKdlfUUmbfij0djvB1McIQUUsA48IJQBgtfIEQHgiAAAgMS6BJVbTqO0Yp+OUX7wyvepOqKE25yd0YXsohWpcwbrp2CM99fC4dpd9zlD0YghrXRylrTmOfZzVE+Cw5h9FqQX6TgJNtJ5Yw/M7uZRps2HgeyYJ8Cn6pEKmN3v2aX+Puao6v2n9i+erVDx05UsUnxfynv/zzlPSd5UKMhxcWnpC60qRH7797f2rvCfopacaQkIzHCcKKHJJyRZvJGF26Y/Txe4NNEK2qojTPBJUwvFETHJq4k57DUSW5RCcQWCKAo/TYByAAAiAwawJVJJfFrlDVd4xKgj+2cGEskyrsm9yN45MvE6PwKH2UshZlrBZCrgyOv3AjjCjXhQNsSTMdIdSihvjaC35Ij4dUTsoblSh0lOFoq6KvO7qc9FByWMvntm1bKNosqqjCeO6Kpekn/FEZowkdp+pCIg4NbUhIxqOyGT9C+bjqlfT0iTtGx1+mXCPKl5tHNDYq109bKDOqaZlg9CwEIIxmwQgnIAACIFArgSZz9KrOGJXspDXr1krMqrNpcjeOvwotYZyhBjfyhkkgHNBMRw5+zOH2vP41+nCkjf7j9T9PoqdPHiUJj97U9LUf/1kjV5RUUd1PRWXh7zYkM3rg+BGJmW3T5B2jUwk9UeM281Z643Vqxh5DxqgBpM9jghTbZ7i0vlUEmTY19IolgKP0scRgDwIgAAJNEaDkspZkFLU2lHTZtjba6lH6Jnfj+N8vyswYNY7S61gCp7Z7anABz3oAcy73JBxAZ8Ov8a30+gRJG9180+/pNSR6Hrr+57/7/duokq7O5KaDd3zV0ENVU42qKJ33V8GXkzFakXpFskuU/shbSBV6dje89XlUSaMNZIyqifhQzPmO0eybrc/O9y1Q9voqgsw+azh0EkDGqBMLKkEABEBgLgTaU0VrXzmJpEsvX6p9ms74sRudWGIry8QYSDcbTpuzPcvPksdir8I++SaBLImllb6VXl9Z0kbt1xAtyaNf2kUvrOe/zaiiNHd13p8KgS9hHZGkjIxRCSWyKUS1Uemi6pOiUu9fquuTgfMsuEYvVKS562FLyp17qdMgPApSL8N80Fo+gTMWFxfLjxIRggAIgMD1O2/ctWu34nDTLTdeveOZ5TM5efSeKjL7ypRReq6vRF7sOcRA3SndtfPlS4cPHlq5sG+gAKZ12+RuHBkpZYye3e/lS3QKOFm58E2WVJVcupidiqgG9dXrIZHNzLXRjZvP04EYZQlDo0vU46bN50fZk/G9ew7s3XN/bK9B7en9LRv/5gNRQ9SYK6omSBmjV1y17dff/otR8w0b0x2jdCg+bONspW9NVF+XetVTb3JySKjsmQ9IeqLKtaQC/cKJvlEkxDBVF4r8y++7S6W7UplQ+N5KTxHWtbuikBayFaNiHtk4/GVCresvWz9ySBhuNALIGB0NNQYCARAAgRIJNKlD1auKCrcIVFEhqHmalflFnfEcrp0HqhbaVz/PbZA261iGdekjaUzsXnRNIaWO7n3uK+wmu4YkUfrLB9Jtg8JrkDHaZ4GGk6JIo4kKrGckpCdyriV/1f+rB7+lx1DmI0VIkT/7lVdQgWYR/v0cVFF9QWdY7vllMkNiLU0ZwmhLq4m5gAAIgEA0gTKvI4yexukdJC92P71HZU+tHqVvcjeOv7fKxCg/h8v/6h4fHUaMJaALqXNbOCWPKoXUOF//3y+6VOmhnCjK8mIs4cntWdLN+LuNub2VXrKIIwudkpAMG6WN0icdoqdPaj1+8ZX0yTX/+4lbuVxOK0VCiq1SdUkVDd90HMgkJT9V/4ndYFVPFsGDQAIBCKMJ0NAFBEAABNohUGZyWU++zWeMVnFFQ8IiNrkbEzj07FI7Rl1rIxR55baZn6NPvmNUsieNhZN0acNm79aFr73gh1gMfdX+E3zzTwMTZElX/ruNzlkn39TR5FvpFa7JU9Ukwhnpnpx9qcJWN41SPiZnYqqyqqfvCcp+wlaK+Vtbnk6f9Lfz/yYNZ4x2flUObSDZYJIY5H7klpJxYdM8AQijzS8xJggCIAACIQJlJpeFIha0NZ8xemzhQgGG+kya3I3jL0OZGJ3pZp3/TCV6YblN4kFfgkGVQX2gMsuxunAs3vCsw7la4b4lt27YeN59ex+/BZWVxJJjlseGjFE5K9uyImlGosySyqm0UTVTkjvVEXWq569uVaZ6VVD2E7ZSGOr7GBUoGHuN9JqGM0b1aU5SlmwwSWByP3JLybiwaZ7AsuZniAmCAAiAAAgECNSeXBaYWsNNa9atfeRggy9fwm7MsmmXMPZ7+VKWMAwnznSzsOhpeHA+Oj3QP4Od9U4PqAzgsjEGjDtJkoyyaWFlp1ldBiSJkjBKMV+5/Ur6W1fwwmjVBOlL2PnrDaET3YwyRlcvpLx8iTJG99+9X3dVeLkxaUapnPxJ8JXaqNeoFVH15bTq8QT2TMMZoz23Ikn8PT0EsPuahh50aP++eaG+TALIGC1zXRAVCIAACIxEoMzkspEmX+0wrR6lx27MsiWB0ZbzsoBt1UkULrmxytJqFRrPS4mG9El/v3jnF1W9KrTxSTNS+bC5VFFyiDtGef9UWlBKKAfPsiPV6CIplalm6FYewhhdjcut/Eg1vj8NZ4ySCOibtaR+fFWUohp60KH9S8DCphwCZywuLpYTDSIBARAAAR+B63feyJd23XTLjVfveKbPspz6k0fvKV/AajJHr/Y7Rldd9fbObVz+1uqcgm3Q5G60pzlCzYpnvKnPKEf+6cHkSwAD496750CgVdLUJ11R+d+75/Ejz5IRG7OhmwTkyuYQc9+0+fxYt7RtCl81/Rw9zY700MZSR0nzfe7zLsuYMUqUtlyUeCFMXRmjNNNxxBeSvToHkthIvjxZYeQC9VJlrhnnUR9FL/viUfWX/quLfAIoMkYlG2C2NvQVtP6y9bOdfvMTR8Zo80uMCYIACIBAiECTyWVV3zEqCf7wwUOhRa22rcndOP5qlInReZTeCSeQadhf1MMdo07mXBmAzzYoGARUuihXsipKCqmqrLpAU0DGKC9ubKFTrIx1SNKMs4tkIImN07leaUuf1MqVRiap6jhcq56dqsYyAuBHvaBPxyj7BFPDrMZH585xVo4/u0LCGH/iGLEoAsgYLWo5EAwIgICXADJGvWj6NTSZo1d1xigJo8sv3hle1SbTRWnKTe7G8FIO1FpgxigJo/xiYnvW/VNBfR6MenqMfQGRHW3VNRs3d7x+JGp2Bt7Ovq1mjJI2auSNdqKoy+DFL92RN+DZZoySBpRFoMy7HHJvRmImddRrWAPlei5wk6/A9dyFC9xkFKIe2RstgU8ARcYoUeI/sXs11p4HqqiwdfslFUWLUKMIIGM0CheMQQAEQKA1AmUml/WkLEm67DnEtN2Xrbts2gAGGr3J3TgQq4DbMjGGLygMpIKS9BaYLDf5PPjquSMKnQQCS6DjDZipIfjN1J0j1mVAqmhdAcdGm32C87lj1NZA7RpaDlKUYhel034InzwoJ2CyNKma7HrDgB+NgnqkT/JjNPGgdj0Px6Pr3Y1W7s4O7YJPMLUtq6tJ2A/OvRqYeKx9wNX4TRI+EpvxI8eIuQhAGM1FEn5AAARAoEoCyNErbdkk6a7IGC1t1YqKp8wvavsofaeOpqjq0pvOWdhd70LlmaeLpt0k4FsCg22nWSBl2HCFx6IIZE+GTb7CmN5KX1dOn1BJGUJRGsInbUtWG1XBeGQDrlc72RAl1SN96vZ6WTV19mW3PJzumVuVH7ZRj87PunaXcwq+yoH2g2+46uoDfIRfxdVNGQEbBCCMGkDwCAIgAALzIlBmctm81uD02UrSXY8tJL624vShinvCbsyyJLVg7NTRwjTSuqcpg+FIKmrtrwun6dEVIUKoNgFkjNpMRqgZWo5x+ndW8mSVXmkojMYjS5NUTx1VqyqzUumsVM7VWLqBKhuudAO9o92dB+WCsnF+ImPUicVXGd4tvl4j1/cPMqCZjjwXDDcoAQijg+KFcxAAARAonUCZyWU9qUmSLnsOMW33NevWThvAQKM3uRsHYhVwWybG8FH6wHTQNDSBKK0zTY8eegrwPygBZIwm4+0jqfTpKwnY6d9Zyd6cGiULjrpYyZbcqgr0Sd70MluqUfiRC05jvVLvSL18/tmhsnd+ImPUicVXGd4tvl4j11cR5MhMMJyTAIRRJxZUggAIgMBcCNSSXBa1HpKkyyiHpRm3epS+yd04/uYpE6N9lH5QMlFi36CRlO/c1jqz0MvipHx6HGH2tEr2PHkh+9Tmc8do/2y1yVffCEBXHqlJFyidZUOOVN2VT92V6ms4ZDOjVdXTp3Ku+2EP3MrG7IRr7AIyRm0mGWsSvhwSuvgCzujKNwTqqyYAYbTq5UPwIAACINCXQJnJZT1n1XzGaKsvX2pyN/bczAndW8UYJbTZYp8i2f8secKKlNNFeJOAj17URLI4iRoRxgMRQMZoMtj2stVIXmQahtSoy5TKRkmWXFZ9VS+9bDvUXen2qt6wV67sJjLT/aheypg9GIXmM0anFQcTvhxiuwQmGOvK2Bt4bJ4AhNHmlxgTBAEQAIEQgTKTy0IRC9qazxg9fPCQAEN9Jk3uxvGXoUyMkqP0hvRpPIaFNsPYh12oDPq6114/rS7c6lvp1a7Q1UNJiqXEZuT95gvJV58cHjJGk9H5Ogb0IF+XPvW64KiES/JmFJQEqSpVWY2o9zXUTH40XFFHbnI64dG5ozLjRy6QH9Xk/Gw+Y7R5cTB2giN/4Th3HSoLIQBhtJCFQBggAAIgMA2BVpPLpqE51qgrF/aNNdSo42A3ZsFdJkbJUXpD+jQew3CijMOu0CokIBSj2dt83kqvi6Rq+ra2aNswqKkKRkgcs1HfP7z5vJU+VqZJZjvaQCxQ2gUVPEuQ6lGZKTnS7mIYOx+pklyFm8hADeGMQfVVfpSB77P5jFHfxGdbP9oXzmwJVzRxCKMVLRZCBQEQAIH8BMpMLss/z7Y8tnqUHrsxyz6dCcZYVS4L29k6cdI2xGinzayIsZLIs+Ya1ha5hm1UQa+fqmyE1BmzYS9/RMaowaozba3TwHA43CMLlLbaqGugeivroXZfpWZyPVvqrvQyu1UduYnqacoSP2EyzWeMhqfvay1n+/kiRD0I9CcAYbQ/Q3gAARAAgYoJlJlc1hNo1XeMSoJv9eVLTe7Gnps5oXuZGO2j9D11NEOVE4Ka9iy5MMjhzJJvEpDQltgMN7XJPZOayUoiByOpUca65VRlDltXZqlSj4dt+hSQMWrQ60xb6zQwHA73qLRI8s+iJI/FqqXeqiRLNuZHttG765U8EMudXLCblBOjnsdSBe7OI9oFZIzaTKhmzO1XlAhbVDDOpUFlRgIQRjPChCsQAAEQqI9Ak8llVd8xKgn+2MKF9W01QcRN7kbBvDOblInRPko/go5ma6/JymDmRZrIXacubBObKNL6hk1QDw39sZw5G3PJHicyRpPXelqlRimMKnjWGbmg6kmdpAJXslhptLINWyoDflQF+9HuaNgoP/RpRML1gQIyRgNwhmiy9/OYImznjIoKpjNaGPQkAGG0J0B0BwEQAIG6CZSZXNaTqSTpsucQ03Zfs27ttAEMNHqTu3EgVgG3wMhwRtBeeaxKC4YSCmLJ6+hUD/VKvaxGMfRHVamb+cp6kD4bvd5nz/U+Y2XgjJP7JhSQMZoATXXJrtTYylQgNiU1Kq3TUDxZx6Tudpkq2Z5bdW9swGaqVQXD0qdqdXZUlvTJ/o0ye2ZLu4CMUZvJoDXZ9/Og0cJ52wQgjLa9vpgdCIAACHQQKDO5rCPormZJ0mWXj6LbWz1K3+RuHH8nlYnRPkofS8aQ8JzdJTbOjrOtDCihTpjOSic923KGb6XXJUW9bBNjaVI385X17j4bvd5nbwzKj2yvaux6NkgrIGM0jVv/XrYMmqBMsfKoC5Rc5iCVEMlyJIubysCuZwO7ya4hYx7IiEf3rzrSJ1Wyf+5oF5AxajOZVY39BTKr6c98shBGZ74BMH0QAIG5E0ByWWk7QJLu2urLl7Abs+zGMjHaR+n1yeoiml7WbQISHpt12nSeJWdXTRaibhJwwnRWOlnZls2/lZ4FRJ8o6QSlKqO68EABh3qTz94Y1HgkD6rGrtedJ5SRMZoALUuXBBnUGJflRZ9YyTIlddR1SeWHu7MZ+2EDvSOZ0SP3YhuldXb6V/bsQXnjSruAjFGbiaQmoCcGmiSeR7bp/wUycsAYLiMBCKMZYcIVCIAACNRHoMzksvo45otYku56+OChfAMW5Am7Mcti1IhRF9H0cicQn4rq6xilDPqc1FufXReO5V8vOknkCQKiT7IMDxc7UKy9EZXxGI5N0oqMUQmlEmwMVYsFSqUw6rqkamIDFTw/Gq3Go+7H6Kg3Gb3okYyVAbOiRyorS72gDFQrG9sFZIzaTCQ1AT0x0CTxHLYx9mfYGK0gECYAYTTMB60gAAIg0DiBMpPLekKXJF32HGLa7isX9k0bwECjN7kbB2IVcFsmxv5H6Z1TjlJRnR5Q2YcA+DO9sHqot+pln2Sp23QO4TSmXrH1PJARlfHIZsmFeWaMTiLi9BzUULV02dHQJZVAqT5pYxiPaqvorWxDBZ+OaQ+h91I+uS87VzV2X1WjPlVf+7PhjFF7slzTc5Own/6F2EiM/RnbvX/A8NASAQijLa0m5gICIAAC0QRqTC7rnKQk6bLTSckGrR6lb3I3jr+RysQYPkrvo4SERB+ZMuvnvF62eqjrknqrXjbWkbs4bfRKtiQPql6vUW7D9r6h9Xrl0/as2ySU55kxaog4CdwSuuQdVFcbSYikeKiGFUlV0OvJwFnJGqWvVTlR89WHUB1VvdFXVQZGVD51z9yFCw1njAZ2AjdNLixyJLwiXJDEFuge5YeNUZgVAQijs1puTBYEQAAETAJlJpeZUUY+N58x2urLl5rcjZGbN4N5LRglIlqfhESn/+xnyTMs2Iguhr5JoM96jYhhqKEMAVHXJYVDGl0Mh7oTw5KaVI2vi22ve+PukkrDJuFxnhmjCaBK66JURaVUUmxcUHHqCqZSLXUbvVXZKxvdJ9moJr2jbaxqdIfsSnng0W1LfQjVqn82nDGaS1jUcY1Zloieknhy+ZGMBZu6CEAYrWu9EC0IgAAIZCZQZnJZz0k2nzF6bOHCnojK7N7kbhwfdZkY7aP0ySKaU/G0OTv9D60M2mEUVdOpC/vY+uqjZtf2W+kJhU+a9ImV1CXQxA6jIHcKoOwtPDSbDVGYZ8ZogKREtAp0N5ryejOcKzmSKp26JNUboqTzkSrZg16gMv1RXXw2HIDTTHng2JQT3VLVKDP7s+GMUXuyqAEBENAJQBjVaaAMAiAAArMjUEty2ewWJjjhNevWBttrbcRuzLJyZWJMO0rvBOJUPLMod87hmq/U0TnZEgFffRSctt9KzzqjLU3aNcRN2TubfFR5CJ9BVH14aH2ssGXUoMoYGaMGtLxZbHm9GaEqkZEqWW0kFZIfqWAIl9ykFEmWLKle/dFrDOePmZwmwnIvKtj2HJXeqg/BPp2FhjNGB90VTpj1Vg76q4V6sTQfOYTR5pcYEwQBEACBEIEyk8tCEaNtYaHVo/TYjVl29zwxZlHusvCvzkkCOl1LrW6+AwUcqx4G7HVRUo9W7+Kz0e2pzGZcMAz0R90mYSzdVbiMjNEwH7u1HKXGFhlZnVRh86OypEqjwI+6iKn6+pyTJRlI7HUPXNa7q4F8nw1njPbfQv09+LCXVg8RubQVGSeeZeMMg1FAAARAAATKJFBmcllPVs3fMUovX2pSG21yN/bczAndlzBuujah46Bdlo7S7zk66BAS5yQCrj+V/0jSHpXn9ilBJLFJ0FIlbmu3IWFR1xNpOnqNXrZnqrfqTvR6vRfb+AyUMZtxIWDPNvpAVPbVG2byR8oYXb3wRLk9W66+4In7797Pj/Mp+JQa0qp8TVFw5H50dZLLXFBapO9RhWS0Gl04bDbjgi50cqVtTzV6K5dVd7Z3FpAx6sSiKrPstIB/NIHAtATOWFxcnDYCjA4CIAACEgLX77xx167dynLbti2SLp02b37DDVu3X9Jplmxw8ug9VahXTapR9WqjdEHq8ot3hnfd4YOHVi7sC9tU2trkbhx5LShj9Ozewujub++jrC7SL3J9EgTlSi/IydBJfPuWUnn3qi3VLQQ0/doLaSt4754De/c8/kqWwpeSNERSHilIVXA+6k162eilN9llw1hhsc30Gu5iF3Qzvazc0udzn3cZl/sX6FsBSZwJfo7804PUqyL1KqAlybXIBFBDd9E1ShYc7QKFoVv6Hrk+UGDnZNNppg/KHblA5AOZoRXtLoVC/hnYjXInuSxH2/8ZByJX6y+jX63iT5sEIIy2ua6YFQi0R0AXRnPN7qZbbrx6xzNzeavUD6m3lUbeZNikeNL9oWeuujg8O1o1pY2qtzCRSMoFlUzKj3Yhu4HhsM9jeNZolRPoL4zKx4IlCIxAgBQxJaV1FpTBDD9pFQhR9okrtyMssXAImqDQsgSzgMpGKhXpLCUEKYlBRRulrLEQ2enftrRrlJPYeufQ52+9wKfL17W7nLOzK2kTkhAc2Ip2lwlreKcpQVN9jehfLLaBpNXXS6+nWeuPdpkMIIxOuDeGHhrC6NCE4R8EQCAPAQijeTjCCwgMQ4C0Wl3P7fM4TIDTe2UmIxSmny0iAAEQAIHBCGTXf4fQlHWfREI96kjsGr3VWeYuXHB65r4BM72J7fWCYaA/Kq2NjI0Ca3Cckuk04I7cqmroU0l4LOQZhahW8sYOuUAeqExzWWrz/6lug6nVcX6qWdKM9NUpuUwB88YwCoGw1TT1HaKXqVU9phXYVefOUWHgs0YCEEZrXDXEDAJzJABhdI6rjjmDAAiAAAiAAAiAAAiAAAjMlYDSqTtnL5GzyQl789mzjW3QGQMM6iUAYbTetUPkIDAvAnThHV00RnPesGzVfY88+gaPnuXAaZp5wcVsQQAEQAAEQAAEQAAEQAAEQAAEQGB+BCCMzm/NMWMQAAEQAAEQAAEQAAEQAAEQAAEQAAEQAAEQmD2BM2dPAABAAARAAARAAARAAARAAARAAARAAARAAARAAARmRwDC6OyWHBMGARAAARAAARAAARAAARAAARAAARAAARAAARCAMIo9AAIgAAIgAAIgAAIgAAIgAAIgAAIgAAIgAAIgMDsCEEZnt+SYMAiAAAiAAAiAAAiAAAiAAAiAAAiAAAiAAAiAAIRR7AEQAAEQAAEQAAEQAAEQAAEQAAEQAAEQAAEQAIHZEYAwOrslx4RBAARAAARAAARAAARAAARAAARAAARAAARAAAQgjGIPgAAIgAAIgAAIgAAIgAAIgAAIgAAIgAAIgAAIzI4AhNHZLTkmDAIgAAIgAAIgAAIgAAIgAAIgAAIgAAIgAAIgAGEUewAEQAAEQAAEQAAEQAAEQAAEQAAEQAAEQAAEQGB2BCCMzm7JMWEQAAEQAAEQAAEQAAEQAAEQAAEQAAEQAAEQAAEIo9gDIAACIAACIAACIAACIAACIAACIAACIAACIAACsyMAYXR2S44JgwAIgAAIgAAIgAAIgAAIgAAIgAAIgAAIgAAIQBjFHgABEAABEAABEAABEAABEAABEAABEAABEAABEJgdAQijs1tyTBgEQAAEQAAEQAAEQAAEQAAEQAAEQAAEQAAEQADCKPYACIAACIAACIAACIAACIAACIAACIAACIAACIDA7AhAGJ3dkmPCIAACIAACIAACIAACIAACIAACIAACIAACIAACEEaxB0AABEAABEAABEAABEAABEAABEAABEAABEAABGZHAMLo7JYcEwYBEAABEAABEAABEAABEAABEAABEAABEAABEIAwij0AAiAAAiAAAiAAAiAAAiAAAiAAAiAAAiAAAiAwOwIQRme35JgwCIAACIAACIAACIAACIAACIAACIAACIAACIAAhFHsARAAARAAARAAARAAARAAARAAARAAARAAARAAgdkRgDA6uyXHhEEABEAABEAABEAABEAABEAABEAABEAABEAABCCMYg+AAAiAAAiAAAiAAAiAAAiAAAiAAAiAAAiAAAjMjgCE0dktOSYMAiAAAiAAAiAAAiAAAiAAAiAAAiAAAiAAAiAAYRR7AARAAARAAARAAARAAARAAARAAARAAARAAARAYHYEIIzObskxYRAAARAAARAAARAAARAAARAAARAAARAAARAAAQij2AMgAAIgAAIgAAIgAAIgAAIgAAIgAAIgAAIgAAKzIwBhdHZLjgmDAAiAAAiAAAiAAAiAAAiAAAiAAAiAAAiAAAhAGMUeAAEQAAEQAAEQAAEQAAEQAAEQAAEQAAEQAAEQmB0BCKOzW3JMGARAAARAAARAAARAAARAAARAAARAAARAAARAAMIo9gAIgAAIgAAIgAAIgAAIgAAIgAAIgAAIgAAIgMDsCEAYnd2SY8IgAAIgAAIgAAIgAAIgAAIgAAIgAAIgAAIgAAIQRrEHQAAEQAAEQAAEQAAEQAAEQAAEQAAEQAAEQAAEZkcAwujslhwTBgEQAAEQAAEQAAEQAAEQAAEQAAEQAAEQAAEQgDCKPQACIAACIAACIAACIAACIAACIAACIAACIAACIDA7AhBGZ7fkmDAIgAAIgAAIgAAIgAAIgAAIgAAIgAAIgAAIgACEUewBEAABEAABEAABEAABEAABEAABEAABEAABEACB2RGAMDq7JceEQQAEQAAEQAAEQAAEQAAEQAAEQAAEQAAEQAAEIIxiD4AACIAACIAACIAACIAACIAACIAACIAACIAACMyOAITR2S05JgwCIAACIAACIAACIAACIAACIAACIAACIAACIABhFHsABEAABEAABEAABEAABEAABEAABEAABEAABEBgdgSWzW7GmDAIgAAIgEC1BK7feWM49iu3X7lh43nXvPDK1Rc8MWyJVhAAARDIS6CWb1Cf/fgXXvO631Rzv+G1P/0Lb3hZXg5De9v97X0/9sJXqVGuuGrbbR9829Ajwj8IZCEQ/hYx3A8w37rzmy95xRvUFPJ+ydOM7vrCLuX5zz7wrq3bL8kCqmQnBPMTn7vri3d+kSe+fPXqbdu2XPeSa/DDZ8kLh9hAIEwAwmiYD1pBAARAAAQKIkA/htIPoA8dOeL7VD+nvnVhIe+P/gUhQCggAAKlEqjlG9RXvrG7VISiuO7dc4DtWJvgGhRAoFgCartKfoB58Ut3bLnowlwTue+Ro+yKFL2FhWy/C9G/AGmUrTxMi4Uj//Tga1/3W/qU1Szph1KqpL/vWL36nb/9+udfd1WLs8ecQKBxAjhK3/gCY3ogAAIg0BgB+gGUZuT75MneevMf/bd33c6PKIAACIDACAR835pUPQeAb1CMAgUQmBsB33cJ5kDfH37ixb9EmYlcg8LkBHyqqB4YrSwl4+OHT50JyiBQCwFkjNayUogTBEAABEDgNAKUE3ra88KCfrKJmuifFs+56mlX73imYYZHEAABEBiaAL5BDU0Y/kGgagJ0C4Qev5GHSBLbzht+7U8/9s6MeaP6cCjHEvjD931SXyN1fJ5uPyA/+OEzFibsQaBAAhBGC1wUhAQCIAACINBNwCV6vky/O49c/O0Xvg5htBslLEAABHITwDeo3EThDwSaIvCfXvtTxs8nlCL6G++6ldU30kY/9pE7qrsCuKlFemwylC5Kv2t/7GmBRO2b3/2r2l32L/v8HX/3+le/TeUCk9l7b36/sbjcFwUQAIEyCUAYLXNdEBUIgAAIgEAKAbra6Yo/3sb/ruh/lxb9sLt3z/337b2foiGl4xmXbtV+FE6JMKqPMbrk52x6LQldwEeKsAp40+bzkW8SxRzGIDAcAfk3KJJI/vYfd/N3HuEXsvEdY6DvVzwKvelu4+bzJN+XGCl9g9r9999Rl5xe+wNXdL6qhfSIv//Gt/gb2kAz4vBQAIEJCdCXA71JTH+dEYlxP/PKa5w/dehfGvKvRMpzlEwwzbnyrPcV/tSU8O2OvwvRoK7fQjlm2eenI/oupHv89bf/orEo9G3wp69/KYun/FOo3kuV+4Rhe+tfU1o8/WcEDyCQRgDCaBo39AIBEAABEKiPwPZn/hT/Pv/L9/w/lF76+3/8Ef75VX9fE/1kT8em/ui2j7A9z5YyBd78hhv0f8/TfVL807D9VlZudb49mf8JRP9cufPv3s+jUC97dLKhn7x9/0wykk3YlR2wapLTYFcogAAIDE2AvvaNg5lqRPpCtlPMVFPg+xV9W4t6i8uH/+Sv3vFbt/L3Pf27Io0V+L5k57Xxtz7qqML4r7/yu/z9lirp22ZgUs7h1PdA0kGoFX9AoEkC9AMGv0GeJkiS3NUXnHYjEClZxpeS4mD/hKB/DSob+tKmr8FnX/xjjO6W//Gb+u825M7Zg16wv0WoqOzvD6oX2cd+u7OHIFf23PWoYn860vvKy/SzWdg4NozOH9Lod0u8VZw/YVI89H+HH/43r1Lf0omS/nNm9nh8qxzGglYQKIQAXr5UyEIgDBAAARAAgcEJ8L/2aST62ZruyNf/lc7D08+R9OJR+ke7bs+t1IVu/iL5gGuedekWLn/ic3dxWRXoh35VoI70Y6jeSv8C4QC2bXvcCamlztEpHqqnn3ENP+ST4qGfj9mbPgpVUpMesGrVZxegobtCGQRAYFAC6mvf94X86v/wX+wv5PD3K/qOIX+LCzl/639+F39noH9p8z/1aZTw9yVqJRsfHPo2SGHY86Ia56TID31Tsr8Nqu+BdEzVNxDqQaB2AvqvXWkuKl2aJ0W/0HV+KZGB+uqgn14CX4nsx1no6Zy+MH1fs/TlbI+Y8O0u/F0o109Hdqgblq3SK+mKA/1RlSmHlJRB/msYDPFDGm0V+i6tBqLvpfQjpTEoPX7yr/7/9u4HZrPrzg/6OBtw03XicSt7TG02cQJd46RQ49Bp2KpKlEULpq3bTZQ0qAEbNqwahtQRksvSOARP6B+LpZEZpYIVisFIy5pYKGoVhGikqFLkOiQ1FYk7S5V1trXbeKKtPVlvjJdNh+871z5z5t7ned7nz33+no81en2f+5x7/nzO+5z33t9z7rnfKEN6fZ65jvoMS7eHwB4JmDG6R52lqgQIECAwSyAXA73V8f/Yn5r6BX5O36flleuK+gK+Pu/sDslZZsIH/+rbfqK7gMntsSc+8Vpml8OgHyw516HP7EzY9D86/Y7ybn1uXaqa64dSejcJokufnLv9KT3LkOWGu5JP7ilLfcrLVHj4QIC6wiVl2ZihUdLYIEBgFYFjB6j6s5+CMsuyK6589vMy0zn/tT98e70+Rm+8yqDRXf2WYSQjxjxPcemioqWBvbmidSn1uFQmtqe4pKnHpZJVNkpl6p1lO436mfe9u741NZWZMSjNzq1ka4PAngrkj/jEX/KMIf/Jf/a5Eucqf+vTzPqTmBOhJeburZ75xDp3XZCPc+73/8CH31d6ZInhrj6kHoXKCLmOs6Ouwl0IsjQwzUmhOW3rDVyldb2N9Z2k5WSv1GriirR/43/930tl/oM/87Pd9vrqU8qyQWDvBARG967LVJgAAQIEjgQyN6E3b6icHXZAubCvz8InqtXXFbkpKWlyQV7n8+Bf+mTJpHeLWR2dLJcxOTbJStiiDn0m85xJnzhxJWx6+eVr9crpdbdV7/zcX/tPyz1uL1/4mRKbSCmZNFrmldQOV4czPpgLiRJfqCv8WqlX/2+ocfX7XhEgMK/AEgNUQhtd7rnm/59/6Wz5gGfQyDypblzKlX999dsbr+qPf/0kut5RwzbUA0XerfPJy1xFl1ExdfvK3/xvSxAzU0rLfZpJk5RlyOqVkgPLgNbFiMvQlOr1Qjn1xXx9YG8Q7hXhJYHDFsjHJB+Wro29D2nWl8jk6+6tjCRdYDQ/u3UnMu20fNzyhz6LcnQpMxGyjDOLZj6ROpln/c3uFCijQf08onyoy9lUjl1iuNvi2VEqnKjima8/U1qd4S7/zp44ehBTopOzV0xe30laVkopPVv6vVSy/m4+9Tz6Fv/yf+urTynaBoG9ExAY3bsuU2ECBAgQOBLoLtRzzZzrhO5n7ZJTwNkzJnLI1aGH146uL8hz4VGfx+dcP5cT5dojFSgx0Ewc6OqTXOqwRX0e39W5HJLQQDkktS2BhrIz6fPEldeqdeJEEmQ2VuKh3/ud36qfxJI95ZBhq4OQOnQJ8rMOp5acszFNo05jmwCB+QW6D91CA9Qv/sX7pz2VqJ4WdHlUee37ld54VQ96uQb+2N//d8s1czbqd+uGzI6KJmV9Ff3AX/hYGazyVrazp8xYT8ppgdESFe2Oqoem7KkbVcdh81Z9YAbh3tNpksB/BBoRKEtbpL29j3P9uctJUfmKot5flCbuXCLzkmG3kTOQes54SsmHtz5lqs9AlhjuyqlOitvY2VFpY0bUB3/rk/USzN1bqVX+ZYDNaJ9V4IdrOq/1JC1DYtg7mfR7vg8r0c9Ur/5uvruRKDvXWp/CZYPA3glYY3TvukyFCRAgQOCKQDd7ovt5Ze/lsGmu9us9ve2cv5aJEvVb9Zl3vXholyYn+jn3Lenz/Pduu8z3zMsSDK1Dn+Wocp76f33975V8yglr9uQct+zPAxZyClteZiN1Th266Rjd/uGqpnX6bNeZT0s8TaOXlZcECCwksNAAlQvaBDvyb+LQNLHc2eNVIh0ZT7p/+ZpnYg6ZZFSCp0nQm4bWHfLMM/+gHJslRMp2t5Fb+8ueOmXZmY3UYRiLKeuHJEF9YL2o4rEH1qXYJnDYAvkeohsielHRtDrfua7Y9tUzrz/RXWXyqc9HuFSsPgNZYrirs9rY2VGpfDbyTfn/8td/MYNkOaOr381on7H0T7zv53PymdO/8lbd6rKz3ljxJK3cIJ8880DROudyOpqdidh2b627PnUFbBPYIwEzRveos1SVAAECBK4ITLzOz0V+CZLmDDWRzfrL8ysHnzgxz3ONf+yG31Uf0m1n/b4SjMgFfHe1nyuKnLJ3+/Mz58TZkzXvu0PyVk58u+hDmRjVTQ3rEpQT1rxMypJ/NvLcpO7wvDX7Xq0uq2E4uD4z7tIMf86jMTzKHgIEpgmsMkDl65Du2jUf3kQMy5g2raxu/3C8yihUT+CaeHideb1ySEmc0axOc1SxwSPmSuI6Zdk5beP33fp7y1tLH1hysEGgHYF8KvPdas4iur/v5ZxhFIGlM68/0fPXZP7hbitnR72G5GvpLjaduZmd/xA/J3vpl2lj7+gnaTnLvfN/6p9/ptr11PucRtZfqNeNGr0+dea2CeyRgMDoHnWWqhIgQIDAFYHE8oZTkDJDqizEmaT58nxaYPRKRtO3/sC/eNv0N/vv1KfsuWJJueUu17xV1oHKOXR3N32JV/ZOWLuZIF0UtSsjh3Rn3tmZxJmUUd/gX/JJ4pKyX7nXX19OfGWR09d3+z8BAiMLLDdAZc3QjBvd531ihSbOVOpS1veWTjx29s7kPJwNmkP+77//bH1gPTTV+8t2uYe37FllI4PnKoc7lsCBCeT8IfedHPsxXK7V68i8PjXq1WrR4W6nzo5yjvdHTmTJzg8G7f/82+d743bG8LSuO1XbwElajVzWa66n3tezSjdQn15He0lgLwQERveim1SSAAECBOYSyAypernPnJtmMsL896X2yvgnr7x83Yk393ZOe1lCn0mQeQR/8MK/VKIbmelZrwOVq5rsKe8Or/xz9p+oSlbrK2lKodmTf9/7R7/RXSGU/XNuDMua80DJCBBYXWD2AJWZO714R74ISaHdx7Z7a6GZlQtVODnn4fUTV15eKJ8V47MLlSUxgaYEcj6TD2k9COT7jNzF0g0RCXgNzxnm91lr5sNqLDfc7eDZUc7u8i8x0Pp5d2lvztOGrT52z3InafX5Z/f9d6b9lr8m+Tuy9BSB5epzbDMlILCDAgKjO9gpqkSAAAECywv0bubKo4oWmPZ5dbFZQnTazUdXJzx6VYc+c0d/WZ80p6RdZDbnl91FS/11fQ5MkHSYWybDdvNhM/0qX/v3Lnhyvnvz7/u93WSEkm0yyd27s2+KH86xHRZtDwEC6xOYNkDVYYIEO/JEo6xcnEBqV5Ncch9bpYXGq5JbBqhyt/7E2Ghv0Phrj322HDvcqJ8LN3x3iT3dRf4SBzqEwJ4KJKRVxzfLuUT211HRfHI//cmP1d/73venX1u9Z4mGry/z3glPV7dVhrutnB0lapyTya7yuZeojMw1dYKP5Zb27C9j1wZO0nL+mdO/LhKaX57U9u9898rC0L3g5gbqU7PYJrAvAgKj+9JT6kmAAAECcwn86MX/d650UxIlJFGmY0zMqr5i6UUhy+lmcihL4JdT0vKVfp1DiqsvbIaVev0a4Oh2rTxtoByb+7bqG+q7A3MivtxM0mG59hAgsA6BiaNKCqrDB8Npm/WSxHWtZo9X3aBR0k9c8y4DVMIrJeCSseuhv/pL/80jf6G+8q9LSW69UGnJf2Mb9S2iGytUQQQ2I5BboeuCfuIP/PPdy6xaXk5OEhUdfpzL6UF9+Jzbo2ReVl0/ttDlhrtetps8O8qoWHgTglz6RGt9J2n16WhWgq6Fc/LZoysv11efUoQNAvsi4Kn0+9JT6kmAAAECxwtk1kOJSHapF1onNIfkrrRSTC+r7M+iUeXdbPQyr+d+lnPosrObUtodXt7N4+DrDFP/TBHt/mW7fiuHlxhrvb/kn53JtndUdmZqRvk3fLfOyjYBAmsVyAewN6qUMaSMCanA8MuScpWbGGVdw9njVVbtSLbdv/qx73UOXXGZoFp2Jn1Waq7HirqUYVAys5PKCDPPzNZS0LSN3piW8bBOmYoVjXq/bQIHIJBzjHIHdJqTAGj+9Hftqm/NHp4M9E5OZlBkKKg/3SNmng9mL+d8eOuRrXy0651zDuCGhCgAAEAASURBVHfJeUfOjtJBvUGpM8xIWLer9FFpdZIlQY8oO8v4mY3hu13mx/5MmDi/LV2y3LRUapIwbvkV6t7dTH2OrbAEBHZNwIzRXesR9SFAgACBuQSG1+fZk/PycjqYXHJGWM97miff3hKlOU8tUwNyKvzwf/lLJZOcg/Yyz/l9b2pV0tQn/TlRrquXrMpdcl22ec7Jn/3op7rtHNu7UW5iOCD5J2XJNhGNerZX6l9fZWXiwPyrppaW2iBAYFGBRQeo+lNcDzu5Ts4MsvIBL1PGuvoMx6s8gK4bl3qf/d53ML3mdNPPz/7CX+32p7h6JPkP/+N/p4xLGU8yNalMGk0soMw2zbEZci8/kKSX/WIve2Pa/X/2L5eFBVJcPXVrsXylJrBLAhki6lGi+/tePuldTetn5mT9nFL9JP4Hv/5TJeDVOzkpycpG+cBmT8aQfLpL2C5nBclnlcxLKd240Z23ZODKLNTeKVM5HVpiuNvu2VE9Bqa9GQ8z1gWtWxrlHz33Gwlb1+daSVPmafYGtHpoTbLeQL3KSVo5w6z/TNQzSbue2lh9uuL8JLAvAgKj+9JT6kmAAAECVwn0zkGveu/yi8QoEyMY7p+9JwGC+umiKSXfvXcTpuorlmT+X/yVPzfMKtGHumLl2qNLmVPe+t3s7K2In+lj5YIhxf2pj3wyL7tMejHfnKaX0nMdkpTdy+7KZOIhw4kDJQcbBAiMK9D7pA8z7w1Q5Zo2KXNs+RakLADa5ZCj6qyG49XEcntl1TmU7Ymx0e523W4uUhkAExToxqXeoJRSSiygZLvcRuJBZ77+THdsLvITsT27XEaOIrCrAhM/qnVlj75m+GN57vlr/2XR4YdfX+onH8Y/8b6fz8ewe698Nl9PO+H/ya2UmPT1Ifn2d8XMS3nJtpyNlJ3dRh3kXWK42+7ZUcbAGjAtKpi9ZnYve6dbmzlJyxlvr1b5Dalj4qWqm6lPKc4Ggb0QcCv9XnSTShIgQIDAYgI5Hcw6fb0ZnXNmkRmX5Xojh+SyvHcVkev/ZF4ma9TZ9maA1rcsJVkOqXOut7tMUuGcsNb7U3TOdPOvvozJOXd9spvv/x/8S58sEZNph5Spr3WFbRMgsHmBfMZ7A1Q+nr0PfjfsdHN/8pHvKllPBer29MarYVuGZQ3TdHsSG81IUt5NBTKbqXvZK6UbZPKzJO5KmTgqljTzbyQeVJo8PGrGW8PE9hDYR4H8kvf+ZOf04Bf/4v11W7ohovsY5gNYDyB1sm47UbMZCVbMvCtixgczb9VB3iWGu62fHaXOMxpYgw/7bjMnaSHq1bD7jryuW7e9mfoMy7WHwC4L/NhnPvOZXa6fuhEgQKATeOn5p//x3/vhNdf8en6+9PyLo2zccOvvwbtfAl/47//6j377t2fUOcHBf/kP/gsfO/NnfuEzHxv271NP/t3vPf/97vCf+9AfHybo3vpnf/zaP/nBn/7RP/1nLp34/0r67q3k/+///J/+1Nmfe9s7ryxFWtfnJ37/LaWUXITce/+H6nez/aMf/djf+srf7nZ+6s//fNL3EqRWP/1HT//Ym64blp6UyfM//8t/7mc/9L7eUXe867afuftfv+4tv+fvfP3v9t6adkipZ9LP0Ojl5iUBAtMEVhygumHn2898px7lus/vu0/f/sv/w9/oyv3nbrkxKUsduvHqxptv/s3f/EFvvMqxf/xn/61f+PP3nfrJm0v6bPz2b7z85f/tb3V77jr9r/yh97w27yx7MpIkqzJGZTz5mT/8hzIorVhKr85d0b/zj1/+lSdee85Mqlo3KglSq+Eg3LUoEYpCPTywy9xPAjsoUH5vJ9Ytv8z5pOQz+8gjD/yRn75zmCYnDPk8/j//8B/2PukJh+Vj/v1/8ko5ARj+Tc9HeOKpRRkBlsu8nEjk7Oi/+x8fnPiZzSnZv/dz/3avOUsMdxs7O+pVtbzMoHT3n3xvTrR6o3SXoBudPvNXPv5v/JunyyFlYzMnaT/6p7/zN/+Pr3d/QdIj//V/dX/6vdSh3thMfeoSbRPYcYFrLl26tONVVD0CBAhE4PyZBy9+88rklFFMTj/5xCj5yOSABfJY5+efey2WevMbfzxfs2+ysXXpKbeeJTqjGvVjAeY8ZEZu3iJAYMMC5SN8y603LjQHsx4xFj12/jZuppRSn6wr+r3f+a283PwIXOpgg8BOCdSfwdH/yq+e+UKf2eWGu7qS6Zo5EUpZ8x8yrd97Fcid/pmwOS1xb/+I1ejlvNzLXavPcq1wFIEVBQRGVwR0OAECGxIQGN0QtGIIECBAgAABAgQIECBAgEAbAtYYbaOftZIAAQIECBAgQIAAAQIECBAgQIAAgUrAU+krDJsECOyJwPV3XVkQbU+qrJoECBAgQIAAAQIECBAgQIDAbgkIjO5Wf6gNAQLzCFz70Xs3vNTjPLWShgABAgQIECBAgAABAgQIENgjAbfS71FnqSoBAgQIECBAgAABAgQIECBAgAABAuMICIyO4ygXAgQ2KXDDrT/YZHHKIkCAAAECBAgQIECAAAECBA5PQGD08PpUiwgcvsCLz73l8BuphQQIECBAgAABAgQIECBAgMA6BQRG16krbwIECBAgQIAAAQIECBAgQIAAAQIEdlJAYHQnu0WlCBAgQIAAAQIECBAgQIAAAQIECBBYp4DA6Dp15U2AwHoErDG6Hle5EiBAgAABAgQIECBAgACBhgQERhvqbE0lcDAC1hg9mK7UEAIECBAgQIAAAQIECBAgsC0BgdFtySuXAAECBAgQIECAAAECBAgQIECAAIGtCQiMbo1ewQQIECBAgAABAgQIECBAgAABAgQIbEtAYHRb8solQGB5AWuMLm/nSAIECBAgQIAAAQIECBAgQOCygMCoXwQCBPZPwBqj+9dnakyAAAECBAgQIECAAAECBHZMQGB0xzpEdQgQIECAAAECBAgQIECAAAECBAgQWL+AwOj6jZVAgAABAgQIECBAgAABAgQIECBAgMCOCQiM7liHqA4BAnMIWGN0DiRJCBAgQIAAAQIECBAgQIAAgVkCAqOzdLxHgMBuClhjdDf7Ra0IECBAgAABAgQIECBAgMAeCQiM7lFnqSoBAgQIECBAgAABAgQIECBAgAABAuMIvHGcbORC4OAEXnr+6TIt8Xdff92p20/NaOKzT33nwv0P1Ane+aVHr7vpzfUe2wQIECBAgAABAgQIECBAgAABArsjIDC6TF+cP/PgxW8+s8yRrx9z/V133H7u7Ouv/H8XBX71g5+tq3XtFz918pY76z319pt+7Rv1y2x//9kLAqM9kxFfWmN0RExZESBAgAABAgQIECBAgACBNgXcSr9Mv68YFU2Rq+ewTL0ds4JAmT26Qh4OHU1Ad4xGKSMCBAgQIECAAAECBAgQINCqgMBoqz2v3QQIECBAgAABAgQIECBAgAABAgQaFhAYbbjzNX08gVfe/u5eZjfedlNvj5cECBAgQIAAAQIECBAgQIAAAQK7I2CN0d3pCzXZY4HbTr/jtief2OMG7FvVrTG6bz2mvgQIECBAgAABAgQIECBAYOcEBEaX6ZI8cDyP1hkemSfw/Pojj9f73/qJDw3nEiaB6YS1km0CiwpkjdGTtyx6kPQECBAgQIAAAQIECBAgQIAAgSsCAqNXLObfytPGJz5w/HuDR5Mnz8wlnD9nKQkQIECAAAECBAgQIECAAAECBAgQ2ICAwOgGkGcV8b1f/pXyduaWlijqyxd+M5NSMwW1e/eaO9976vZTJWXZeOH8C5ee/upLX/tW2dNtnPypd133/rsnRm+7BNPKffap76TQOsNkNa30XqF5mWq//JUv14dnZ3LIz9n1qbNaulF1JhNr0lVmRk1qljq3bIelF/ju5dM79uaPfLiXQ/2yq172DK2O1a4LeqX6ndmFvqvbaJsAAQIECBAgQIAAAQIECBAgsMsC11y6dGmX67dfdUvEangr/YwAWSJZF+5/oG7j6SefSFjwxXPnLn7zmXr/9Xfdcfu5s/WeHPvqY4/2ktUJsp0b+XvBuy7B/OWWDFOBWz/9wIxIayJ9zz308LH1maGRslZpVKlqF3PsdUR5t9uY2JwhS++o3svwluYMj816CxO55qzetR+9t0TJ63KHBU37nSlHTWxseTcbo/RdneGats+febD8gv3kFz918pY711SQbAkQIECAAAECBAgQIECAAIEWBDyVfrd6OVHR79738RL9mVa5RGATUT02WYKDCVYm7DUtn7I/4bbZ5aasGVml2t++59556pPY1rT6jNKoriazo6JpdaqaCtdTLwvFWBsTV6FN9cI4T/XSv3NWbxf6biy0+fPJGqPzJ5aSAAECBAgQIECAAAECBAgQIDAUEBgdmmxuz/DJ2olOHlt8AmHHRtZKJl1As7ycttGbuDox2bSsEuicp9pdntMyGaVRC9Uk9QnjnMHHiSCL7uyqF4E5D5yzelvvuzmbIxkBAgQIECBAgAABAgQIECBAYKcErDG6ze5YbtbbMBBW39Od6FvvlvZE4hJ2nHhf9rDxue26WxI0a18OQ3gTs8qior186vpkjmRvZYBkknBkuQm9O3aURqXhvZrkZSpTdg4DytlTVhu48babXr3rjmGry+G9jRzY2zP75bTqZZ3QHNgt7dorva7e7Mzz7rb67tiKtZkgH7qyXG/XremgUOTzVa8M2yaOVhMgML/AS88/nbOF/IWauDzL/PkslHIrhS5UQ4kJENhBgc2f/Gy+xB1kVyUCBMYSMKSMJbl3+QiM7mKXlQhXqVweyNNt57NadnYbb/vC5+vnMuXCKYuBnrh6uc+sRnri9FVLlPYyycsUesOZMyWrBC6HMdYkS6znxOl31IcnhFq/rKOi2Z8MT507m0joMChZjhqlUcmkF1VM/n2c99/dixonTQK7111+UFLo6oVcn3rPB0oNs3HT5x6eM7hcH1W2h9UL+FXLtp5+R8yHUKV6Javhxhb7bliZzewZzrbeTLnHlpJPTbps4m979/t5+efjF6YvAXxsERIQIHDYAt0w0vt6MoNG/ston5/TFqG+nGTJH1spdMm6OowAgR0T2PzJz+ZL3DFy1SFAYEwBQ8qYmvuZl8DozvVbLnvq8Fyvfpkz8qZqCuTEJ5gvN6nk5l/42ZO3XPXg+y7GevGee+s6JOLTm+w5DEfW6bvtHPK7/ujvLzNkb746tDpKo44itlf/l1BmifN278zZoquzGefVsHq5sh32VKB6F8PzTBrdYt+No7N4LvldOnnL4oet+YhhXHtGgUfB00ce732RMCO9twgQOHiBnJcPv72rW/3aH9xvPpD7GzL9vPfnuE45//ZWCp2/elISILDjAps/+dl8iTveBapHgMAqAoaUVfQO5liB0W12ZWa9dXNASiVmR0WTLKG0bnpjOWTiRq6X6nhlvT0xfaIzE5/xneJSpd7huYiqI3q9BInrlZvT67KS/7RI1iiN6s3RS60mTvCc2KK6nsttD7uyl8+c1ctRvb7LnjzHqQbv5bzdvutVptmXx0YWpsnkFyMfmavmDk9Laj8BAgctsNB5ef4u519Gj/pWjyV4tlLoEvV0CAECOyiw+ZOfzZe4g+yqRIDAWAKGlLEkDyAfgdFtdmKZQVkqkaBY2V5io7snvaxsuEQOw0MWjdMdRVEfejhHTZzNOsz/2D2jNyoTcrs8u6IzX/XYOhybYNiVxx4yLcErR0uOPl6/O1y+oH53xvbW+25G3Q7prWl/UxOdTxekQ7vfsQS4u89m75uG7iMjNnpIvxLaQmAhgWljSMmk9wVk2Z/R4+J9H7/0iQ8tMXV0K4WWmtsgQGDfBaaNIes7+dl8ifveR+pPgMAMAUPKDJwG3xIY3a1OvxwUW6BKCfCVMGgv2rJALidOLFpunXmmq+TCrN5zdKl29Oz1x7/7+hOBkv/E+Zv1UWV7lEYlIFUyHG7MX5nhsaPsmVG91K03j3h2iTvVd7OrOuK7u7PG6MS/qZnGO5w3fTTt9/JKsnHozdI6+rw89LDY6Ii/IbIisC8CE8eQVD7DSO/7xaTMEsYvDR6NmInnC/2RTeZbKXRfekQ9CRA4VmDiGLLWk5/Nl3gsggQECOyvgCFlf/tuTTUXGF0T7HqzzSd52gNe1lvwpNyzjmemq/RuFS8JS5A0wb6JJ0wl5SqNyrElnx3c2NnqjdV3mzffnTVG80m8/DXAFYPeI7+uvFFtZXpXQh4vnjtXju1iozPWF66OtkmAwOEIDBcVzd/KiTNAu2Vn8lb+pvSOunD/AycWeUJg7/BobqDQw+kzLSHQvMDmT342X2LznQyAwCELGFIOuXeXatsbljrKQeMILDfrLXPNvn3PvdMCkV3NchvLOFWcL5dcpyUYdGyhqXNqnvoPc12xUblJeZjnJvfM7sqtV28Gxep9NyPzg38rs5vrT2I+Au/80qO9R35NQ0iyTBGtPzWJjdaLPEw70H4CBA5GIH/7yrcjaVQGhPwxnRgVrZucCGm+REkos96Z2OicX8JtpdC6qrYJENhrgc2f/Gy+xL3uIJUnQGC2gCFltk+b75oxus1+X2JhylzP1IGYUvvuAik302U1w1wy9S57SrL1bSTKc+rc2RfOv3Dp6a8Ob/Sry039ezf9rd6oRW8/r+szyvbsrtx69Wa3cZW+m53zwb97NEur+m/Re+HzUc0hF++5t+SRDG/44qe6X6dE221AyO8GhENFyEo49R/0REUXGkO6+GmdQ+aBHjvrPH+m60M2U2gZ4mwQIHAAAus4+bntySdmyKyjxMyy9+c15hAgNHi5ceH+z9YDzkJnXzlw4hXc7EGsLs72bgoIjO5mv0yuVSaD1NczSZRLmms/eu/WV8ws1T2aK3f7h7urtXwVM/FRM0mc85sydux+o0rrNrMx55Sf0SuzRN+NXof5M8xp3PyJ15Qyv+F1zjd97uH8maz3zLOdQ3Jgfcb/qx987U91mQVtI5IQIHQfqAP7TahHiUXPy3NsLzbazTqffUqQFTxGL/T8mQfrPG0TINCOwFgnP5kkMW2y/JpOt3LqdWB/UDQnnzsIELrhd57fhC7lBgaxriA/d1xAYHTHO+iq6mUtjPr1jIkembNZp9zK9tG12eVHzeSE5tXHHq3vFkx9srO7eFtToyIw4wQr9SkmeQ7StJQlzegbM6q3C/fdz9l3o7PMn2G+2zx5y/zJ15Ky/i3Kh3F2MGJGDXLgq3fd0fuAzEjvLQIEDk8gt30s8c1KHPL3q/7G9GhcOn12mk++eKuHmrEKrfOcVrT9BAgcnsCIJz8zToydbh3eb44WEdgRgc0MYjvSWNWYLWCN0dk+63130VlvvXBnInoTr6N6Vz7rbcMcuSfuM3wIeyaTdoeO1aiMa3Vdcp02beplTrDybvlXX1LWOfS2S4V7+7uXx3bl/NUbFpSn9EwsdAM7Z/fdBiqwy0XUsYBM3F6lqisevkrRjiVAYBcEVvl+LpMdShNm/O1Lmt43kWMVWkq3QYBAUwIrnr3Uh9fnVD3D+q36kF6yeV6uePg8RUhDgMAeCaw4JtSH1yPVHgmoahEQGC0UW9joVvRYuuBeSLHk07vyKfvXsZHVynIPXfmXG2EmlvLK2989cf9w59KNGsZeJzoMV1/thSyHVer2pGLTIq1JcGxXzlm9FNEL1KZ6Rze5r+G/0ftuDXXc3Sx7N3YtPV20a+GKh+8uk5oRIDCHQO8xSnMccVWS3gAy47aD+i/suIVeVSEvCBBoQ6A3+Cza6N7hvTOrLrfezt4hK5a46OHSEyBwYALjDim98erArA6+OQKj+9TFveBavpcYBiKzpxdZW2sL86ilVKP8S9HDKqUC9V0wXX3KLMixGnXd++/utbSrTIlmZmMiTq8CJZPeRWPamOdaJIfyL4HFkvjYjWnVqw9Mhimi3pPtadXrJVvi5ep9t0ShYx1y7BTdsQqalk89sXfO2Pq0rLr9o2QyuwjvEiCwmwLDPxCL1rP+g1WPTr188oes7Bm30JKtDQIEGhEY5bylzmTi2FXvrBMvjTxKJkuX7kACBHZHYJTRoM6kHq92p5lqMqeANUbnhNqJZEeXMY88Xlclsb/8666Iupkg9WVPnXJN2xOrlJoknPfK5VmiGSDyslerjCBlFuTEHJZoVFYViEMOrFt69PLqPfW72U5Npt1LeLn+V+WWVtQNuf6ub506N3Upt15B06qXGpbxtM68OzxvrX7t2qtJeTlRfqG+K1ltfmMX1hgtrR4leJ1Mhr8ApQgbBAgcsMDEVXGWbm+G8Yl/13pf5o1b6NK1dSABAnsqsPmTn82XuKddo9oECMwjYEiZR6mdNAKj2+zrzHq7sEj5E4NryaAXDcyeBNQ2E2RJlXrP1E7pKfpy6VdFFeuG3nDmTHk5YqO6S8GhRimrtxGlPAW4t7O8zNT6cR+JM616M3oqUOu7dl2974qVDQIECBBYTqB8N7bc4d1Rw2/yhrn98OLLZefGCi0l2iBAgAABAgQIECCwmwJupd9mvxy7MOWwcgmu1XfMDRNkTy546pWAJ6YZcWcCiImNznmVlWRv+8Lny3TRrhojNmqerLpCU5NERWeHHZPgWO2FJBeq3hBqobLmSbx6381TijQECBAgsHWBra9AsnUBFSBAgAABAgQIECAwFDBjdGiy/J7hlI3Le6ZmeONtN/VmjGbP1NSvv5HgWrLtHq3++r7X/t+FRBPtynqadc69qOVb33VN/W4OnnG9dHkx0Kvmfg4rmRJPnD6bxTdfGtw1X2qYOmS+eipf9tQbqzeq5JascpN4nrw0bepoUSqHTNtI2PS6y9oTFwSop98Pu/LIZNJ/81RvBtQO9t2kVq5934zf2LWXPSggv/bTfrEHaafuSCZT3/MGAQIEZgrMcwPKEt/Fzizz6Myhdy4xO713CRA4JIHNn/xsvsRD6i9tIUCgJ2BI6YE0/vKaS5cuNU6wv81P9DMPn+1W+X3l7e9ObG72/MfNtLSrVcoqFcv2/HUbt1EvPf90LgXrmkyLV24Gp1dKXb28tfVOXLHveq0b/eX5Mw+WZQcySXm7XZnHDl64/8o6DKeffGLF9tatWzErhxMgsF8Cqw8g9aMF8+Xf7ZPWv84I/+177i0y4xZasrVBgEA7AqsPI/XJz8RTO6db7fw6aSmBzQtsYBDbfKOUuJyAGaPLue3EUUfzGW9684kpMxO3VcXXapXil6rYuI06ecudJ29ZsiYbANy16q3YdxsQ250ienOE81ST3gIRC1U1AYsS813oQIkJEDgAgRUHkAhk1kNxqO9mKDuzcXTCUP03bqFVxjYJEGhFYMVhpHfykzOrIZzTraGJPQQIjCWwgUFsrKrKZ90C1hhdt7D8CRA4QIGEGOoVKl48d26VRj730MOrHO5YAgT2WuDS019dsf71Nyu5+WBabvWoNW6h00q0nwCBAxYY8eQno1Pvy5vOzenWAf/+aBqBrQtsYBDbehtVYE4BgdE5oSQjQGCHBHZhjdF6WlaiEvnKcTmg3oyJ5TJxFAEC+yuQFbEzDixd/9xHXx87Y5mRetQat9C6ArYJEGhEYMSTn3p06unVb41YYq8ULwkQaFBgxCGlHqkalDyAJguMHkAnagKB5gRGf4rIEoK9By4t/ZWj6aJL4DuEwIEJ5IGBy7UoEdX6SYP1nNBhhnkyYb1zrELrPG0TINCUwFgnP73RqTZ0ulVr2CZAYFyBDQxi41ZYbmsSsMbommBlS4DA4Qu89RMfKiGJfOWYZwhMfObJDIj6sQNdstlxjRlZeYsAgf0SyKBRKpyRJLfAz5jsWVL2NnrfrNz66SsPheulzMvuptRS7liFDguyhwCBRgTGOvmZeB99MXS6VShsECAwikA5FxplEMsYNXsQG6XOMlmrgKfSr5VX5gQIjCZQxxAnPrp0tJIWyaiuVY5LWDOBiTn/NA6PXTSuukhNpSVAYOcEnnrPB+o6ve0Ln1/oMW69MSTn5b2pVXXmZXvcQjPoXfvRe7vMs8hJN53fRkAgQDjgj8Orjz1awgrp6BVPfjKGHPu1UG+4W7FEp1vdoO0ngWYFDCnNdv20hguMTpOxnwCB3RKo/4D95Bc/dfKWO3ehfrmP9dv33FvXpAsTzD7Ff/ap71y4vz+x651fenTOiGpdnG0CBPZXYDgUzBnczMiTuaLLBSa2Uuj+9pGaEyAwFNj8yc/mSxy22h4CBA5GwJByMF05VkMERseSlA8BAusVqAOjuzNjNG3OY5e+e9/He41PeDSLcGfNrDrWmb/BWdTvpa99qw5ndAcuOlOsV5yXBAjsqUA9snVNOHYmVJ62VBbxKK1eaAzZSqGlqjYIEDgAgc2f/Gy+xAPoJk0gQGCagCFlmkyb+wVG2+x3rSawfwL1lfxOBUZD+dLzT//qBz87zTRhjrw1DIaW9AtFNMpRNggQOAyBiYHO7suVLDz6u6+/LvfXZ5pnGtu7fbU0f4kxZCuFlgrbIEDgAAQ2f/Kz+RIPoJs0gQCBaQKGlGkyDe4XGG2w0zWZwF4K7HJgtAOtazgn8bFTw+bMRzICBPZaYGKYcp4WZQy54cyZhVYmLdlupdBSug0CBA5DYPMnP5sv8TB6SisIEJgoYEiZyNLaToHR1npcewnsq0D9R2t31hjtaWZW17QpXb2UCWfM87SB3lFeEiBwqALDpT+PbenRU1CvXq/j2EN6CbZSaK8OXhIgsO8Cmz/52XyJ+95H6k+AwAwBQ8oMnEbeEhhtpKM1k8DeC9SB0V27lb6HmzVrLj391YlriXa3x15z53uXm+HVK8hLAgQOTGDOSOW4k823UuiBdZzmECCw+ZOfzZeolwkQOGABQ8oBd+6xTRMYPZZIAgIEdkJgjwKjPa8EHbLnxttuqh/E1EvjJQECBIpAOTXPnm554kRCs51HuuXnzR/5cEk54sZWCh2x/rIiQGCnBDZ/8rP5EncKXGUIEBhXwJAyrueO5yYwuuMdpHoECLwmsL+BUV1IgAABAgQIECBAgAABAgQI7KDAG3awTqpEgACB2QI33PqD2Qm8S4AAAQIECBAgQIAAAQIECBCYLSAwOtvHuwQI7KLAi8+9ZRerpU4ECBAgQIAAAQIECBAgQIDA/ggIjO5PX6kpAQIECBAgQIAAAQIECBAgQIAAAQIjCQiMjgQpGwIECBAgQIAAAQIECBAgQIAAAQIE9kdAYHR/+kpNCRB4XcAao69L+D8BAgQIECBAgAABAgQIECCwpIDA6JJwDiNAYIsC1hjdIr6iCRAgQIAAAQIECBAgQIDAYQgIjB5GP2oFAQIECBAgQIAAAQIECBAgQIAAAQILCAiMLoAlKQECBAgQIECAAAECBAgQIECAAAEChyEgMHoY/agVBNoSsMZoW/2ttQQIECBAgAABAgQIECBAYA0CAqNrQJUlAQJrFrDG6JqBZU+AAAECBAgQIECAAAECBA5fQGD08PtYCwkQIECAAAECBAgQIECAAAECBAgQ6AkIjPZAvCRAgAABAgQIECBAgAABAgQIECBA4PAFBEYPv4+1kMDhCVhj9PD6VIsIECBAgAABAgQIECBAgMCGBQRGNwyuOAIERhCwxugIiLIgQIAAAQIECBAgQIAAAQJtCwiMtt3/Wk+AAAECBAgQIECAAAECBAgQIECgSQGB0Sa7XaMJECBAgAABAgQIECBAgAABAgQItC3wxrabr/UECOylwKuPPXr+sRFqfsOZM6duPzVCRrIgQIAAAQIECBAgQIAAAQIE9k1AYHTfekx9CRA4ceLiN58ZheHaiy+fOCEwOoqlTAgQIECAAAECBAgQIECAwJ4JuJV+zzpMdQkQGFHA0+1HxJQVAQIECBAgQIAAAQIECBDYLwGB0f3qL7UlQGBMAU+3H1NTXgQIECBAgAABAgQIECBAYK8Errl06dJeVVhlCRBoVOCF8y/88OLLmePZRTNH2Xjru655w4+/vVFQzSZAgAABAgQIECBAgAABAm0LCIy23f9aT4AAAQIECBAgQIAAAQIECBAgQKBJAbfSN9ntGk2AAAECBAgQIECAAAECBAgQIECgbQGB0bb7X+sJECBAgAABAgQIECBAgAABAgQINCkgMNpkt2s0AQIECBAgQIAAAQIECBAgQIAAgbYFBEbb7n+tJ0CAAAECBAgQIECAAAECBAgQINCkgMBok92u0QQIECBAgAABAgQIECBAgAABAgTaFhAYbbv/tZ4AAQIECBAgQIAAAQIECBAgQIBAkwICo012u0YTIECAAAECBAgQIECAAAECBAgQaFtAYLTt/td6AgQIECBAgAABAgQIECBAgAABAk0KCIw22e0aTYAAAQIECBAgQIAAAQIECBAgQKBtAYHRtvtf6wkQIECAAAECBAgQIECAAAECBAg0KSAw2mS3azQBAgQIECBAgAABAgQIECBAgACBtgUERtvuf60nQIAAAQIECBAgQIAAAQIECBAg0KSAwGiT3a7RBAgQIECAAAECBAgQIECAAAECBNoWEBhtu/+1ngABAgQIECBAgAABAgQIECBAgECTAgKjTXa7RhMgQIAAAQIECBAgQIAAAQIECBBoW0BgtO3+13oCBAgQIECAAAECBAgQIECAAAECTQoIjDbZ7RpNgAABAgQIECBAgAABAgQIECBAoG0BgdG2+1/rCRAgQIAAAQIECBAgQIAAAQIECDQpIDDaZLdrNAECBAgQIECAAAECBAgQIECAAIG2BQRG2+5/rSdAgAABAgQIECBAgAABAgQIECDQpIDAaJPdrtEECBAgQIAAAQIECBAgQIAAAQIE2hYQGG27/7WeAAECBAgQIECAAAECBAgQIECAQJMCAqNNdrtGEyBAgAABAgQIECBAgAABAgQIEGhbQGC07f7XegIECBAgQIAAAQIECBAgQIAAAQJNCgiMNtntGk2AAAECBAgQIECAAAECBAgQIECgbQGB0bb7X+sJECBAgAABAgQIECBAgAABAgQINCkgMNpkt2s0AQIECBAgQIAAAQIECBAgQIAAgbYFBEbb7n+tJ0CAAAECBAgQIECAAAECBAgQINCkgMBok92u0QQIECBAgAABAgQIECBAgAABAgTaFhAYbbv/tZ4AAQIECBAgQIAAAQIECBAgQIBAkwICo012u0YTIECAAAECBAgQIECAAAECBAgQaFtAYLTt/td6AgQIECBAgAABAgQIECBAgAABAk0KCIw22e0aTYAAAQIECBAgQIAAAQIECBAgQKBtAYHRtvtf6wkQIECAAAECBAgQIECAAAECBAg0KSAw2mS3azQBAgQIECBAgAABAgQIECBAgACBtgUERtvuf60nQIAAAQIECBAgQIAAAQIECBAg0KSAwGiT3a7RBAgQIECAAAECBAgQIECAAAECBNoWEBhtu/+1ngABAgQIECBAgAABAgQIECBAgECTAgKjTXa7RhMgQIAAAQIECBAgQIAAAQIECBBoW0BgtO3+13oCBAgQIECAAAECBAgQIECAAAECTQoIjDbZ7RpNgAABAgQIECBAgAABAgQIECBAoG0BgdG2+1/rCRAgQIAAAQIECBAgQIAAAQIECDQpIDDaZLdrNAECBAgQIECAAAECBAgQIECAAIG2BQRG2+5/rSdAgAABAgQIECBAgAABAgQIECDQpIDAaJPdrtEECBAgQIAAAQIECBAgQIAAAQIE2hYQGG27/7WeAAECBAgQIECAAAECBAgQIECAQJMCAqNNdrtGEyBAgAABAgQIECBAgAABAgQIEGhbQGC07f7XegIECBAgQIAAAQIECBAgQIAAAQJNCgiMNtntGk2AAAECBAgQIECAAAECBAgQIECgbQGB0bb7X+sJECBAgAABAgQIECBAgAABAgQINCkgMNpkt2s0AQIECBAgQIAAAQIECBAgQIAAgbYFBEbb7n+tJ0CAAAECBAgQIECAAAECBAgQINCkgMBok92u0QQIECBAgAABAgQIECBAgAABAgTaFhAYbbv/tZ4AAQIECBAgQIAAAQIECBAgQIBAkwICo012u0YTIECAAAECBAgQIECAAAECBAgQaFtAYLTt/td6AgQIECBAgAABAgQIECBAgAABAk0KCIw22e0aTYAAAQIECBAgQIAAAQIECBAgQKBtAYHRtvtf6wkQIECAAAECBAgQIECAAAECBAg0KSAw2mS3azQBAgQIECBAgAABAgQIECBAgACBtgUERtvuf60nQIAAAQIECBAgQIAAAQIECBAg0KSAwGiT3a7RBAgQIECAAAECBAgQIECAAAECBNoWEBhtu/+1ngABAgQIECBAgAABAgQIECBAgECTAgKjTXa7RhMgQIAAAQIECBAgQIAAAQIECBBoW0BgtO3+13oCBAgQIECAAAECBAgQIECAAAECTQoIjDbZ7RpNgAABAgQIECBAgAABAgQIECBAoG2BN7bdfK0nQGBvBF56/ukXn3vLDbf+ID9T6VE2bjv9jr1pv4oSIECAAAECBAgQIECAAAECowpcc+nSpVEzlBkBAgTWInD+zIMXv/nMuFmffvKJcTOUGwECBAgQIECAAAECBAgQILAvAm6l35eeUk8CBAgQIECAAAECBAgQIECAAAECBEYTEBgdjVJGBAgQIECAAAECBAgQIECAAAECBAjsi4A1Rvelp9STAIErAtffdceVF7YIECBAgAABAgQIECBAgAABAosLCIwubuYIAgS2LXDtR+/13KRtd4LyCRAgQIAAAQIECBAgQIDAfgu4lX6/+0/tCRAgQIAAAQIECBAgQIAAAQIECBBYQkBgdAk0hxAgsGWBG279wZZroHgCBAgQIECAAAECBAgQIEBgzwUERve8A1WfQJMCLz73libbrdEECBAgQIAAAQIECBAgQIDAaAICo6NRyogAAQIECBAgQIAAAQIECBAgQIAAgX0REBjdl55STwIECBAgQIAAAQIECBAgQIAAAQIERhMQGB2NUkYECGxMwBqjG6NWEAECBAgQIECAAAECBAgQOFQBgdFD7VntInDIAtYYPeTe1TYCBAgQIECAAAECBAgQILARAYHRjTArhAABAgQIECBAgAABAgQIECBAgACBXRIQGN2l3lAXAgQIECBAgAABAgQIECBAgAABAgQ2IiAwuhFmhRAgMKqANUZH5ZQZAQIECBAgQIAAAQIECBBoUUBgtMVe12YC+y5gjdF970H1J0CAAAECBAgQIECAAAECWxcQGN16F6gAAQIECBAgQIAAAQIECBAgQIAAAQKbFhAY3bS48ggQIECAAAECBAgQIECAAAECBAgQ2LqAwOjWu0AFCBBYWMAaowuTOYAAAQIECBAgQIAAAQIECBC4WkBg9GoPrwgQ2AcBa4zuQy+pIwECBAgQIECAAAECBAgQ2GkBgdGd7h6VI0CAAAECBAgQIECAAAECBAgQIEBgHQICo+tQlScBAgQIECBAgAABAgQIECBAgAABAjst8Madrp3KHZzA+TMPXvzmM6s06/q77rj93NlVcnDsAQhYY/QAOlETCBAgQIAAAQIECBAgQIDAdgXMGN2uf3OlrxgVjdfqOTSHfogNtsboIfaqNhEgQIAAAQIECBAgQIAAgY0KCIxulFthBAgQIECAAAECBAgQIECAAAECBAjsgoDA6C70gjoQIECAAAECBAgQIECAAAECBAgQILBRAYHRjXIrjACBUQSsMToKo0wIECBAgAABAgQIECBAgEDLAh6+1HLvb6Ht7/zSo99/9sKw4Df92jd+/ZHH6/1v/cSHXnn7u+s93faNt9003GlPawJZY/TkLa01WnsJECBAgAABAgQIECBAgACBMQUERsfUlNexAtfd9Ob8Gyb73q99Y7jzttPvGO60hwABAgQIECBAgAABAgQIECBAgMDqAgKjqxvKYTsC3/vlXykFZ25piaK+fOE3Myk1U1C7d6+5872nbj9VUpaNF86/cOnpr770tW+VPd3GyZ9613Xvv3ti9LaXMi9T1stf+fKKmUzLJzXJW/NXZlg9ewgQIECAAAECBAgQIECAAAECBKYJCIxOk7F/pwWefeo7F6669f7x2558IrHOF8+du/jNZ+qqX3/Xt06dO1vvybGvPvZoL1lJcLT/kcdzI//siGQXEu3d/t/L5Pq77rj10w/MjrHOyOe1Gs5RmVJuOxvWGG2nr7WUAAECBAgQIECAAAECBAisSUBgdE2wst20QKKi373v48eWmnmmV0dUJx+RiOf1X/vWtLDmnGUlsnnxnnsTY735Ix+eWEyios899PC0EG05ZHZlSrKmNqwx2lR3aywBAgQIECBAgAABAgQIEFiHgKfSr0NVnmsXGE4YnCcqmrmi0+Z4DmuceGWilsP9iWbOU1Y5MCXWd/2X/XNGRbv0XWVySDncBgECBAgQIECAAAECBAgQIECAwCoCZoyuoufYrQlkwuASZV+4/4HeUfV0zmGkMuHIxFLL6qXdsROjpcmn5DyMvWbP8Mb8LE7amyta37+fyiRBnVUSn/zKl6+bMvm0lG5jRwTym5OFbrv1Z7uOztIKqVuWjq2XxN2R2qoGAQIECBAgQIAAAQIECETApVxrvwYCo631+IG3N7Gn7plFpZ15+FK3ndGt7Ow23vaFz9fPZcpioLl3/sTV97ZnNdITp68sUZpMetHMZNXP5/13D2+QT5Szjmkm7lkHPZNJHaLNy1Qm6RNWq4ubGGDt2tLaz+GU4R0RGEa0S8W6rrz88/ELl3t8GC4viW0QIECAAAECBAgQIECAwMYEXMptjHrXChIY3bUeUZ/lBRIVvf3q5yzVed14201vquZ1Tnxa/ewHJSW38rD7kvNNn3u4jq5mfxdgzeqiJU02EtOsVxpNnLR+N9uJkfX25GWa89R7PlDv7wVY67ea2t7NNUazZkIv3j2jU45SXn6yVv2LMSO9twgQIECAAAECBAgQIEBgHQIu5dahui95CozuS0+p51UCmTCYOXf1f7OjoknZzcGsD5m4nQmn9STNejvpe2GvFNq70b7LM2Xlrd6xdXHdHdZlz9FN9De9ubysN/JWXWgOFEerfXZkO98uDqcJz1O3dG76dNpjvubJQRoCBAgQIECAAAECBAgQWE7Apdxybod0lMDoIfVmQ20ZrjHau4N+UYvuRvuyKOSihw/TZ7JnffN+5qvWaWbETOtkw+2lDxxmZc9YAtP+lCY43q0o2vX+95+90P2C9Trx6OVDD4uNjtUd8iFAgAABAgQIECBAgMA8Ai7l5lE6+DQCowffxa008JW3v3uhpiZqWcKgvUDV/PnMjsZOnEyazF84/0KviN4E0vrd4VsZu6dNL60PPOzt3VljdOKf0vo5WqUjjnrt9Du6Cb+9OzXERouSDQIECBAgQIAAAQIECGxAwKXcBpD3ogiB0b3oJpUcTSBjX+9p7/NnnWPnTzwj5Q8vvtx7N3Gx+YOzmXgoMLo7a4zm16nXd72HcfX6unuZ8GhWuX3x3Lly7NHGQw/PWCR3Yj52EiBAgAABAgQIECBAgMASAsPF0Oa/lPvufR8vJbqUKxR7uvGGPa23ajcusNyEwUzT+/Y999ZLdg4Zc/vzcGe3JxHJaW8ttH+5yi9UhMSbEci84/rXKb887/zSo72HcU2rSZLl9vn69y1/UOvlF6YdaD8BAgQIECBAgAABAgQIrCKQK68ySSX5LHopd/rJJ1zKreK/U8cKjO5Ud6jMvALDNUaPPbJ383JJn7ue8y8Pl09IK6PbjLvjp90aX7Kac2OJypecM/j2listb9nYvMCF+x+oC110ndDM/M0hdQ69DOu3bBMgQIAAAQIECBAgQIDAKAK9K69FL+VSB5dyo3TELmTiVvpd6AV1WLtA7oKvZ/alvEQYr/3ovWPFOhdqQCKbvamnicx61vxChrsw67Y3uzOx9SWWOMghObD+q3z+zIMLUUhMgAABAgQIECBAgAABAksLjHUplyvErUQYlm64AzsBgVG/CU0IZCHIup2Jik77Rmj4sKP6wN52Ek8LaGZMfPWxR0v6TEQtKZcIn5V8bHQCu7DGaN2/+Y1a+k9gDnz1rjvKfRxlQ18TIECAAAECBAgQIECAwFoFRryUO7pCPH12rbWV+ToE3Eq/DlV5rl1g0QmDvXBnwpQTo5OZWDo7LJVBs25bEk97IlPGxLxb/g3nq9b59N6t37K9swL1r0pmH69SzxUPX6VoxxIgQIAAAQIECBAgQKBZgRWvxerD6yvEZj33seECo/vYa+p8YpVlOsPXi5MW0N7E0rK/bAxXIJ14SNYz7Y2JvYjqMJ8cUkopG4m65sbqp97zgfJvYrKS3sbGBHr30S89XbSr8IqHb6zVCiJAgAABAgQIECBAgMAhCax4LdY7vHedeEhQB9wWgdED7lxNuyLQC0QmajmMMGbPsTM3r3v/3VcyvbyVQ3JgmTeajYn59CpQbqsvuSWfF86/UF5mI1k999DDvQBrnaDl7UWnDI9u9aZf+0bJsxf1LvsX2hglk4VKlJgAAQIECBAgQIAAAQItC4xyFVZnUl8ntgy7X223xuh+9ZfaLilwFNB85PH64AQi8y9PPcrObgLpPCHI3ICfQ3JgL6te5vW72c5AOYyE9h65k2Tfve/jly7Xpzu8V0qXzzAy2yVu7ecurDFazHtR77J/oY1kMs9v4EJ5SkyAAAECBAgQIECAAAEC0wRcyk2TaWq/wGhT3X04jc2EwQuLtGZiQDMZTAw+zo5PdSHO4YHTqpOoaB70NHw3U+7rR+50CWZne8OZMxOXRh1mbg8BAgQIECBAgAABAgQIECBAgMBsAbfSz/bx7o4KLLHGaAKa3fzQGU1KELNeO3laynmy6o7toqLTopm3nzt7bJVKPu/80qOnbj81rUr2EyBAgAABAgQIECBAgAABAgQILCRgxuhCXBKvS+CVt7/7xImr7k+/vGdqcTfedlNvxmj2TE39+hsJaCbb7nnxr+977f9dSDSzOLOyZ51z9vdSdi+TVe5qz5OXps3xLBlOPLzsPDafRE5T596KzuXwZje2vsZoLf/S176Vfqz3LLGdTJY4yiEECBAgQIAAAQIECBAgsJyAS7nl3A7sKIHRA+vQfW1OAn+3PfnE/LXPHMzTi6QvOR9FGE+fTfTz+89e6NZFTtgxQdUyqXP+nJPyuo98OBGxl55/OjNYS24pa6E45lj5lDa2sLH1NUbza1NC+bPXXmihO7SRAAECBAgQIECAAAECbQrU14OXrxPbZNjjVguM7nHnqfrSAkexyJvefCJB0jH+O3nLnSdvObF6bmPlM0ab5HGMQG/O8gvnX1hloYNE6uu/pseU7W0CBAgQIECAAAECBAgQWFkgV2G5FjsKDiz7X64E60PnuZO1Tm97FwSsMboLvaAOBAjsmUD+dtbLLLx47twqDXjuoYdXOdyxBAgQIECAAAECBAgQILCEwIrXYvWVYK4QV4mxLlF5h4wiIDA6CqNMCBDYqMAurDF68qfeVdqcbxp7XxWWt47dMF30WCIJCBAgQIAAAQIECBAgsA6BbtLocjnnGrC+86++QlwuQ0dtRUBgdCvsCiVAYCWBrDG60vFjHNx74FL9VeFC2a/4FeVCZUlMgAABAgQIECBAgAABArXA0ldkvWvA3hViXYTtXRYQGN3l3lE3AgR2WuCtn/hQqV++Kjx/5sHycs6NHFJ/x1jfnj9nDpIRIECAAAECBAgQIECAwNICo1zK1deGS9fEgVsR8PClrbArlACBQxDIV4Ivfe1bJbLZ/UG99dMPzLmyzDAqmmOvffZCFgropsTayG8JBAg+Dj4FPgU+BT4FPgU+BT4FPgU+BaN/Cl597NERL+VMF82HdE//u+bSpUt7WnXVJkCgKYE6jPiTX/zUyVvu3IXmZ4XQb99zb12TzPq89qP33nb6HfXO3vazT33nwv0P9Ha+80uPzhlR7R3oJQECBAgQIECAAAECBAgsJOBSbiGuA04sMHrAnatpBA5KoA6M3vS5h2dHHjfZ8iy5/d37Pt4rMeHRrL193fvvrmOd+dP78le+XE8yLUe97QufP3X7qfLSBgECBAgQIECAAAECBAisVcCl3Fp59yVzgdF96Sn1JNC6wM4GRtMxLz3/9K9+8LPTeqhbObTcpjFMJio6NLGHAAECBAgQIECAAAEC6xZY5VIuF3o3nDljgsu6+2jd+Xv40rqF5U+AwOEL5L7+008+0QVAh61NSHRaVDSH5A56f0qHaPYQIECAAAECBAgQIEBg3QKrXMrlEREu5dbdQRvI38OXNoCsCAIERhbIwtsj5zhGdrefO5vFQ+s1vGfkmpDosUuRzjjcWwQIECBAgAABAgQIECAwioBLuVEY9zQTgdE97TjVJtC0QJ7JePKWXRQ4Wvn09NksVXPp6a9OXEs08dCsPXrNne/11eIu9p86ESBAgAABAgQIECDQpIBLuSa7/ajR1hhttus1nMCeCezyGqOzKTONNAluvO2m+kFMsw/xLgECBAgQIECAAAECBAhsUSDPzv3+sxdSgd158O8WNQ64aDNGD7hzNY0AgZ0Q8Hd0J7pBJQgQIECAAAECBAgQIDC3QOa1mNoyt9YeJ/TwpT3uPFUn0KzAbq4x2mx3aDgBAgQIECBAgAABAgQIENhHAYHRfew1dSbQukDWGG2dQPsJECBAgAABAgQIECBAgACB1QQERlfzczQBAgQIECBAgAABAgQIECBAgAABAnsoIDC6h52mygQIECBAgAABAgQIECBAgAABAgQIrCYgMLqan6MJENiGgDVGt6GuTAIECBAgQIAAAQIECBAgcFACAqMH1Z0aQ6ARAWuMNtLRmkmAAAECBAgQIECAAAECBNYnIDC6Pls5EyBAgAABAgQIECBAgAABAgQIECCwowICozvaMapFgAABAgQIECBAgAABAgQIECBAgMD6BARG12crZwIE1iVgjdF1ycqXAAECBAgQIECAAAECBAg0IyAw2kxXayiBAxKwxugBdaamECBAgAABAgQIECBAgACB7QgIjG7HXakECBAgQIAAAQIECBAgQIAAAQIECGxRQGB0i/iKJkCAAAECBAgQIECAAAECBAgQIEBgOwICo9txVyoBAqsIWGN0FT3HEiBAgAABAgQIECBAgAABAhEQGPVrQIDA/glYY3T/+kyNCRAgQIAAAQIECBAgQIDAjgkIjO5Yh6gOAQIECBAgQIAAAQIECBAgQIAAAQLrFxAYXb+xEggQIECAAAECBAgQIECAAAECBAgQ2DGBN+5YfVSHAAECxwu8+tij5x87PtmxKW44c+bU7aeOTSYBAQIECBAgQIAAAQIECBAgcHgCAqOH16daRODwBS5+85lRGnntxZdPnBAYHcVSJgQIECBAgAABAgQIECBAYM8E3Eq/Zx2mugQIjCjg6fYjYsqKAAECBAgQIECAAAECBAjsl4DA6H71l9oSIDCmgKfbj6kpLwIECBAgQIAAAQIECBAgsFcC11y6dGmvKqyyBAg0KvDC+Rd+ePHlzPHsopmjbLz1Xde84cff3iioZhMgQIAAAQIECBAgQIAAgbYFBEbb7n+tJ0CAAAECBAgQIECAAAECBAgQINCkgFvpm+x2jSZAgAABAgQIECBAgAABAgQIECDQtoDAaNv9r/UECBAgQIAAAQIECBAgQIAAAQIEmhQQGG2y2zWaAAECBAgQIECAAAECBAgQIECAQNsCAqNt97/WEyBAgAABAgQIECBAgAABAgQIEGhSQGC0yW7XaAIECBAgQIAAAQIECBAgQIAAAQJtCwiMtt3/Wk+AAAECBAgQIECAAAECBAgQIECgSQGB0Sa7XaMJECBAgAABAgQIECBAgAABAgQItC0gMNp2/2s9AQIECBAgQIAAAQIECBAgQIAAgSYFBEab7HaNJkCAAAECBAgQIECAAAECBAgQINC2gMBo2/2v9QQIECBAgAABAgQIECBAgABzK1YnAAAP6ElEQVQBAgSaFBAYbbLbNZoAAQIECBAgQIAAAQIECBAgQIBA2wICo233v9YTIECAAAECBAgQIECAAAECBAgQaFJAYLTJbtdoAgQIECBAgAABAgQIECBAgAABAm0LCIy23f9aT4AAAQIECBAgQIAAAQIECBAgQKBJAYHRJrtdowkQIECAAAECBAgQIECAAAECBAi0LSAw2nb/az0BAgQIECBAgAABAgQIECBAgACBJgUERpvsdo0mQIAAAQIECBAgQIAAAQIECBAg0LaAwGjb/a/1BAgQIECAAAECBAgQIECAAAECBJoUEBhtsts1mgABAgQIECBAgAABAgQIECBAgEDbAgKjbfe/1hMgQIAAAQIECBAgQIAAAQIECBBoUkBgtMlu12gCBAgQIECAAAECBAgQIECAAAECbQsIjLbd/1pPgAABAgQIECBAgAABAgQIECBAoEkBgdEmu12jCRAgQIAAAQIECBAgQIAAAQIECLQtIDDadv9rPQECBAgQIECAAAECBAgQIECAAIEmBQRGm+x2jSZAgAABAgQIECBAgAABAgQIECDQtoDAaNv9r/UECBAgQIAAAQIECBAgQIAAAQIEmhQQGG2y2zWaAAECBAgQIECAAAECBAgQIECAQNsCAqNt97/WEyBAgAABAgQIECBAgAABAgQIEGhSQGC0yW7XaAIECBAgQIAAAQIECBAgQIAAAQJtCwiMtt3/Wk+AAAECBAgQIECAAAECBAgQIECgSQGB0Sa7XaMJECBAgAABAgQIECBAgAABAgQItC0gMNp2/2s9AQIECBAgQIAAAQIECBAgQIAAgSYFBEab7HaNJkCAAAECBAgQIECAAAECBAgQINC2gMBo2/2v9QQIECBAgAABAgQIECBAgAABAgSaFBAYbbLbNZoAAQIECBAgQIAAAQIECBAgQIBA2wICo233v9YTIECAAAECBAgQIECAAAECBAgQaFJAYLTJbtdoAgQIECBAgAABAgQIECBAgAABAm0LCIy23f9aT4AAAQIECBAgQIAAAQIECBAgQKBJAYHRJrtdowkQIECAAAECBAgQIECAAAECBAi0LSAw2nb/az0BAgQIECBAgAABAgQIECBAgACBJgUERpvsdo0mQIAAAQIECBAgQIAAAQIECBAg0LaAwGjb/a/1BAgQIECAAAECBAgQIECAAAECBJoUEBhtsts1mgABAgQIECBAgAABAgQIECBAgEDbAgKjbfe/1hMgQIAAAQIECBAgQIAAAQIECBBoUkBgtMlu12gCBAgQIECAAAECBAgQIECAAAECbQsIjLbd/1pPgAABAgQIECBAgAABAgQIECBAoEkBgdEmu12jCRAgQIAAAQIECBAgQIAAAQIECLQtIDDadv9rPQECBAgQIECAAAECBAgQIECAAIEmBQRGm+x2jSZAgAABAgQIECBAgAABAgQIECDQtoDAaNv9r/UECBAgQIAAAQIECBAgQIAAAQIEmhQQGG2y2zWaAAECBAgQIECAAAECBAgQIECAQNsCAqNt97/WEyBAgAABAgQIECBAgAABAgQIEGhSQGC0yW7XaAIECBAgQIAAAQIECBAgQIAAAQJtCwiMtt3/Wk+AAAECBAgQIECAAAECBAgQIECgSQGB0Sa7XaMJECBAgAABAgQIECBAgAABAgQItC0gMNp2/2s9AQIECBAgQIAAAQIECBAgQIAAgSYFBEab7HaNJkCAAAECBAgQIECAAAECBAgQINC2gMBo2/2v9QQIECBAgAABAgQIECBAgAABAgSaFBAYbbLbNZoAAQIECBAgQIAAAQIECBAgQIBA2wICo233v9YTIECAAAECBAgQIECAAAECBAgQaFJAYLTJbtdoAgQIECBAgAABAgQIECBAgAABAm0LCIy23f9aT4AAAQIECBAgQIAAAQIECBAgQKBJAYHRJrtdowkQIECAAAECBAgQIECAAAECBAi0LSAw2nb/az0BAgQIECBAgAABAgQIECBAgACBJgUERpvsdo0mQIAAAQIECBAgQIAAAQIECBAg0LaAwGjb/a/1BAgQIECAAAECBAgQIECAAAECBJoUEBhtsts1mgABAgQIECBAgAABAgQIECBAgEDbAgKjbfe/1hMgQIAAAQIECBAgQIAAAQIECBBoUkBgtMlu12gCBAgQIECAAAECBAgQIECAAAECbQsIjLbd/1pPgAABAgQIECBAgAABAgQIECBAoEkBgdEmu12jCRAgQIAAAQIECBAgQIAAAQIECLQtIDDadv9rPQECBAgQIECAAAECBAgQIECAAIEmBQRGm+x2jSZAgAABAgQIECBAgAABAgQIECDQtoDAaNv9r/UECBAgQIAAAQIECBAgQIAAAQIEmhQQGG2y2zWaAAECBAgQIECAAAECBAgQIECAQNsCAqNt97/WEyBAgAABAgQIECBAgAABAgQIEGhSQGC0yW7XaAIECBAgQIAAAQIECBAgQIAAAQJtCwiMtt3/Wk+AAAECBAgQIECAAAECBAgQIECgSQGB0Sa7XaMJECBAgAABAgQIECBAgAABAgQItC0gMNp2/2s9AQIECBAgQIAAAQIECBAgQIAAgSYFBEab7HaNJkCAAAECBAgQIECAAAECBAgQINC2gMBo2/2v9QQIECBAgAABAgQIECBAgAABAgSaFBAYbbLbNZoAAQIECBAgQIAAAQIECBAgQIBA2wICo233v9YTIECAAAECBAgQIECAAAECBAgQaFJAYLTJbtdoAgQIECBAgAABAgQIECBAgAABAm0LCIy23f9aT4AAAQIECBAgQIAAAQIECBAgQKBJAYHRJrtdowkQIECAAAECBAgQIECAAAECBAi0LSAw2nb/az0BAgQIECBAgAABAgQIECBAgACBJgUERpvsdo0mQIAAAQIECBAgQIAAAQIECBAg0LaAwGjb/a/1BAgQIECAAAECBAgQIECAAAECBJoUEBhtsts1mgABAgQIECBAgAABAgQIECBAgEDbAgKjbfe/1hMgQIAAAQIECBAgQIAAAQIECBBoUkBgtMlu12gCBAgQIECAAAECBAgQIECAAAECbQsIjLbd/1pPgAABAgQIECBAgAABAgQIECBAoEkBgdEmu12jCRAgQIAAAQIECBAgQIAAAQIECLQtIDDadv9rPQECBAgQIECAAAECBAgQIECAAIEmBQRGm+x2jSZAgAABAgQIECBAgAABAgQIECDQtoDAaNv9r/UECBAgQIAAAQIECBAgQIAAAQIEmhQQGG2y2zWaAAECBAgQIECAAAECBAgQIECAQNsCAqNt97/WEyBAgAABAgQIECBAgAABAgQIEGhSQGC0yW7XaAIECBAgQIAAAQIECBAgQIAAAQJtCwiMtt3/Wk+AAAECBAgQIECAAAECBAgQIECgSQGB0Sa7XaMJECBAgAABAgQIECBAgAABAgQItC0gMNp2/2s9AQIECBAgQIAAAQIECBAgQIAAgSYFBEab7HaNJkCAAAECBAgQIECAAAECBAgQINC2gMBo2/2v9QQIECBAgAABAgQIECBAgAABAgSaFBAYbbLbNZoAAQIECBAgQIAAAQIECBAgQIBA2wICo233v9YTIECAAAECBAgQIECAAAECBAgQaFJAYLTJbtdoAgQIECBAgAABAgQIECBAgAABAm0LCIy23f9aT4AAAQIECBAgQIAAAQIECBAgQKBJAYHRJrtdowkQIECAAAECBAgQIECAAAECBAi0LSAw2nb/az0BAgQIECBAgAABAgQIECBAgACBJgUERpvsdo0mQIAAAQIECBAgQIAAAQIECBAg0LaAwGjb/a/1BAgQIECAAAECBAgQIECAAAECBJoUEBhtsts1mgABAgQIECBAgAABAgQIECBAgEDbAgKjbfe/1hMgQIAAAQIECBAgQIAAAQIECBBoUkBgtMlu12gCBAgQIECAAAECBAgQIECAAAECbQsIjLbd/1pPgAABAgQIECBAgAABAgQIECBAoEkBgdEmu12jCRAgQIAAAQIECBAgQIAAAQIECLQtIDDadv9rPQECBAgQIECAAAECBAgQIECAAIEmBQRGm+x2jSZAgAABAgQIECBAgAABAgQIECDQtoDAaNv9r/UECBAgQIAAAQIECBAgQIAAAQIEmhQQGG2y2zWaAAECBAgQIECAAAECBAgQIECAQNsCAqNt97/WEyBAgAABAgQIECBAgAABAgQIEGhSQGC0yW7XaAIECBAgQIAAAQIECBAgQIAAAQJtCwiMtt3/Wk+AAAECBAgQIECAAAECBAgQIECgSQGB0Sa7XaMJECBAgAABAgQIECBAgAABAgQItC0gMNp2/2s9AQIECBAgQIAAAQIECBAgQIAAgSYFBEab7HaNJkCAAAECBAgQIECAAAECBAgQINC2gMBo2/2v9QQIECBAgAABAgQIECBAgAABAgSaFBAYbbLbNZoAAQIECBAgQIAAAQIECBAgQIBA2wICo233v9YTIECAAAECBAgQIECAAAECBAgQaFJAYLTJbtdoAgQIECBAgAABAgQIECBAgAABAm0LCIy23f9aT4AAAQIECBAgQIAAAQIECBAgQKBJAYHRJrtdowkQIECAAAECBAgQIECAAAECBAi0LSAw2nb/az0BAgQIECBAgAABAgQIECBAgACBJgUERpvsdo0mQIAAAQIECBAgQIAAAQIECBAg0LaAwGjb/a/1BAgQIECAAAECBAgQIECAAAECBJoUEBhtsts1mgABAgQIECBAgAABAgQIECBAgEDbAgKjbfe/1hMgQIAAAQIECBAgQIAAAQIECBBoUkBgtMlu12gCBAgQIECAAAECBAgQIECAAAECbQsIjLbd/1pPgAABAgQIECBAgAABAgQIECBAoEkBgdEmu12jCRAgQIAAAQIECBAgQIAAAQIECLQtIDDadv9rPQECBAgQIECAAAECBAgQIECAAIEmBQRGm+x2jSZAgAABAgQIECBAgAABAgQIECDQtoDAaNv9r/UECBAgQIAAAQIECBAgQIAAAQIEmhQQGG2y2zWaAAECBAgQIECAAAECBAgQIECAQNsCAqNt97/WEyBAgAABAgQIECBAgAABAgQIEGhSQGC0yW7XaAIECBAgQIAAAQIECBAgQIAAAQJtCwiMtt3/Wk+AAAECBAgQIECAAAECBAgQIECgSQGB0Sa7XaMJECBAgAABAgQIECBAgAABAgQItC0gMNp2/2s9AQIECBAgQIAAAQIECBAgQIAAgSYFBEab7HaNJkCAAAECBAgQIECAAAECBAgQINC2gMBo2/2v9QQIECBAgAABAgQIECBAgAABAgSaFBAYbbLbNZoAAQIECBAgQIAAAQIECBAgQIBA2wICo233v9YTIECAAAECBAgQIECAAAECBAgQaFJAYLTJbtdoAgQIECBAgAABAgQIECBAgAABAm0L/P++DOclLe/1/wAAAABJRU5ErkJggg==;" vertex="1" parent="1">
          <mxGeometry x="160" y="459.99999999999994" width="830" height="475.4" as="geometry" />
        </mxCell>
      </root>
    </mxGraphModel>
  </diagram>
</mxfile>
